<svg   viewBox="0 0 120 120" fill="none" xmlns="http://www.w3.org/2000/svg">
<path fill-rule="evenodd" clip-rule="evenodd" d="M0.5 45C0.5 44.4477 0.947715 44 1.5 44H118.5C119.052 44 119.5 44.4477 119.5 45V70C119.5 70.5523 119.052 71 118.5 71H116V73C116 73.5523 115.552 74 115 74H105.965C106.305 74.5883 106.5 75.2714 106.5 76C106.5 78.2091 104.709 80 102.5 80C100.291 80 98.5 78.2091 98.5 76C98.5 75.2714 98.6948 74.5883 99.0351 74H95.9649C96.3052 74.5883 96.5 75.2714 96.5 76C96.5 78.2091 94.7091 80 92.5 80C90.2909 80 88.5 78.2091 88.5 76C88.5 75.2714 88.6948 74.5883 89.0351 74H42V77.5H40V74H37.2071C36.9419 74 36.6875 73.8946 36.5 73.7071L33.7929 71H1.5C0.947715 71 0.5 70.5523 0.5 70V45ZM99.8542 73C100.559 72.3776 101.486 72 102.5 72C103.514 72 104.441 72.3776 105.146 73H115V71H42V73H89.8542C90.5593 72.3776 91.4856 72 92.5 72C93.5144 72 94.4407 72.3776 95.1458 73H99.8542ZM35.2071 71L37.2071 73H40V71H35.2071ZM1.5 45V70H118.5V45H1.5ZM92.5 79C94.1569 79 95.5 77.6569 95.5 76C95.5 74.3431 94.1569 73 92.5 73C90.8431 73 89.5 74.3431 89.5 76C89.5 77.6569 90.8431 79 92.5 79ZM105.5 76C105.5 77.6569 104.157 79 102.5 79C100.843 79 99.5 77.6569 99.5 76C99.5 74.3431 100.843 73 102.5 73C104.157 73 105.5 74.3431 105.5 76Z" />
</svg>
