<svg   viewBox="0 0 120 120" fill="none" xmlns="http://www.w3.org/2000/svg">
<path fill-rule="evenodd" clip-rule="evenodd" d="M25.4159 53.0071C25.4897 52.9945 25.5654 52.9987 25.6374 53.0192L29.1374 54.0192C29.2619 54.0548 29.3678 54.1374 29.4327 54.2495L34.9327 63.7495C35.006 63.8761 35.0202 64.0285 34.9715 64.1665C34.9228 64.3044 34.8161 64.4141 34.6795 64.4667L28.1795 66.9667C28.052 67.0157 27.9101 67.0105 27.7866 66.9522C27.6631 66.8939 27.5688 66.7877 27.5257 66.6581L25.1396 59.5H10.5V60.5C10.5 60.7761 10.2761 61 10 61H8C7.72386 61 7.5 60.7761 7.5 60.5V59.5H1C0.723858 59.5 0.5 59.2761 0.5 59V57C0.5 56.7239 0.723858 56.5 1 56.5H4.95762L25.4159 53.0071ZM25.472 54.012L5.08415 57.4929C5.05635 57.4976 5.0282 57.5 5 57.5H1.5V58.5H8C8.27614 58.5 8.5 58.7239 8.5 59V60H9.5V59C9.5 58.7239 9.72386 58.5 10 58.5H25.5C25.7152 58.5 25.9063 58.6377 25.9743 58.8419L28.3089 65.8455L33.7738 63.7436L28.6685 54.9253L25.472 54.012Z" />
<path fill-rule="evenodd" clip-rule="evenodd" d="M92.6053 59.193C92.7001 59.0712 92.8457 59 93 59H118C118.276 59 118.5 59.2239 118.5 59.5V64C118.5 64.2761 118.276 64.5 118 64.5H115.465C115.805 65.0883 116 65.7714 116 66.5C116 68.7091 114.209 70.5 112 70.5C109.791 70.5 108 68.7091 108 66.5C108 65.7714 108.195 65.0883 108.535 64.5H103.965C104.305 65.0883 104.5 65.7714 104.5 66.5C104.5 68.7091 102.709 70.5 100.5 70.5C98.2909 70.5 96.5 68.7091 96.5 66.5C96.5 65.7714 96.6948 65.0883 97.0351 64.5H95.2445L91.8947 68.807C91.7999 68.9288 91.6543 69 91.5 69H27.5C27.2596 69 27.0532 68.8289 27.0087 68.5927C26.9641 68.3565 27.0939 68.122 27.3178 68.0344L38.8178 63.5344C38.8759 63.5117 38.9377 63.5 39 63.5H89.2555L92.6053 59.193ZM109.354 63.5C110.059 62.8776 110.986 62.5 112 62.5C113.014 62.5 113.941 62.8776 114.646 63.5H117.5V60H93.2445L89.8947 64.307C89.7999 64.4288 89.6543 64.5 89.5 64.5H39.0943L30.1499 68H91.2555L94.6053 63.693C94.7001 63.5712 94.8457 63.5 95 63.5H97.8542C98.5593 62.8776 99.4856 62.5 100.5 62.5C101.514 62.5 102.441 62.8776 103.146 63.5H109.354ZM100.5 69.5C102.157 69.5 103.5 68.1569 103.5 66.5C103.5 64.8431 102.157 63.5 100.5 63.5C98.8431 63.5 97.5 64.8431 97.5 66.5C97.5 68.1569 98.8431 69.5 100.5 69.5ZM115 66.5C115 68.1569 113.657 69.5 112 69.5C110.343 69.5 109 68.1569 109 66.5C109 64.8431 110.343 63.5 112 63.5C113.657 63.5 115 64.8431 115 66.5Z" />
</svg>
