<svg   viewBox="0 0 120 120" fill="none" xmlns="http://www.w3.org/2000/svg">
<path fill-rule="evenodd" clip-rule="evenodd" d="M1.5 57C0.947715 57 0.5 57.4477 0.5 58V60.5C0.5 61.0523 0.947715 61.5 1.5 61.5H33.7929L36.5 64.2071C36.6875 64.3946 36.9419 64.5 37.2071 64.5H40V68H42V64.5H89.0351C88.6948 65.0883 88.5 65.7714 88.5 66.5C88.5 68.7091 90.2909 70.5 92.5 70.5C94.7091 70.5 96.5 68.7091 96.5 66.5C96.5 65.7714 96.3052 65.0883 95.9649 64.5H99.0351C98.6948 65.0883 98.5 65.7714 98.5 66.5C98.5 68.7091 100.291 70.5 102.5 70.5C104.709 70.5 106.5 68.7091 106.5 66.5C106.5 65.7714 106.305 65.0883 105.965 64.5H115C115.552 64.5 116 64.0523 116 63.5V61.5H118.5C119.052 61.5 119.5 61.0523 119.5 60.5V58C119.5 57.4477 119.052 57 118.5 57H1.5ZM118.5 60.5V58H1.5V60.5H118.5ZM102.5 62.5C101.486 62.5 100.559 62.8776 99.8542 63.5H95.1458C94.4407 62.8776 93.5144 62.5 92.5 62.5C91.4856 62.5 90.5593 62.8776 89.8542 63.5H42V61.5H115V63.5H105.146C104.441 62.8776 103.514 62.5 102.5 62.5ZM37.2071 63.5L35.2071 61.5H40V63.5H37.2071ZM95.5 66.5C95.5 68.1569 94.1569 69.5 92.5 69.5C90.8431 69.5 89.5 68.1569 89.5 66.5C89.5 64.8431 90.8431 63.5 92.5 63.5C94.1569 63.5 95.5 64.8431 95.5 66.5ZM102.5 69.5C104.157 69.5 105.5 68.1569 105.5 66.5C105.5 64.8431 104.157 63.5 102.5 63.5C100.843 63.5 99.5 64.8431 99.5 66.5C99.5 68.1569 100.843 69.5 102.5 69.5Z" />
</svg>
