<svg   viewBox="0 0 120 120" fill="none" xmlns="http://www.w3.org/2000/svg">
<path fill-rule="evenodd" clip-rule="evenodd" d="M59.5 69V80H60.5V69H89.0351C88.6948 69.5883 88.5 70.2714 88.5 71C88.5 73.2091 90.2909 75 92.5 75C94.7091 75 96.5 73.2091 96.5 71C96.5 70.2714 96.3052 69.5883 95.9649 69H99.0351C98.6948 69.5883 98.5 70.2714 98.5 71C98.5 73.2091 100.291 75 102.5 75C104.709 75 106.5 73.2091 106.5 71C106.5 70.2714 106.305 69.5883 105.965 69H115C115.552 69 116 68.5523 116 68V64.5H118.5C119.052 64.5 119.5 64.0523 119.5 63.5V40C119.5 39.4477 119.052 39 118.5 39H60.5V28H59.5L59.5 63.5H39C38.9377 63.5 38.8759 63.5117 38.8178 63.5344L27.3178 68.0344C27.0939 68.122 26.9641 68.3565 27.0087 68.5927C27.0532 68.8289 27.2596 69 27.5 69H59.5ZM60.5 68H89.8542C90.5593 67.3776 91.4856 67 92.5 67C93.5144 67 94.4407 67.3776 95.1458 68H99.8542C100.559 67.3776 101.486 67 102.5 67C103.514 67 104.441 67.3776 105.146 68H115V64.5H60.5V68ZM59.5 64.5V68H30.1499L39.0943 64.5H59.5ZM60.5 63.5H118.5V40H60.5L60.5 63.5ZM95.5 71C95.5 72.6569 94.1569 74 92.5 74C90.8431 74 89.5 72.6569 89.5 71C89.5 69.3431 90.8431 68 92.5 68C94.1569 68 95.5 69.3431 95.5 71ZM102.5 74C104.157 74 105.5 72.6569 105.5 71C105.5 69.3431 104.157 68 102.5 68C100.843 68 99.5 69.3431 99.5 71C99.5 72.6569 100.843 74 102.5 74Z" />
<path fill-rule="evenodd" clip-rule="evenodd" d="M25.6374 53.0192C25.5654 52.9987 25.4897 52.9945 25.4159 53.0071L4.95762 56.5H1C0.723858 56.5 0.5 56.7239 0.5 57V59C0.5 59.2761 0.723858 59.5 1 59.5H7.5V60.5C7.5 60.7761 7.72386 61 8 61H10C10.2761 61 10.5 60.7761 10.5 60.5V59.5H25.1396L27.5257 66.6581C27.5688 66.7877 27.6631 66.8939 27.7866 66.9522C27.9101 67.0105 28.052 67.0157 28.1795 66.9667L34.6795 64.4667C34.8161 64.4141 34.9228 64.3044 34.9715 64.1665C35.0202 64.0285 35.006 63.8761 34.9327 63.7495L29.4327 54.2495C29.3678 54.1374 29.2619 54.0548 29.1374 54.0192L25.6374 53.0192ZM5.08415 57.4929L25.472 54.012L28.6685 54.9253L33.7738 63.7436L28.3089 65.8455L25.9743 58.8419C25.9063 58.6377 25.7152 58.5 25.5 58.5H10C9.72386 58.5 9.5 58.7239 9.5 59V60H8.5V59C8.5 58.7239 8.27614 58.5 8 58.5H1.5V57.5H5C5.0282 57.5 5.05635 57.4976 5.08415 57.4929Z" />
</svg>
