<svg   viewBox="0 0 120 120" fill="none" xmlns="http://www.w3.org/2000/svg">
<path fill-rule="evenodd" clip-rule="evenodd" d="M51 37C50.7296 37 50.5082 37.215 50.5002 37.4853L50.2498 46H20.5V38C20.5 37.7239 20.2761 37.5 20 37.5H18C17.7311 37.5 17.5103 37.7127 17.5003 37.9815L16.5182 64.5H1C0.723858 64.5 0.5 64.7239 0.5 65V67.9136C0.5 68.1897 0.723858 68.4136 1 68.4136H1.47119V69.856C1.47119 70.1321 1.69505 70.356 1.97119 70.356H11.6831C11.8157 70.356 11.9429 70.3033 12.0367 70.2095L13.8326 68.4136H16.5247V74.2263C16.5247 74.5025 16.7486 74.7263 17.0247 74.7263H98.6049C98.7375 74.7263 98.8647 74.6737 98.9585 74.5799L101.24 72.2984H101.632C101.255 72.8462 101.033 73.5104 101.033 74.2263C101.033 76.1036 102.555 77.6255 104.432 77.6255C106.31 77.6255 107.832 76.1036 107.832 74.2263C107.832 73.5104 107.61 72.8462 107.232 72.2984H109.887C109.509 72.8462 109.288 73.5104 109.288 74.2263C109.288 76.1036 110.81 77.6255 112.687 77.6255C114.565 77.6255 116.086 76.1036 116.086 74.2263C116.086 73.5104 115.865 72.8462 115.487 72.2984H115.879L117.19 73.6087C117.283 73.7025 117.411 73.7551 117.543 73.7551H119C119.276 73.7551 119.5 73.5313 119.5 73.2551V37.5C119.5 37.2239 119.276 37 119 37H117C116.73 37 116.509 37.2143 116.5 37.4841L116.23 46H86.5V37.5C86.5 37.2239 86.2761 37 86 37H84C83.7296 37 83.5082 37.215 83.5002 37.4853L83.2498 46H53.5V37.5C53.5 37.2239 53.2761 37 53 37H51ZM52.5 38H51.4855L50.5204 70.8128H52.5V38ZM53.5 47H83.2204L83.191 48H53.5V47ZM85.5 38H84.4855L83.5204 70.8128H85.5V38ZM86.5 47H116.198L116.166 48H86.5V47ZM19.5 38.5H18.4818L17.5189 64.5H19.5V38.5ZM20.5 47H50.2204L50.191 48H20.5V47ZM20.5 49H50.1615L49.52 70.8128H20.5V49ZM86.5 49H116.135L115.519 68.3848H100.062C99.9291 68.3848 99.8019 68.4375 99.7082 68.5312L97.4266 70.8128H86.5V49ZM53.5 49H83.1615L82.52 70.8128H53.5V49ZM116.52 68.3848H118.5V38H117.484L116.52 68.3848ZM110.96 71.2984C111.466 70.999 112.056 70.8271 112.687 70.8271C113.318 70.8271 113.909 70.999 114.415 71.2984H116.086C116.219 71.2984 116.346 71.351 116.44 71.4448L117.75 72.7551H118.5V69.3848H100.269L97.9873 71.6663C97.8935 71.7601 97.7664 71.8128 97.6337 71.8128H17.5247V73.7263H98.3978L100.679 71.4448C100.773 71.351 100.9 71.2984 101.033 71.2984H102.705C103.211 70.999 103.802 70.8271 104.432 70.8271C105.063 70.8271 105.654 70.999 106.16 71.2984H110.96ZM2.47119 68.4136V69.356H11.476L12.4184 68.4136H2.47119ZM1.5 67.4136V65.5H19.5V70.8128H17.5247V67.9136C17.5247 67.6374 17.3008 67.4136 17.0247 67.4136H1.5ZM104.432 76.6255C105.757 76.6255 106.832 75.5514 106.832 74.2263C106.832 72.9013 105.757 71.8271 104.432 71.8271C103.107 71.8271 102.033 72.9013 102.033 74.2263C102.033 75.5514 103.107 76.6255 104.432 76.6255ZM115.086 74.2263C115.086 75.5514 114.012 76.6255 112.687 76.6255C111.362 76.6255 110.288 75.5514 110.288 74.2263C110.288 72.9013 111.362 71.8271 112.687 71.8271C114.012 71.8271 115.086 72.9013 115.086 74.2263Z" />
</svg>
