<svg   viewBox="0 0 16 16" fill="none" xmlns="http://www.w3.org/2000/svg">
<path fill-rule="evenodd" clip-rule="evenodd" d="M6.93932 7.99998L3.05024 11.8891C2.75734 12.182 2.75734 12.6568 3.05024 12.9497C3.34313 13.2426 3.818 13.2426 4.1109 12.9497L7.99998 9.06064L11.8891 12.9497C12.182 13.2426 12.6568 13.2426 12.9497 12.9497C13.2426 12.6568 13.2426 12.182 12.9497 11.8891L9.06064 7.99998L12.9497 4.1109C13.2426 3.818 13.2426 3.34313 12.9497 3.05024C12.6568 2.75734 12.182 2.75734 11.8891 3.05024L7.99998 6.93932L4.1109 3.05024C3.818 2.75734 3.34313 2.75734 3.05024 3.05024C2.75734 3.34313 2.75734 3.818 3.05024 4.1109L6.93932 7.99998Z" />
</svg>
