<svg   viewBox="0 0 16 16" fill="none" xmlns="http://www.w3.org/2000/svg">
<path fill-rule="evenodd" clip-rule="evenodd" d="M14.0303 3.46967C14.3232 3.76256 14.3232 4.23744 14.0303 4.53033L10.0607 8.5L14.0303 12.4697C14.3232 12.7626 14.3232 13.2374 14.0303 13.5303C13.7374 13.8232 13.2626 13.8232 12.9697 13.5303L8.46967 9.03033C8.17678 8.73744 8.17678 8.26256 8.46967 7.96967L12.9697 3.46967C13.2626 3.17678 13.7374 3.17678 14.0303 3.46967Z" />
<path fill-rule="evenodd" clip-rule="evenodd" d="M7.03033 3.46967C7.32322 3.76256 7.32322 4.23744 7.03033 4.53033L3.06066 8.5L7.03033 12.4697C7.32322 12.7626 7.32322 13.2374 7.03033 13.5303C6.73744 13.8232 6.26256 13.8232 5.96967 13.5303L1.46967 9.03033C1.17678 8.73744 1.17678 8.26256 1.46967 7.96967L5.96967 3.46967C6.26256 3.17678 6.73744 3.17678 7.03033 3.46967Z" />
</svg>
