<svg   viewBox="0 0 16 16" fill="none" xmlns="http://www.w3.org/2000/svg">
<path fill-rule="evenodd" clip-rule="evenodd" d="M3.25 2H2C0.895431 2 0 2.89543 0 4V13C0 14.1046 0.895431 15 2 15H14C15.1046 15 16 14.1046 16 13V4C16 2.89543 15.1046 2 14 2H12.75V1.25C12.75 0.835786 12.4142 0.5 12 0.5C11.5858 0.5 11.25 0.835786 11.25 1.25V2H4.75V1.25C4.75 0.835786 4.41421 0.5 4 0.5C3.58579 0.5 3.25 0.835786 3.25 1.25V2ZM3.25 3.5V4.25C3.25 4.66421 3.58579 5 4 5C4.41421 5 4.75 4.66421 4.75 4.25V3.5H11.25V4.25C11.25 4.66421 11.5858 5 12 5C12.4142 5 12.75 4.66421 12.75 4.25V3.5H14C14.2761 3.5 14.5 3.72386 14.5 4V6.25H1.5V4C1.5 3.72386 1.72386 3.5 2 3.5H3.25ZM1.5 7.75V13C1.5 13.2761 1.72386 13.5 2 13.5H14C14.2761 13.5 14.5 13.2761 14.5 13V7.75H1.5Z" />
</svg>
