<svg   viewBox="0 0 16 16" fill="none" xmlns="http://www.w3.org/2000/svg">
<path d="M7.18943 14.5C6.95983 14.5 6.76723 14.422 6.61164 14.266C6.45604 14.11 6.37852 13.9172 6.37906 13.6875V8.8125L1.6789 2.8C1.47631 2.52917 1.44578 2.24479 1.58733 1.94688C1.72887 1.64896 1.9755 1.5 2.3272 1.5H13.6724C14.0236 1.5 14.2702 1.64896 14.4123 1.94688C14.5544 2.24479 14.5238 2.52917 14.3207 2.8L9.62055 8.8125V13.6875C9.62055 13.9177 9.54275 14.1108 9.38716 14.2668C9.23157 14.4228 9.03924 14.5005 8.81018 14.5H7.18943ZM7.9998 8.24375L12.0111 3.125H3.98846L7.9998 8.24375Z" />
<path d="M7.9998 8.24375L12.0111 3.125H3.98846L7.9998 8.24375Z" />
</svg>
