<svg   viewBox="0 0 16 16" fill="none" xmlns="http://www.w3.org/2000/svg">
<path d="M7.16618 6.38461C7.16618 5.97039 6.83039 5.63461 6.41618 5.63461C6.00196 5.63461 5.66618 5.97039 5.66618 6.38461V12.3077C5.66618 12.7219 6.00196 13.0577 6.41618 13.0577C6.83039 13.0577 7.16618 12.7219 7.16618 12.3077V6.38461Z" />
<path d="M10.2773 6.38461C10.2773 5.97039 9.9415 5.63461 9.52729 5.63461C9.11308 5.63461 8.77729 5.97039 8.77729 6.38461V12.3077C8.77729 12.7219 9.11308 13.0577 9.52729 13.0577C9.9415 13.0577 10.2773 12.7219 10.2773 12.3077V6.38461Z" />
<path fill-rule="evenodd" clip-rule="evenodd" d="M5.6665 2.97221V2.55556C5.6665 1.28223 6.69874 0.25 7.97206 0.25C9.24538 0.25 10.2776 1.28223 10.2776 2.55556V2.97221H14.194C14.6082 2.97221 14.944 3.308 14.944 3.72221C14.944 4.13643 14.6082 4.47221 14.194 4.47221H13.3884V13.4444C13.3884 14.7178 12.3562 15.75 11.0828 15.75H4.86062C3.5873 15.75 2.55507 14.7178 2.55507 13.4444V4.47221H1.74951C1.3353 4.47221 0.999512 4.13643 0.999512 3.72221C0.999512 3.308 1.3353 2.97221 1.74951 2.97221H5.6665ZM7.1665 2.55556C7.1665 2.11066 7.52716 1.75 7.97206 1.75C8.41695 1.75 8.77762 2.11066 8.77762 2.55556V2.97221H7.1665V2.55556ZM6.41288 4.47221L6.4165 4.47222L6.42013 4.47221H9.52399L9.52761 4.47222L9.53124 4.47221H11.8884V13.4444C11.8884 13.8893 11.5277 14.25 11.0828 14.25H4.86062C4.41573 14.25 4.05507 13.8893 4.05507 13.4444V4.47221H6.41288Z" />
</svg>
