<svg   viewBox="0 0 16 16" fill="none" xmlns="http://www.w3.org/2000/svg">
<path fill-rule="evenodd" clip-rule="evenodd" d="M8 14.5C11.5899 14.5 14.5 11.5899 14.5 8C14.5 4.41015 11.5899 1.5 8 1.5C4.41015 1.5 1.5 4.41015 1.5 8C1.5 11.5899 4.41015 14.5 8 14.5ZM8 16C12.4183 16 16 12.4183 16 8C16 3.58172 12.4183 0 8 0C3.58172 0 0 3.58172 0 8C0 12.4183 3.58172 16 8 16Z" />
<path d="M7.36213 12.4986V5.95312H8.63628V12.4986H7.36213ZM8.00559 4.94318C7.784 4.94318 7.59366 4.86932 7.43457 4.72159C7.27832 4.57102 7.2002 4.39205 7.2002 4.18466C7.2002 3.97443 7.27832 3.79545 7.43457 3.64773C7.59366 3.49716 7.784 3.42188 8.00559 3.42188C8.22718 3.42188 8.4161 3.49716 8.57235 3.64773C8.73145 3.79545 8.81099 3.97443 8.81099 4.18466C8.81099 4.39205 8.73145 4.57102 8.57235 4.72159C8.4161 4.86932 8.22718 4.94318 8.00559 4.94318Z" />
</svg>
