<svg   viewBox="0 0 16 16" fill="none" xmlns="http://www.w3.org/2000/svg">
<path fill-rule="evenodd" clip-rule="evenodd" d="M1.96967 12.5303C1.67678 12.2374 1.67678 11.7626 1.96967 11.4697L5.93934 7.5L1.96967 3.53033C1.67678 3.23744 1.67678 2.76256 1.96967 2.46967C2.26256 2.17678 2.73744 2.17678 3.03033 2.46967L7.53033 6.96967C7.82322 7.26256 7.82322 7.73744 7.53033 8.03033L3.03033 12.5303C2.73744 12.8232 2.26256 12.8232 1.96967 12.5303Z" />
<path fill-rule="evenodd" clip-rule="evenodd" d="M8.96967 12.5303C8.67678 12.2374 8.67678 11.7626 8.96967 11.4697L12.9393 7.5L8.96967 3.53033C8.67678 3.23744 8.67678 2.76256 8.96967 2.46967C9.26256 2.17678 9.73744 2.17678 10.0303 2.46967L14.5303 6.96967C14.8232 7.26256 14.8232 7.73744 14.5303 8.03033L10.0303 12.5303C9.73744 12.8232 9.26256 12.8232 8.96967 12.5303Z" />
</svg>
