<svg   viewBox="0 0 16 18" fill="none" xmlns="http://www.w3.org/2000/svg">
<path fill-rule="evenodd" clip-rule="evenodd" d="M7.88889 0.939346L12.3081 5.35857C12.601 5.65146 12.601 6.12633 12.3081 6.41923C12.0152 6.71212 11.5403 6.71212 11.2474 6.41923L7.88889 3.06067L4.53033 6.41923C4.23744 6.71212 3.76256 6.71212 3.46967 6.41923C3.17678 6.12633 3.17678 5.65146 3.46967 5.35857L7.88889 0.939346Z" />
<path fill-rule="evenodd" clip-rule="evenodd" d="M7.88894 17.0607L3.46972 12.6414C3.17683 12.3486 3.17683 11.8737 3.46972 11.5808C3.76262 11.2879 4.23749 11.2879 4.53038 11.5808L7.88894 14.9393L11.2475 11.5808C11.5404 11.2879 12.0153 11.2879 12.3082 11.5808C12.6011 11.8737 12.6011 12.3486 12.3082 12.6414L7.88894 17.0607Z" />
</svg>
