<svg   viewBox="0 0 16 16" fill="none" xmlns="http://www.w3.org/2000/svg">
<path fill-rule="evenodd" clip-rule="evenodd" d="M14 3H2C1.44772 3 1 3.44772 1 4V12C1 12.5523 1.44772 13 2 13H14C14.5523 13 15 12.5523 15 12V4C15 3.44772 14.5523 3 14 3ZM2 2C0.895431 2 0 2.89543 0 4V12C0 13.1046 0.895431 14 2 14H14C15.1046 14 16 13.1046 16 12V4C16 2.89543 15.1046 2 14 2H2Z" />
<path fill-rule="evenodd" clip-rule="evenodd" d="M1.05191 3.30588C1.21521 3.0832 1.52811 3.03506 1.75079 3.19836L8.00057 7.78153L14.2503 3.19836C14.473 3.03506 14.7859 3.0832 14.9492 3.30588C15.1125 3.52857 15.0644 3.84147 14.8417 4.00477L8.29625 8.80477C8.12025 8.93383 7.88088 8.93383 7.70488 8.80477L1.15943 4.00477C0.936747 3.84147 0.888609 3.52857 1.05191 3.30588Z" />
</svg>
