<svg   viewBox="0 0 16 16" fill="none" xmlns="http://www.w3.org/2000/svg">
<g clip-path="url(#clip0_367_1693)">
<path fill-rule="evenodd" clip-rule="evenodd" d="M8 0.99999C8 1.4142 7.66265 1.74527 7.25135 1.79437C4.15253 2.16428 1.75 4.80156 1.75 7.99999C1.75 11.4518 4.54822 14.25 8 14.25C11.1984 14.25 13.8357 11.8475 14.2056 8.74864C14.2547 8.33734 14.5858 7.99999 15 7.99999C15.4142 7.99999 15.7538 8.3368 15.7143 8.74913C15.3374 12.6778 12.0275 15.75 8 15.75C3.71979 15.75 0.25 12.2802 0.25 7.99999C0.25 3.9725 3.32215 0.662554 7.25087 0.285731C7.66319 0.246183 8 0.585776 8 0.99999Z" />
</g>
<defs>
<clipPath id="clip0_367_1693">
<rect width="16" height="16" />
</clipPath>
</defs>
</svg>
