<svg   viewBox="0 0 16 16" fill="none" xmlns="http://www.w3.org/2000/svg">
<g clip-path="url(#clip0_432_3907)">
<path fill-rule="evenodd" clip-rule="evenodd" d="M9.17655 2.58202C9.17655 3.30054 9.06169 3.98687 8.85076 4.62537L8.84842 4.63239L8.84543 4.64191C8.64359 5.28412 8.79145 6.01664 9.30944 6.53463L10.1559 7.38111C9.44729 8.49433 8.49682 9.44267 7.37974 10.1549L6.53445 9.30962C6.03241 8.80759 5.28822 8.63383 4.62071 8.85919C3.98395 9.06902 3.29244 9.1835 2.58184 9.1835C1.55011 9.1835 0.710938 10.0227 0.710938 11.0544V13.418C0.710938 14.4497 1.55011 15.2889 2.58184 15.2889C9.60044 15.2889 15.2887 9.60062 15.2887 2.58202C15.2887 1.5503 14.4495 0.711121 13.4178 0.711121H11.0474C10.0157 0.711121 9.17655 1.5503 9.17655 2.58202ZM5.5647 10.2794L7.1462 11.8609L7.26142 11.8018C9.21092 10.803 10.8094 9.21158 11.8019 7.26116L11.8604 7.14611L10.2792 5.56488C10.1387 5.42443 10.0984 5.23058 10.1534 5.05422C10.4096 4.27821 10.548 3.44715 10.548 2.58202C10.548 2.30772 10.7731 2.08255 11.0474 2.08255H13.4178C13.6921 2.08255 13.9173 2.30772 13.9173 2.58202C13.9173 8.8432 8.84302 13.9175 2.58184 13.9175C2.30753 13.9175 2.08237 13.6923 2.08237 13.418V11.0544C2.08237 10.7801 2.30753 10.5549 2.58184 10.5549C3.44062 10.5549 4.27892 10.4164 5.05538 10.1599L5.05727 10.1593C5.22989 10.1001 5.42969 10.1444 5.5647 10.2794ZM7.18046 11.6436C7.18043 11.6436 7.1805 11.6435 7.18046 11.6436V11.6436Z" />
</g>
<defs>
<clipPath id="clip0_432_3907">
<rect width="16" height="16" />
</clipPath>
</defs>
</svg>
