<svg   viewBox="0 0 16 16" fill="none" xmlns="http://www.w3.org/2000/svg">
<g clip-path="url(#clip0_367_1691)">
<path fill-rule="evenodd" clip-rule="evenodd" d="M6.93932 7.99998L1.05024 13.8891C0.757343 14.182 0.757343 14.6568 1.05024 14.9497C1.34313 15.2426 1.818 15.2426 2.1109 14.9497L7.99998 9.06064L13.8891 14.9497C14.182 15.2426 14.6568 15.2426 14.9497 14.9497C15.2426 14.6568 15.2426 14.182 14.9497 13.8891L9.06064 7.99998L14.9497 2.1109C15.2426 1.818 15.2426 1.34313 14.9497 1.05024C14.6568 0.757343 14.182 0.757343 13.8891 1.05024L7.99998 6.93932L2.1109 1.05024C1.818 0.757343 1.34313 0.757343 1.05024 1.05024C0.757343 1.34313 0.757343 1.818 1.05024 2.1109L6.93932 7.99998Z" />
</g>
<defs>
<clipPath id="clip0_367_1691">
<rect width="16" height="16" />
</clipPath>
</defs>
</svg>
