<svg   viewBox="0 0 24 24" fill="none" xmlns="http://www.w3.org/2000/svg">
<g clip-path="url(#clip0_529_6041)">
<path d="M19 13C19.5523 13 20 12.5523 20 12C20 11.4477 19.5523 11 19 11C18.4477 11 18 11.4477 18 12C18 12.5523 18.4477 13 19 13Z" />
<path fill-rule="evenodd" clip-rule="evenodd" d="M6.25 8.25V5C6.25 4.0335 7.0335 3.25 8 3.25H16C16.9665 3.25 17.75 4.0335 17.75 5V8.25H20C21.5188 8.25 22.75 9.48122 22.75 11V16C22.75 16.9665 21.9665 17.75 21 17.75H17.75V20C17.75 20.9665 16.9665 21.75 16 21.75H8C7.0335 21.75 6.25 20.9665 6.25 20V17.75H3C2.0335 17.75 1.25 16.9665 1.25 16V11C1.25 9.48122 2.48122 8.25 4 8.25H6.25ZM7.75 5C7.75 4.86193 7.86193 4.75 8 4.75H16C16.1381 4.75 16.25 4.86193 16.25 5V8.25H7.75V5ZM21 16.25H17.75V16C17.75 15.0335 16.9665 14.25 16 14.25H8C7.0335 14.25 6.25 15.0335 6.25 16V16.25H3C2.86193 16.25 2.75 16.1381 2.75 16V11C2.75 10.3096 3.30964 9.75 4 9.75H20C20.6904 9.75 21.25 10.3096 21.25 11V16C21.25 16.1381 21.1381 16.25 21 16.25ZM8 15.75C7.86193 15.75 7.75 15.8619 7.75 16V20C7.75 20.1381 7.86193 20.25 8 20.25H16C16.1381 20.25 16.25 20.1381 16.25 20V16C16.25 15.8619 16.1381 15.75 16 15.75H8Z" />
</g>
<defs>
<clipPath id="clip0_529_6041">
<rect width="24" height="24" />
</clipPath>
</defs>
</svg>
