<svg   viewBox="0 0 24 24" fill="none" xmlns="http://www.w3.org/2000/svg">
<path d="M9.19556 11.9999C9.19556 10.451 10.4512 9.19539 12.0001 9.19539C13.549 9.19539 14.8046 10.451 14.8046 11.9999C14.8046 13.5488 13.549 14.8045 12.0001 14.8045C10.4512 14.8045 9.19556 13.5488 9.19556 11.9999Z" />
<path fill-rule="evenodd" clip-rule="evenodd" d="M4.53011 9.80956C6.55836 7.26216 9.25744 5.94539 12.0001 5.94539C14.7428 5.94539 17.4419 7.26216 19.4701 9.80956L20.7024 11.3572C21.0019 11.7334 21.0019 12.2665 20.7024 12.6426L19.4701 14.1903C17.4419 16.7377 14.7428 18.0545 12.0001 18.0545C9.25744 18.0545 6.55836 16.7377 4.53011 14.1903L3.29785 12.6426C2.99837 12.2665 2.99837 11.7334 3.29785 11.3572L4.53011 9.80956ZM12.0001 7.41812C9.75265 7.41812 7.46147 8.49227 5.68225 10.7269L4.66865 11.9999L5.68225 13.273C7.46147 15.5076 9.75265 16.5818 12.0001 16.5818C14.2476 16.5818 16.5388 15.5076 18.318 13.273L19.3316 11.9999L18.318 10.7269C16.5388 8.49227 14.2476 7.41812 12.0001 7.41812Z" />
</svg>
