<svg   viewBox="0 0 24 24" fill="none" xmlns="http://www.w3.org/2000/svg">
<path fill-rule="evenodd" clip-rule="evenodd" d="M13.4307 7.34271L13.434 7.33283C13.7389 6.40981 13.9048 5.41819 13.9048 4.38095C13.9048 3.06816 14.9729 2 16.2857 2H19.619C20.9318 2 22 3.06816 22 4.38095C22 14.1128 14.1128 22 4.38095 22C3.06816 22 2 20.9318 2 19.619V16.2952C2 14.9825 3.06816 13.9143 4.38095 13.9143C5.40723 13.9143 6.40639 13.7489 7.32727 13.4454C8.17585 13.1585 9.12334 13.3792 9.76253 14.0184L11.092 15.3479C12.8245 14.2805 14.2878 12.8207 15.3495 11.0936L14.0184 9.76253C13.3589 9.10306 13.1704 8.17113 13.4276 7.35263L13.4307 7.34271ZM10.8476 17.1238L8.75238 15.0286C8.49524 14.7714 8.11429 14.6857 7.78095 14.8C6.71429 15.1524 5.5619 15.3429 4.38095 15.3429C3.85714 15.3429 3.42857 15.7714 3.42857 16.2952V19.619C3.42857 20.1429 3.85714 20.5714 4.38095 20.5714C13.3238 20.5714 20.5714 13.3238 20.5714 4.38095C20.5714 3.85714 20.1429 3.42857 19.619 3.42857H16.2857C15.7619 3.42857 15.3333 3.85714 15.3333 4.38095C15.3333 5.57143 15.1429 6.71429 14.7905 7.78095C14.6857 8.11429 14.7619 8.48571 15.0286 8.75238L17.1238 10.8476C15.7524 13.5429 13.5429 15.7429 10.8476 17.1238Z" />
</svg>
