<svg   viewBox="0 0 24 24" fill="none" xmlns="http://www.w3.org/2000/svg">
<path d="M19.2766 8.48873L19.1944 8.45544L19.1593 8.54865L19.1445 8.58301L19.0721 8.74208C18.6547 9.60412 18.1189 10.4041 17.4806 11.1181C16.3129 12.4165 14.5324 13.6761 12 13.6761C9.46753 13.6761 7.68779 12.4161 6.51896 11.1177C5.8804 10.4034 5.34467 9.60339 4.92729 8.74093L4.92643 8.73913C4.89629 8.67468 4.86741 8.60966 4.83978 8.54411L4.83776 8.53931L4.7935 8.46185L4.21055 8.69426L3.61914 8.94057L3.65018 9.01938C3.67747 9.08865 3.70977 9.15931 3.74058 9.22662L3.76611 9.28287L3.76803 9.28684C4.23866 10.262 4.8443 11.1669 5.56622 11.9739C5.71995 12.1446 5.88412 12.3159 6.05893 12.4853L6.16836 12.5913L4.7346 14.0251C4.48418 14.2755 4.48418 14.6815 4.7346 14.9319C4.98502 15.1823 5.39103 15.1823 5.64145 14.9319L7.16407 13.4093L7.26698 13.4805C8.32141 14.2096 9.63168 14.7804 11.2228 14.9229L11.3594 14.9351V16.5334C11.3594 16.8871 11.6462 17.1739 12 17.1739C12.3537 17.1739 12.6405 16.8871 12.6405 16.5334V14.9351L12.7771 14.9229C14.3682 14.7805 15.6787 14.2097 16.7331 13.4807L16.836 13.4095L18.3585 14.9319C18.6089 15.1823 19.0149 15.1823 19.2653 14.9319C19.5157 14.6815 19.5157 14.2755 19.2653 14.0251L17.8317 12.5915L17.9411 12.4854C18.1159 12.316 18.2805 12.1442 18.4341 11.9734C19.1559 11.1667 19.7609 10.2626 20.2314 9.2878L20.2319 9.28685L20.2324 9.28577C20.2507 9.2465 20.2678 9.20578 20.2841 9.16699L20.2915 9.14937C20.3104 9.10473 20.3286 9.06237 20.3488 9.02193L20.3906 8.93841L19.792 8.69536L19.7903 8.69465C19.6188 8.62663 19.4475 8.55799 19.2766 8.48873Z" />
</svg>
