<svg   viewBox="0 0 24 24" fill="none" xmlns="http://www.w3.org/2000/svg">
<g clip-path="url(#clip0_368_797)">
<path d="M12 6.5C12.4142 6.5 12.75 6.83579 12.75 7.25V13.75C12.75 14.1642 12.4142 14.5 12 14.5C11.5858 14.5 11.25 14.1642 11.25 13.75V7.25C11.25 6.83579 11.5858 6.5 12 6.5Z" />
<path d="M12 18C12.4142 18 12.75 17.6642 12.75 17.25C12.75 16.8358 12.4142 16.5 12 16.5C11.5858 16.5 11.25 16.8358 11.25 17.25C11.25 17.6642 11.5858 18 12 18Z" />
<path fill-rule="evenodd" clip-rule="evenodd" d="M12 0C5.37258 -5.79387e-07 5.79388e-07 5.37258 0 12C-5.79386e-07 18.6274 5.37258 24 12 24C18.6274 24 24 18.6274 24 12C24 5.37258 18.6274 5.79387e-07 12 0ZM12 1.5C6.20101 1.5 1.5 6.20101 1.5 12C1.5 17.799 6.20101 22.5 12 22.5C17.799 22.5 22.5 17.799 22.5 12C22.5 6.20101 17.799 1.5 12 1.5Z" />
</g>
<defs>
<clipPath id="clip0_368_797">
<rect width="24" height="24" />
</clipPath>
</defs>
</svg>
