<svg   viewBox="0 0 24 24" fill="none" xmlns="http://www.w3.org/2000/svg">
<path d="M12 7C11.5858 7 11.25 7.33579 11.25 7.75V11.8964C11.25 12.1617 11.3554 12.416 11.5429 12.6036L13.4393 14.5C13.7322 14.7929 14.2071 14.7929 14.5 14.5C14.7929 14.2071 14.7929 13.7322 14.5 13.4393L12.75 11.6893V7.75C12.75 7.33579 12.4142 7 12 7Z" />
<path fill-rule="evenodd" clip-rule="evenodd" d="M22 12C22 17.5228 17.5228 22 12 22C6.47715 22 2 17.5228 2 12C2 6.47715 6.47715 2 12 2C17.5228 2 22 6.47715 22 12ZM20.5 12C20.5 16.6944 16.6944 20.5 12 20.5C7.30558 20.5 3.5 16.6944 3.5 12C3.5 7.30558 7.30558 3.5 12 3.5C16.6944 3.5 20.5 7.30558 20.5 12Z" />
</svg>
