<svg   viewBox="0 0 24 24" fill="none" xmlns="http://www.w3.org/2000/svg">
<path d="M22.0576 6.94499C21.9381 6.50102 21.7041 6.09623 21.3789 5.77112C21.0538 5.44601 20.649 5.212 20.2051 5.09249C18.5701 4.64999 12.0001 4.64999 12.0001 4.64999C12.0001 4.64999 5.43008 4.64999 3.79508 5.09249C3.35111 5.212 2.94631 5.44601 2.6212 5.77112C2.29609 6.09623 2.06208 6.50102 1.94258 6.94499C1.63729 8.61244 1.48914 10.3049 1.50008 12C1.48914 13.6951 1.63729 15.3875 1.94258 17.055C2.06208 17.499 2.29609 17.9038 2.6212 18.2289C2.94631 18.554 3.35111 18.788 3.79508 18.9075C5.43008 19.35 12.0001 19.35 12.0001 19.35C12.0001 19.35 18.5701 19.35 20.2051 18.9075C20.649 18.788 21.0538 18.554 21.3789 18.2289C21.7041 17.9038 21.9381 17.499 22.0576 17.055C22.3629 15.3875 22.511 13.6951 22.5001 12C22.511 10.3049 22.3629 8.61244 22.0576 6.94499ZM9.90007 15.15V8.84999L15.3526 12L9.90007 15.15Z" />
</svg>
