<svg   viewBox="0 0 24 24" fill="none" xmlns="http://www.w3.org/2000/svg">
<g clip-path="url(#clip0_368_805)">
<path d="M12 17.5C11.5858 17.5 11.25 17.1642 11.25 16.75V10.25C11.25 9.83579 11.5858 9.5 12 9.5C12.4142 9.5 12.75 9.83579 12.75 10.25V16.75C12.75 17.1642 12.4142 17.5 12 17.5Z" />
<path d="M12 6C11.5858 6 11.25 6.33579 11.25 6.75C11.25 7.16421 11.5858 7.5 12 7.5C12.4142 7.5 12.75 7.16421 12.75 6.75C12.75 6.33579 12.4142 6 12 6Z" />
<path fill-rule="evenodd" clip-rule="evenodd" d="M12 24C18.6274 24 24 18.6274 24 12C24 5.37258 18.6274 0 12 0C5.37258 0 0 5.37258 0 12C0 18.6274 5.37258 24 12 24ZM12 22.5C17.799 22.5 22.5 17.799 22.5 12C22.5 6.20101 17.799 1.5 12 1.5C6.20101 1.5 1.5 6.20101 1.5 12C1.5 17.799 6.20101 22.5 12 22.5Z" />
</g>
<defs>
<clipPath id="clip0_368_805">
<rect width="24" height="24" />
</clipPath>
</defs>
</svg>
