<svg   viewBox="0 0 24 24" fill="none" xmlns="http://www.w3.org/2000/svg">
<path fill-rule="evenodd" clip-rule="evenodd" d="M2 6.5C2 5.39543 2.89543 4.5 4 4.5H20C21.1046 4.5 22 5.39543 22 6.5V17.5C22 18.6046 21.1046 19.5 20 19.5H4C2.89543 19.5 2 18.6046 2 17.5V6.5ZM19.1355 6H4.86447L11.2326 10.953C11.684 11.304 12.316 11.304 12.7674 10.953L19.1355 6ZM3.5 6.83904V17.5C3.5 17.7761 3.72386 18 4 18H20C20.2761 18 20.5 17.7761 20.5 17.5V6.83903L13.6883 12.137C12.6953 12.9094 11.3047 12.9094 10.3117 12.137L3.5 6.83904Z" />
</svg>
