<svg   viewBox="0 0 24 24" fill="none" xmlns="http://www.w3.org/2000/svg">
<g clip-path="url(#clip0_368_803)">
<path fill-rule="evenodd" clip-rule="evenodd" d="M12 1.00001C12 1.41422 11.6631 1.74715 11.2499 1.77703C5.9392 2.16112 1.75 6.59135 1.75 12C1.75 17.6609 6.33908 22.25 12 22.25C17.4087 22.25 21.8389 18.0608 22.223 12.7501C22.2529 12.3369 22.5858 12 23 12C23.4142 12 23.7525 12.3368 23.7264 12.7502C23.3396 18.89 18.2374 23.75 12 23.75C5.51065 23.75 0.25 18.4894 0.25 12C0.25 5.76264 5.11005 0.660399 11.2499 0.273566C11.6632 0.24752 12 0.585793 12 1.00001Z" />
</g>
<defs>
<clipPath id="clip0_368_803">
<rect width="24" height="24" />
</clipPath>
</defs>
</svg>
