<svg width="24" height="24" viewBox="0 0 24 24" fill="none" xmlns="http://www.w3.org/2000/svg">
<g clip-path="url(#clip0_4651_45255)">
<path d="M2 20V18C2 16.9391 2.42143 15.9217 3.17157 15.1716C3.92172 14.4214 4.93913 14 6 14H8M4 6C4 7.06087 4.42143 8.07828 5.17157 8.82843C5.92172 9.57857 6.93913 10 8 10C9.06087 10 10.0783 9.57857 10.8284 8.82843C11.5786 8.07828 12 7.06087 12 6C12 4.93913 11.5786 3.92172 10.8284 3.17157C10.0783 2.42143 9.06087 2 8 2C6.93913 2 5.92172 2.42143 5.17157 3.17157C4.42143 3.92172 4 4.93913 4 6Z" stroke="#74AAF4" stroke-width="1.5" stroke-linecap="round" stroke-linejoin="round"/>
<path d="M16.0525 21C15.4485 21 14.9391 20.55 14.8645 19.9506L14.8223 19.6115C14.7939 19.3827 14.6374 19.1951 14.4406 19.075V19.075V19.075C14.2446 18.9553 14.0035 18.9235 13.7918 19.0128L13.4965 19.1376C12.9302 19.3767 12.2746 19.1563 11.9677 18.6237L11.5302 17.8642C11.227 17.3379 11.3619 16.6683 11.8452 16.3005L12.2608 15.9842C12.3524 15.9145 12.3955 15.8005 12.3955 15.6853V15.6853V15.3147V15.3147C12.3955 15.1995 12.3524 15.0855 12.2608 15.0158L11.8452 14.6995C11.3619 14.3317 11.227 13.6621 11.5302 13.1358L11.9673 12.3771C12.2744 11.844 12.9306 11.6235 13.4972 11.8628L13.7863 11.9848C14.0014 12.0757 14.2463 12.0431 14.4478 11.925V11.925V11.925C14.644 11.81 14.7934 11.6208 14.8215 11.3951L14.8628 11.0627C14.9383 10.4557 15.4542 10 16.066 10H16.9475C17.5515 10 18.0609 10.45 18.1355 11.0494L18.1777 11.3885C18.2061 11.6173 18.3626 11.8049 18.5594 11.925V11.925V11.925C18.7554 12.0447 18.9965 12.0765 19.2082 11.9872L19.5035 11.8624C20.0698 11.6233 20.7254 11.8437 21.0323 12.3763L21.4698 13.1358C21.773 13.6621 21.6381 14.3317 21.1548 14.6995L20.7393 15.0158C20.6476 15.0855 20.6045 15.1995 20.6045 15.3147V15.3147V15.6853V15.6853C20.6045 15.7991 20.6366 15.9166 20.7271 15.9854L21.1926 16.3397C21.6465 16.6851 21.7731 17.3138 21.4884 17.808L21.0151 18.6298C20.7105 19.1585 20.059 19.3764 19.4976 19.1373L19.2132 19.0162C18.9985 18.9248 18.7536 18.957 18.5522 19.075V19.075V19.075C18.356 19.19 18.2066 19.3792 18.1785 19.6049L18.1372 19.9373C18.0617 20.5443 17.5458 21 16.934 21H16.0525ZM16.5274 17.425C17.0564 17.425 17.5079 17.2371 17.8818 16.8613C18.2558 16.4854 18.4428 16.0317 18.4428 15.5C18.4428 14.9683 18.2558 14.5146 17.8818 14.1387C17.5079 13.7629 17.0564 13.575 16.5274 13.575C15.9892 13.575 15.5354 13.7629 15.1658 14.1387C14.7962 14.5146 14.6116 14.9683 14.6119 15.5C14.6119 16.0317 14.7966 16.4854 15.1658 16.8613C15.535 17.2371 15.9889 17.425 16.5274 17.425Z" stroke="#74AAF4" stroke-width="1.4"/>
</g>
<defs>
<clipPath id="clip0_4651_45255">
<rect width="22" height="21" fill="white" transform="translate(1 1)"/>
</clipPath>
</defs>
</svg>
