<svg   viewBox="0 0 24 24" fill="none" xmlns="http://www.w3.org/2000/svg">
<path d="M10.75 9C10.75 8.58579 10.4142 8.25 10 8.25C9.58579 8.25 9.25 8.58579 9.25 9V18C9.25 18.4142 9.58579 18.75 10 18.75C10.4142 18.75 10.75 18.4142 10.75 18V9Z" />
<path d="M14.75 9C14.75 8.58579 14.4142 8.25 14 8.25C13.5858 8.25 13.25 8.58579 13.25 9V18C13.25 18.4142 13.5858 18.75 14 18.75C14.4142 18.75 14.75 18.4142 14.75 18V9Z" />
<path fill-rule="evenodd" clip-rule="evenodd" d="M9.25 5.75V5C9.25 3.48122 10.4812 2.25 12 2.25C13.5188 2.25 14.75 3.48122 14.75 5V5.75H20C20.4142 5.75 20.75 6.08579 20.75 6.5C20.75 6.91421 20.4142 7.25 20 7.25H18.75V19C18.75 20.5188 17.5188 21.75 16 21.75H8C6.48122 21.75 5.25 20.5188 5.25 19V7.25H4C3.58579 7.25 3.25 6.91421 3.25 6.5C3.25 6.08579 3.58579 5.75 4 5.75H9.25ZM10.75 5C10.75 4.30964 11.3096 3.75 12 3.75C12.6904 3.75 13.25 4.30964 13.25 5V5.75H10.75V5ZM6.75 7.25V19C6.75 19.6904 7.30964 20.25 8 20.25H16C16.6904 20.25 17.25 19.6904 17.25 19V7.25H6.75Z" />
</svg>
