<svg   viewBox="0 0 24 24" fill="none" xmlns="http://www.w3.org/2000/svg">
<path fill-rule="evenodd" clip-rule="evenodd" d="M12 4C12 4.41421 11.6632 4.74592 11.2512 4.7882C7.59895 5.16295 4.75 8.24877 4.75 12C4.75 16.0041 7.99594 19.25 12 19.25C15.7512 19.25 18.837 16.401 19.2118 12.7488C19.2541 12.3368 19.5858 12 20 12C20.4142 12 20.7534 12.3369 20.7183 12.7497C20.3381 17.2312 16.58 20.75 12 20.75C7.16751 20.75 3.25 16.8325 3.25 12C3.25 7.42004 6.76877 3.66194 11.2503 3.28166C11.6631 3.24664 12 3.58579 12 4Z" />
</svg>
