<svg   viewBox="0 0 24 24" fill="none" xmlns="http://www.w3.org/2000/svg">
<path fill-rule="evenodd" clip-rule="evenodd" d="M10.9398 12L5.05072 17.8891C4.75783 18.182 4.75783 18.6568 5.05072 18.9497C5.34362 19.2426 5.81849 19.2426 6.11138 18.9497L12.0005 13.0606L17.8896 18.9497C18.1825 19.2426 18.6573 19.2426 18.9502 18.9497C19.2431 18.6568 19.2431 18.182 18.9502 17.8891L13.0611 12L18.9502 6.1109C19.2431 5.818 19.2431 5.34313 18.9502 5.05024C18.6573 4.75734 18.1825 4.75734 17.8896 5.05024L12.0005 10.9393L6.11138 5.05024C5.81849 4.75734 5.34362 4.75734 5.05072 5.05024C4.75783 5.34313 4.75783 5.818 5.05072 6.1109L10.9398 12Z" />
</svg>
