<svg   viewBox="0 0 24 24" fill="none" xmlns="http://www.w3.org/2000/svg">
<path fill-rule="evenodd" clip-rule="evenodd" d="M5.75 3.71875H3C1.89543 3.71875 1 4.61418 1 5.71875V19.5938C1 20.6983 1.89543 21.5938 3 21.5938H21C22.1046 21.5938 23 20.6983 23 19.5938V5.71875C23 4.61418 22.1046 3.71875 21 3.71875H18.25V2.40625C18.25 1.99204 17.9142 1.65625 17.5 1.65625C17.0858 1.65625 16.75 1.99204 16.75 2.40625V3.71875H7.25V2.40625C7.25 1.99204 6.91421 1.65625 6.5 1.65625C6.08579 1.65625 5.75 1.99204 5.75 2.40625V3.71875ZM5.75 5.21875V6.75C5.75 7.16421 6.08579 7.5 6.5 7.5C6.91421 7.5 7.25 7.16421 7.25 6.75V5.21875H16.75V6.75C16.75 7.16421 17.0858 7.5 17.5 7.5C17.9142 7.5 18.25 7.16421 18.25 6.75V5.21875H21C21.2761 5.21875 21.5 5.44261 21.5 5.71875V9.84375H2.5V5.71875C2.5 5.44261 2.72386 5.21875 3 5.21875H5.75ZM2.5 11.3438V19.5938C2.5 19.8699 2.72386 20.0938 3 20.0938H21C21.2761 20.0938 21.5 19.8699 21.5 19.5938V11.3438H2.5Z" />
</svg>
