<svg  viewBox="0 0 24 24" xmlns="http://www.w3.org/2000/svg">
<path fill-rule="evenodd" clip-rule="evenodd" d="M1.33333 7.08426C1.22814 7.08426 1.14286 7.16954 1.14286 7.27474V14.2898C1.14286 14.395 1.22814 14.4803 1.33333 14.4803H1.73761V15.6232H1.33333C0.596954 15.6232 0 15.0262 0 14.2898V7.27474C0 6.53836 0.596954 5.94141 1.33333 5.94141H15.6407C16.3771 5.94141 16.974 6.53836 16.974 7.27474V9.43995H18.1905C19.1756 9.43995 20.0913 9.94743 20.6134 10.7828L21.3063 11.8916C21.3325 11.9334 21.3738 11.9634 21.4217 11.9754L22.2172 12.1743C23.265 12.4362 24 13.3777 24 14.4577C24 15.1014 23.4782 15.6232 22.8345 15.6232H22.4956V14.4803H22.8345C22.847 14.4803 22.8571 14.4702 22.8571 14.4577C22.8571 13.9021 22.479 13.4178 21.94 13.283L21.1445 13.0841C20.8096 13.0004 20.5202 12.79 20.3372 12.4973L19.6442 11.3885C19.331 10.8873 18.7816 10.5828 18.1905 10.5828H16.974V14.4803H20.3965V15.6232H6.8688V14.4803H15.8312V7.27474C15.8312 7.16954 15.7459 7.08426 15.6407 7.08426H1.33333ZM5.23615 15.6232H3.6035V14.4803H5.23615V15.6232Z" />
<path fill-rule="evenodd" clip-rule="evenodd" d="M21.3852 14.8433C21.0259 14.8433 20.7347 15.1345 20.7347 15.4938C20.7347 15.853 21.0259 16.1442 21.3852 16.1442C21.7444 16.1442 22.0356 15.853 22.0356 15.4938C22.0356 15.1345 21.7444 14.8433 21.3852 14.8433ZM19.5918 15.4938C19.5918 14.5033 20.3947 13.7004 21.3852 13.7004C22.3756 13.7004 23.1785 14.5033 23.1785 15.4938C23.1785 16.4842 22.3756 17.2871 21.3852 17.2871C20.3947 17.2871 19.5918 16.4842 19.5918 15.4938Z" />
<path fill-rule="evenodd" clip-rule="evenodd" d="M2.72627 14.8433C2.36702 14.8433 2.07579 15.1345 2.07579 15.4938C2.07579 15.853 2.36702 16.1442 2.72627 16.1442C3.08552 16.1442 3.37675 15.853 3.37675 15.4938C3.37675 15.1345 3.08552 14.8433 2.72627 14.8433ZM0.93293 15.4938C0.93293 14.5033 1.73583 13.7004 2.72627 13.7004C3.7167 13.7004 4.51961 14.5033 4.51961 15.4938C4.51961 16.4842 3.7167 17.2871 2.72627 17.2871C1.73583 17.2871 0.93293 16.4842 0.93293 15.4938Z" />
<path fill-rule="evenodd" clip-rule="evenodd" d="M5.99159 14.8433C5.63234 14.8433 5.34111 15.1345 5.34111 15.4938C5.34111 15.853 5.63234 16.1442 5.99159 16.1442C6.35085 16.1442 6.64208 15.853 6.64208 15.4938C6.64208 15.1345 6.35085 14.8433 5.99159 14.8433ZM4.19826 15.4938C4.19826 14.5033 5.00116 13.7004 5.99159 13.7004C6.98203 13.7004 7.78493 14.5033 7.78493 15.4938C7.78493 16.4842 6.98203 17.2871 5.99159 17.2871C5.00116 17.2871 4.19826 16.4842 4.19826 15.4938Z" />
</svg>
