<svg viewBox="0 0 24 24"  xmlns="http://www.w3.org/2000/svg">
<path fill-rule="evenodd" clip-rule="evenodd" d="M14.25 2.5H5.5V20.5H18.5V6.75H16C15.0335 6.75 14.25 5.9665 14.25 5V2.5ZM20 6V6.75V21C20 21.5523 19.5523 22 19 22H5C4.44772 22 4 21.5523 4 21V2C4 1.44772 4.44772 1 5 1H14.25H15L15.75 1.75L19.25 5.25L20 6ZM17.1287 5.25L15.75 3.87132V5C15.75 5.13807 15.8619 5.25 16 5.25H17.1287ZM12 7C12.5523 7 13 7.44772 13 8V12C13 12.5523 12.5523 13 12 13C11.4477 13 11 12.5523 11 12V8C11 7.44772 11.4477 7 12 7ZM12 16C12.5523 16 13 15.5523 13 15C13 14.4477 12.5523 14 12 14C11.4477 14 11 14.4477 11 15C11 15.5523 11.4477 16 12 16Z" />
</svg>
