<svg   viewBox="0 0 24 24" fill="none" xmlns="http://www.w3.org/2000/svg">
<path d="M3 7C3 6.58579 3.33579 6.25 3.75 6.25H20.25C20.6642 6.25 21 6.58579 21 7C21 7.41421 20.6642 7.75 20.25 7.75H3.75C3.33579 7.75 3 7.41421 3 7Z" />
<path d="M3 12C3 11.5858 3.33579 11.25 3.75 11.25H20.25C20.6642 11.25 21 11.5858 21 12C21 12.4142 20.6642 12.75 20.25 12.75H3.75C3.33579 12.75 3 12.4142 3 12Z" />
<path d="M3.75 16.25C3.33579 16.25 3 16.5858 3 17C3 17.4142 3.33579 17.75 3.75 17.75H20.25C20.6642 17.75 21 17.4142 21 17C21 16.5858 20.6642 16.25 20.25 16.25H3.75Z" />
</svg>
