<svg   viewBox="0 0 24 24" fill="none" xmlns="http://www.w3.org/2000/svg">
<path fill-rule="evenodd" clip-rule="evenodd" d="M18.5041 9.36883C17.2037 6.1048 13.6777 4.34311 10.2568 5.22029C9.02629 5.53688 7.90511 6.18244 7.01353 7.08776C6.12187 7.99316 5.49349 9.1242 5.19579 10.3596C4.89808 11.595 4.94228 12.8881 5.32364 14.1003C5.705 15.3124 6.40914 16.3979 7.36053 17.2403C8.31193 18.0828 9.4747 18.6503 10.7241 18.8821C11.9736 19.1139 13.2625 19.0012 14.4528 18.5561C15.643 18.111 16.6897 17.3503 17.4804 16.3556C18.2712 15.3609 18.7763 14.1697 18.9416 12.9097C19.0134 12.3621 19.5155 11.9764 20.0631 12.0482C20.6107 12.12 20.9964 12.6222 20.9246 13.1698C20.7121 14.7897 20.0627 16.3213 19.046 17.6002C18.0293 18.8791 16.6836 19.8572 15.1533 20.4294C13.623 21.0017 11.9657 21.1465 10.3593 20.8485C8.7529 20.5505 7.25792 19.8208 6.03469 18.7377C4.81147 17.6546 3.90615 16.259 3.41583 14.7005C2.92551 13.142 2.86868 11.4794 3.25145 9.89104C3.63421 8.30268 4.44212 6.84849 5.58854 5.6844C6.73496 4.52032 8.17663 3.69026 9.75895 3.28325L9.75963 3.28308C14.1367 2.16046 18.6825 4.41277 20.3621 8.62862C20.5665 9.14169 20.3162 9.72331 19.8032 9.92772C19.2901 10.1321 18.7085 9.8819 18.5041 9.36883Z" />
<path fill-rule="evenodd" clip-rule="evenodd" d="M20 3C20.5523 3 21 3.44772 21 4V9C21 9.55228 20.5523 10 20 10H15C14.4477 10 14 9.55228 14 9C14 8.44772 14.4477 8 15 8H19V4C19 3.44772 19.4477 3 20 3Z" />
</svg>
