<svg   viewBox="0 0 24 24" fill="none" xmlns="http://www.w3.org/2000/svg">
<path d="M8.75 19.25C8.75 18.8358 8.41421 18.5 8 18.5H6.25C5.55965 18.5 5 17.9404 5 17.25V6.75C5 6.05964 5.55965 5.5 6.25 5.5L8 5.5C8.41421 5.5 8.75 5.16421 8.75 4.75C8.75 4.33579 8.41421 4 8 4H6.25C4.73122 4 3.5 5.23122 3.5 6.75L3.5 17.25C3.5 18.7688 4.73122 20 6.25 20H8C8.41421 20 8.75 19.6642 8.75 19.25Z" />
<path d="M20.3037 12.7069C20.6943 12.3164 20.6943 11.6832 20.3038 11.2927L17.0109 7.99981C16.718 7.70692 16.2431 7.70692 15.9502 7.99981C15.6573 8.2927 15.6573 8.76758 15.9502 9.06047L18.1395 11.2498H9.2002C8.78598 11.2498 8.4502 11.5856 8.4502 11.9998C8.4502 12.414 8.78598 12.7498 9.2002 12.7498H18.1395L15.9502 14.9392C15.6573 15.232 15.6573 15.7069 15.9502 15.9998C16.2431 16.2927 16.718 16.2927 17.0109 15.9998L20.3037 12.7069Z" />
</svg>
