<svg   viewBox="0 0 24 24" fill="none" xmlns="http://www.w3.org/2000/svg">
<path d="M12 12C13.1046 12 14 11.1046 14 10C14 8.89543 13.1046 8 12 8C10.8954 8 10 8.89543 10 10C10 11.1046 10.8954 12 12 12Z" />
<path fill-rule="evenodd" clip-rule="evenodd" d="M12 2C7.58 2 4 5.49003 4 9.79131C4 10.3315 4.05143 10.8387 4.14391 11.3135C4.36307 12.4386 4.95832 13.6564 5.67971 14.8178C6.40754 15.9897 7.29579 17.1544 8.14962 18.1809C9.00481 19.2091 9.83397 20.1087 10.4489 20.7511C10.7567 21.0725 11.0114 21.3303 11.1899 21.5082C11.2792 21.5972 11.3494 21.6663 11.3976 21.7135L11.4529 21.7673L11.4678 21.7817L11.4735 21.7872C11.7688 22.0709 12.2312 22.0709 12.5265 21.7872L12.5318 21.7821L12.5465 21.7679L12.6021 21.7138C12.6504 21.6666 12.7208 21.5972 12.8101 21.5082C12.9886 21.3303 13.2434 21.0725 13.5511 20.7511C14.166 20.1087 14.9952 19.2091 15.8504 18.1809C16.7042 17.1544 17.5925 15.9897 18.3203 14.8178C19.0417 13.6564 19.6369 12.4386 19.8561 11.3135C19.9486 10.8387 20 10.3315 20 9.79131C20 5.49003 16.42 2 12 2ZM5.49704 9.79131C5.49704 6.28998 8.41022 3.45471 12 3.45471C15.5898 3.45471 18.503 6.28998 18.503 9.79131C18.503 10.2413 18.4602 10.6579 18.3852 11.043C18.2149 11.9171 17.7254 12.9605 17.0386 14.0662C16.3583 15.1615 15.5151 16.2699 14.6861 17.2665C13.8585 18.2615 13.0535 19.1351 12.455 19.7603C12.3151 19.9065 12.1865 20.0389 12.0718 20.156L12 20.2293L11.9282 20.156C11.8135 20.0389 11.6849 19.9065 11.545 19.7603C10.9465 19.1351 10.1415 18.2615 9.3139 17.2665C8.48492 16.2699 7.6417 15.1615 6.9614 14.0662C6.27464 12.9605 5.7851 11.9171 5.61483 11.043C5.53982 10.6579 5.49704 10.2413 5.49704 9.79131Z" />
</svg>
