<svg   viewBox="0 0 24 24" fill="none" xmlns="http://www.w3.org/2000/svg">
<path fill-rule="evenodd" clip-rule="evenodd" d="M12.0007 2.89996C9.68612 2.89996 7.80979 4.7763 7.80979 7.09088C7.80979 9.40545 9.68612 11.2818 12.0007 11.2818C14.3153 11.2818 16.1916 9.40545 16.1916 7.09088C16.1916 4.7763 14.3153 2.89996 12.0007 2.89996ZM9.35979 7.09088C9.35979 5.63234 10.5422 4.44996 12.0007 4.44996C13.4592 4.44996 14.6416 5.63234 14.6416 7.09088C14.6416 8.54941 13.4592 9.73179 12.0007 9.73179C10.5422 9.73179 9.35979 8.54941 9.35979 7.09088Z" />
<path d="M12.0006 12.8613C7.73578 12.8613 4.23722 16.1416 3.89022 20.3169C3.85405 20.7522 4.21127 21.1 4.63696 21.1C5.06724 21.1 5.4034 20.7517 5.445 20.3359C5.7779 17.009 8.58596 14.4113 12.0006 14.4113C15.4152 14.4113 18.2233 17.009 18.5562 20.3359C18.5978 20.7517 18.934 21.1 19.3642 21.1C19.7899 21.1 20.1472 20.7522 20.111 20.3169C19.764 16.1416 16.2654 12.8613 12.0006 12.8613Z" />
</svg>
