<svg viewBox="0 0 24 24" fill="none" xmlns="http://www.w3.org/2000/svg">
<path fill-rule="evenodd" clip-rule="evenodd" d="M17.4522 3.18277C17.0752 2.80578 16.464 2.80578 16.087 3.18277L2.18314 17.0866C2.0021 17.2677 1.90039 17.5132 1.90039 17.7692V21.1347C1.90039 21.6678 2.33259 22.1 2.86574 22.1H6.23117C6.4872 22.1 6.73274 21.9983 6.91378 21.8173L20.8176 7.91341C21.1946 7.53642 21.1946 6.92519 20.8176 6.5482L17.4522 3.18277ZM16.8183 9.79422L14.2062 7.18211L16.7696 4.61869L19.3817 7.23081L16.8183 9.79422ZM3.39842 20.602V17.9899L13.1469 8.24138L15.759 10.8535L6.01053 20.602H3.39842Z" />
</svg>
