<svg   viewBox="0 0 24 24" fill="none" xmlns="http://www.w3.org/2000/svg">
<path fill-rule="evenodd" clip-rule="evenodd" d="M11.6758 16.1235V17H12.3164V16.1232C12.8034 16.0935 13.2279 15.9952 13.5898 15.8281C14.0326 15.625 14.3698 15.3477 14.6016 14.9961C14.8359 14.6445 14.9531 14.2422 14.9531 13.7891C14.9531 13.4297 14.8815 13.1211 14.7383 12.8633C14.5977 12.6055 14.4128 12.3893 14.1836 12.2148C13.9544 12.0404 13.7057 11.8997 13.4375 11.793C13.1693 11.6862 12.9076 11.6016 12.6523 11.5391L12.3164 11.4517V8.94872C12.6463 8.98419 12.9289 9.08201 13.1641 9.24219C13.4661 9.44531 13.638 9.73177 13.6797 10.1016H14.8438C14.8333 9.67188 14.7083 9.29167 14.4688 8.96094C14.2292 8.6276 13.901 8.36589 13.4844 8.17578C13.1394 8.01737 12.75 7.92496 12.3164 7.89855V7H11.6758V7.90711C11.2873 7.94214 10.9306 8.033 10.6055 8.17969C10.1784 8.36979 9.83984 8.63672 9.58984 8.98047C9.33984 9.32422 9.21484 9.72656 9.21484 10.1875C9.21484 10.7448 9.40104 11.1927 9.77344 11.5312C10.1484 11.8698 10.6562 12.1263 11.2969 12.3008L11.6758 12.4041V15.0583C11.4828 15.0378 11.3005 14.9975 11.1289 14.9375C10.8711 14.8438 10.6589 14.7018 10.4922 14.5117C10.3281 14.319 10.2344 14.0781 10.2109 13.7891H9C9.02604 14.2708 9.16276 14.6875 9.41016 15.0391C9.65755 15.388 10 15.6576 10.4375 15.8477C10.796 16.0035 11.2088 16.0954 11.6758 16.1235ZM12.3164 15.056C12.5257 15.0322 12.7184 14.9849 12.8945 14.9141C13.1628 14.8047 13.3737 14.6536 13.5273 14.4609C13.681 14.2656 13.7578 14.0378 13.7578 13.7773C13.7578 13.5404 13.6901 13.3464 13.5547 13.1953C13.4219 13.0443 13.2409 12.9193 13.0117 12.8203C12.8049 12.73 12.5731 12.6494 12.3164 12.5786V15.056ZM11.6758 11.2827V8.9552C11.4903 8.97953 11.3224 9.02441 11.1719 9.08984C10.9323 9.19141 10.7461 9.33203 10.6133 9.51172C10.4831 9.6888 10.418 9.89062 10.418 10.1172C10.418 10.3073 10.4622 10.4714 10.5508 10.6094C10.6419 10.7474 10.7604 10.8633 10.9062 10.957C11.0547 11.0482 11.2135 11.125 11.3828 11.1875C11.4827 11.2229 11.5804 11.2546 11.6758 11.2827Z" />
<path fill-rule="evenodd" clip-rule="evenodd" d="M22 12C22 17.5228 17.5228 22 12 22C6.47715 22 2 17.5228 2 12C2 6.47715 6.47715 2 12 2C17.5228 2 22 6.47715 22 12ZM20.5 12C20.5 16.6944 16.6944 20.5 12 20.5C7.30558 20.5 3.5 16.6944 3.5 12C3.5 7.30558 7.30558 3.5 12 3.5C16.6944 3.5 20.5 7.30558 20.5 12Z" />
</svg>
