<svg  viewBox="0 0 24 24" xmlns="http://www.w3.org/2000/svg">
<path d="M4.5 19.5V17.8333C4.5 16.9493 4.85119 16.1014 5.47631 15.4763C6.10143 14.8512 6.94928 14.5 7.83333 14.5H11.1667C12.0507 14.5 12.8986 14.8512 13.5237 15.4763C14.1488 16.1014 14.5 16.9493 14.5 17.8333V19.5M15.3333 4.60833C16.0503 4.79192 16.6859 5.20892 17.1397 5.79359C17.5935 6.37827 17.8399 7.09736 17.8399 7.8375C17.8399 8.57764 17.5935 9.29673 17.1397 9.88141C16.6859 10.4661 16.0503 10.8831 15.3333 11.0667M19.5 19.5V17.8333C19.4958 17.0976 19.2483 16.384 18.7961 15.8037C18.3439 15.2233 17.7124 14.8089 17 14.625M6.16667 7.83333C6.16667 8.71739 6.51786 9.56523 7.14298 10.1904C7.7681 10.8155 8.61594 11.1667 9.5 11.1667C10.3841 11.1667 11.2319 10.8155 11.857 10.1904C12.4821 9.56523 12.8333 8.71739 12.8333 7.83333C12.8333 6.94928 12.4821 6.10143 11.857 5.47631C11.2319 4.85119 10.3841 4.5 9.5 4.5C8.61594 4.5 7.7681 4.85119 7.14298 5.47631C6.51786 6.10143 6.16667 6.94928 6.16667 7.83333Z" />
</svg>
