<svg   viewBox="0 0 32 32" fill="none" xmlns="http://www.w3.org/2000/svg">
<g clip-path="url(#clip0_503_5654)">
<path fill-rule="evenodd" clip-rule="evenodd" d="M16 0C7.16344 0 0 7.16344 0 16C0 24.8366 7.16344 32 16 32C24.8366 32 32 24.8366 32 16C32 7.16344 24.8366 0 16 0ZM15.25 22.25V16.75H9.75C9.33579 16.75 9 16.4142 9 16C9 15.5858 9.33579 15.25 9.75 15.25H15.25V9.75C15.25 9.33579 15.5858 9 16 9C16.4142 9 16.75 9.33579 16.75 9.75V15.25H22.25C22.6642 15.25 23 15.5858 23 16C23 16.4142 22.6642 16.75 22.25 16.75H16.75V22.25C16.75 22.6642 16.4142 23 16 23C15.5858 23 15.25 22.6642 15.25 22.25Z" />
</g>
<defs>
<clipPath id="clip0_503_5654">
<rect width="32" height="32" />
</clipPath>
</defs>
</svg>
