<svg   viewBox="0 0 32 32" fill="none" xmlns="http://www.w3.org/2000/svg">
<path d="M26.1167 14.6217C26.1167 14.6217 26.5389 16.6975 26.6333 17.1328H24.7778C24.9611 16.6362 25.6667 14.7054 25.6667 14.7054C25.6556 14.7221 25.85 14.1975 25.9611 13.8739L26.1167 14.6217ZM32 6.17857V25.8214C32 27.3002 30.8056 28.5 29.3333 28.5H2.66667C1.19444 28.5 0 27.3002 0 25.8214V6.17857C0 4.69978 1.19444 3.5 2.66667 3.5H29.3333C30.8056 3.5 32 4.69978 32 6.17857ZM8.47222 20.1964L11.9833 11.5357H9.62222L7.43889 17.4509L7.2 16.2511L6.42222 12.2667C6.29444 11.7143 5.9 11.558 5.41111 11.5357H1.81667L1.77778 11.7087C2.65556 11.9319 3.43889 12.2556 4.12222 12.6629L6.11111 20.1964H8.47222ZM13.7167 20.2076L15.1167 11.5357H12.8833L11.4889 20.2076H13.7167ZM21.4889 17.3728C21.5 16.385 20.9 15.6317 19.6167 15.0123C18.8333 14.6161 18.3556 14.3482 18.3556 13.9408C18.3667 13.5725 18.7611 13.1931 19.6389 13.1931C20.3667 13.1763 20.9 13.3493 21.3 13.5223L21.5 13.6172L21.8056 11.7422C21.3667 11.5692 20.6667 11.3739 19.8056 11.3739C17.6 11.3739 16.05 12.5569 16.0389 14.2422C16.0222 15.4866 17.15 16.1786 17.9944 16.5971C18.8556 17.0212 19.15 17.3002 19.15 17.6741C19.1389 18.2545 18.45 18.5223 17.8111 18.5223C16.9222 18.5223 16.4444 18.3828 15.7167 18.0592L15.4222 17.9196L15.1111 19.8672C15.6333 20.1071 16.6 20.3192 17.6 20.3304C19.9444 20.3359 21.4722 19.1696 21.4889 17.3728ZM29.3333 20.2076L27.5333 11.5357H25.8056C25.2722 11.5357 24.8667 11.692 24.6389 12.2556L21.3222 20.2076H23.6667C23.6667 20.2076 24.05 19.1362 24.1333 18.9074H27C27.0667 19.2143 27.2667 20.2076 27.2667 20.2076H29.3333Z" />
</svg>
