<svg   viewBox="0 0 32 32" fill="none" xmlns="http://www.w3.org/2000/svg">
<g clip-path="url(#clip0_452_5590)">
<path d="M29.8667 28.4983H2.13333C1.56754 28.4983 1.02492 28.277 0.624839 27.8832C0.224761 27.4893 0 26.9552 0 26.3983V15.5643H1.53689L1.88356 14.7383H2.65956L3.00533 15.5608H6.02933V14.9351L6.29956 15.5651H7.86933L8.13955 14.9246V15.5634H15.6533V14.2124H15.7956C15.8969 14.2159 15.9262 14.2246 15.9262 14.3909V15.5651H19.8133V15.251C20.2107 15.4496 20.6791 15.566 21.176 15.566L21.2604 15.5651H21.256H22.8916L23.2418 14.7426H24.0178L24.36 15.5651H27.512V14.7829L27.9884 15.5651H30.5093V10.3991H28.0142V11.009L27.6649 10.3991H25.0996V11.009L24.7787 10.3991H21.3147C20.7898 10.373 20.2669 10.4793 19.7956 10.708L19.8142 10.7001V10.3991H17.4249V10.7001C17.1357 10.4757 16.7704 10.3684 16.4036 10.4H16.4089H7.67733L7.09156 11.7344L6.48978 10.4H3.73956V11.0099L3.43644 10.4H1.08978L0.00266667 12.85V5.6C0.00266667 5.04305 0.227428 4.5089 0.627506 4.11508C1.02758 3.72125 1.5702 3.5 2.136 3.5H29.8693C30.4351 3.5 30.9778 3.72125 31.3778 4.11508C31.7779 4.5089 32.0027 5.04305 32.0027 5.6V16.77H30.3378C30.3111 16.7683 30.2791 16.7683 30.248 16.7683C29.8622 16.7683 29.504 16.882 29.2053 17.0771L29.2124 17.0728V16.77H26.7502C26.3656 16.7491 25.985 16.8567 25.6702 17.0754L25.6756 17.0719V16.7691H21.2791V17.0719C20.9192 16.8721 20.5127 16.7678 20.0996 16.7691H20.0649H20.0667H17.1662V17.0719C16.7873 16.8329 16.3376 16.7266 15.8898 16.77L15.8978 16.7691H12.6524L11.9093 17.5601L11.2142 16.7691H6.36622V21.9386H11.1236L11.8889 21.1354L12.6098 21.9386H15.5422V20.7285H15.9511C16.3443 20.7436 16.7364 20.679 17.1031 20.5386L17.0836 20.5456V21.9404H19.5013V20.5938H19.6178C19.7653 20.5938 19.7804 20.599 19.7804 20.746V21.9412H27.128L27.2178 21.943C27.6391 21.943 28.032 21.8188 28.3591 21.6061L28.3511 21.6105V21.9412H30.6818L30.7929 21.943C31.2293 21.943 31.6444 21.8546 32.0213 21.6945L32.0009 21.7024V26.3991C32.0009 26.9561 31.7761 27.4902 31.3761 27.884C30.976 28.2779 30.4334 28.4991 29.8676 28.4991L29.8667 28.4983ZM18.76 21.2141H17.8551V17.5085H19.9316C20.3066 17.4743 20.6842 17.5364 21.0276 17.6888L21.0133 17.6835C21.2916 17.834 21.4773 18.121 21.4773 18.45L21.4756 18.5086V18.506L21.4764 18.5393C21.4764 18.9645 21.216 19.3303 20.8427 19.4895L20.8356 19.4921C21.0142 19.5551 21.1636 19.6628 21.2747 19.8019L21.2764 19.8036C21.4019 20.0081 21.4545 20.248 21.4258 20.4853L21.4267 20.48V21.2132H20.5236V20.7495C20.5663 20.497 20.5149 20.2378 20.3787 20.0198L20.3813 20.0241C20.2875 19.954 20.1802 19.9034 20.0659 19.8752C19.9516 19.8471 19.8328 19.8421 19.7164 19.8605L19.7218 19.8596H18.76V21.2141ZM18.76 18.2741V19.1063H19.8533C20.0077 19.1203 20.1631 19.0931 20.3031 19.0275L20.2978 19.0301C20.355 18.9938 20.402 18.9439 20.4346 18.8851C20.4672 18.8262 20.4844 18.7603 20.4844 18.6933L20.4836 18.6731C20.488 18.6062 20.473 18.5404 20.4404 18.4815C20.4079 18.4227 20.359 18.3741 20.2996 18.3415L20.2978 18.3406C20.1629 18.2812 20.0147 18.2571 19.8676 18.2706H19.8711L18.76 18.2741ZM10.7378 21.2132H7.176V17.5085H10.7938L11.9004 18.723L13.0444 17.5085H15.9182C16.9387 17.5085 17.4347 17.9084 17.4347 18.7291C17.4347 19.5648 16.9218 19.9708 15.8702 19.9708H14.7458V21.2124H12.9973L11.8898 19.9883L10.7378 21.2132ZM13.8498 17.9058L12.4684 19.367L13.8498 20.8755V17.9058ZM8.07289 19.7039V20.4406H10.2844L11.3067 19.3539L10.3236 18.2741H8.072V18.9479H10.0471V19.703L8.07289 19.7039ZM14.7458 18.275V19.2183H15.9076C16.2631 19.2183 16.4676 19.0398 16.4676 18.7283C16.4676 18.4308 16.2773 18.2741 15.9173 18.2741L14.7458 18.275ZM30.7796 21.215H29.0427V20.4188H30.7724C30.9019 20.4363 31.0331 20.403 31.1378 20.326L31.1369 20.3269C31.1703 20.2964 31.1969 20.2594 31.2151 20.2183C31.2333 20.1772 31.2427 20.1328 31.2427 20.088V20.074C31.2427 20.0297 31.233 19.9859 31.2141 19.9457C31.1952 19.9055 31.1677 19.8699 31.1333 19.8413C31.0414 19.7758 30.9279 19.7465 30.8151 19.759H30.8169L30.6507 19.7537C29.8382 19.7327 28.9182 19.7083 28.9182 18.6119C28.9182 18.0781 29.2578 17.5085 30.208 17.5085H32.0009V18.2978H30.3609C30.2342 18.2838 30.1063 18.3089 29.9947 18.3695L29.9982 18.3678C29.9543 18.3962 29.919 18.4357 29.8961 18.4822C29.8731 18.5287 29.8632 18.5805 29.8676 18.632V18.6408C29.8676 18.6997 29.8865 18.7572 29.9216 18.8049C29.9567 18.8527 30.0062 18.8883 30.0631 18.9068L30.0649 18.9076C30.1776 18.9418 30.2956 18.9561 30.4133 18.9496H30.4107L30.8987 18.9619C31.2665 18.9257 31.634 19.0335 31.9218 19.262L31.9191 19.2603C31.9458 19.2813 31.9689 19.304 31.9893 19.3294L31.9902 19.3303L32.0009 20.7407C31.8514 20.9127 31.6612 21.0458 31.4472 21.1284C31.2331 21.2109 31.0017 21.2404 30.7733 21.2141L30.7796 21.215ZM27.2693 21.215H25.5164V20.4188H27.2604C27.3909 20.4356 27.523 20.4024 27.6293 20.326L27.6276 20.3269C27.6607 20.2963 27.6872 20.2593 27.7052 20.2182C27.7233 20.1771 27.7325 20.1328 27.7324 20.088V20.0793C27.7324 20.0342 27.7226 19.9897 27.7038 19.9487C27.6849 19.9076 27.6574 19.871 27.6231 19.8413C27.5295 19.7757 27.4146 19.7465 27.3004 19.759H27.3022L27.1369 19.7537C26.3271 19.7327 25.408 19.7083 25.408 18.6119C25.408 18.0781 25.7458 17.5085 26.6942 17.5085H28.4969V18.2978H26.8471C26.7213 18.2839 26.5942 18.309 26.4836 18.3695L26.4871 18.3678C26.4404 18.3994 26.4033 18.4428 26.3796 18.4935C26.3559 18.5442 26.3466 18.6003 26.3526 18.6558C26.3586 18.7112 26.3797 18.7641 26.4137 18.8087C26.4477 18.8534 26.4934 18.8881 26.5458 18.9094L26.5476 18.9103C26.6617 18.9447 26.7812 18.9589 26.9004 18.9523H26.8978L27.3822 18.9645C27.752 18.9294 28.1212 19.0374 28.4116 19.2655L28.4089 19.2629C28.5066 19.3689 28.5809 19.4937 28.6271 19.6294C28.6733 19.7651 28.6904 19.9087 28.6773 20.0513V20.0469C28.68 20.8195 28.2044 21.2132 27.2667 21.2132L27.2693 21.215ZM24.9778 21.215H21.9733V17.5076H24.9751V18.2733H22.8711V18.947H24.9262V19.7021H22.8711V20.4389L24.9778 20.4424V21.2124V21.215ZM26.7289 14.8398H24.8969L24.5467 14.0138H22.6782L22.3387 14.8398H21.2862C20.8136 14.8643 20.3482 14.7177 19.9778 14.4276L19.9822 14.4303C19.8063 14.2391 19.6727 14.0139 19.5901 13.7691C19.5074 13.5243 19.4775 13.2652 19.5022 13.0084L19.5013 13.0154C19.4784 12.7538 19.5098 12.4904 19.5936 12.2412C19.6773 11.9919 19.8116 11.762 19.9884 11.5655L19.9867 11.5673C20.1733 11.4066 20.3916 11.2855 20.6278 11.2114C20.8641 11.1373 21.1133 11.1119 21.36 11.1368L21.3529 11.1359H22.224V11.926H21.3707C21.2458 11.9102 21.1189 11.9216 20.9991 11.9596C20.8792 11.9976 20.7694 12.0611 20.6773 12.1456L20.6782 12.1448C20.4882 12.3843 20.3959 12.6852 20.4196 12.9883V12.9839C20.3912 13.2953 20.4801 13.606 20.6693 13.8571L20.6667 13.8536C20.8434 13.9958 21.0696 14.0642 21.2969 14.0444H21.2933H21.6969L22.9689 11.1306H24.32L25.8427 14.6306V11.1306H27.2124L28.7929 13.7101V11.1306H29.7173V14.8336H28.4338L26.7271 12.0529V14.8336L26.7289 14.8398ZM23.6187 11.7615L22.9991 13.2385H24.2409L23.6187 11.7615ZM14.9084 14.838H14.0089V11.1333H16.0782C16.456 11.0947 16.8373 11.1579 17.1813 11.3161L17.168 11.3109C17.3063 11.3862 17.4217 11.4966 17.502 11.6306C17.5824 11.7646 17.6248 11.9174 17.6249 12.073L17.6231 12.1343V12.1316V12.1588C17.6232 12.3608 17.564 12.5586 17.4527 12.7284C17.3414 12.8982 17.1826 13.0328 16.9956 13.116L16.9884 13.1186C17.1671 13.1851 17.3173 13.2919 17.432 13.4284L17.4338 13.4301C17.5606 13.6354 17.6129 13.8769 17.5822 14.1153L17.5831 14.11V14.8371H16.6756L16.672 14.3699V14.2999C16.7043 14.0714 16.6529 13.8391 16.5271 13.6445L16.5298 13.6489C16.4356 13.5808 16.3287 13.5317 16.2152 13.5046C16.1017 13.4774 15.9838 13.4726 15.8684 13.4905L15.8738 13.4896H14.9093V14.8371L14.9084 14.838ZM14.9084 11.9041V12.7266H16C16.1542 12.7431 16.31 12.7158 16.4489 12.6479L16.4444 12.6496C16.5014 12.6156 16.5485 12.5676 16.5812 12.5105C16.6138 12.4533 16.631 12.3888 16.6311 12.3233L16.6302 12.2987C16.6347 12.2323 16.6194 12.1668 16.5861 12.1088C16.5527 12.0508 16.5029 12.0037 16.4427 11.9733L16.4409 11.9724C16.3056 11.9152 16.1583 11.8912 16.0116 11.9024H16.0142L14.9084 11.9041ZM5.38311 14.838H3.55556L3.20978 14.012H1.336L0.987556 14.838H0.00977778L1.62133 11.1333H2.95733L4.48711 14.6394V11.1333H5.95467L7.13156 13.6454L8.21333 11.1333H9.71111V14.8363H8.78667L8.78489 11.9383L7.48089 14.8371H6.69156L5.384 11.9339V14.8371L5.38311 14.838ZM2.26844 11.7615L1.656 13.2385H2.88444L2.26844 11.7615ZM19.0578 14.8371H18.1404V11.1333H19.0587V14.8363L19.0578 14.8371ZM13.3813 14.8371H10.3822V11.1333H13.3867V11.9033H11.2818V12.5709H13.336V13.3313H11.28V14.0715H13.3849V14.8363L13.3813 14.8371Z" />
</g>
<defs>
<clipPath id="clip0_452_5590">
<rect width="32" height="32" />
</clipPath>
</defs>
</svg>
