<svg   viewBox="0 0 32 32" fill="none" xmlns="http://www.w3.org/2000/svg">
<path fill-rule="evenodd" clip-rule="evenodd" d="M2 10.5268C1.86193 10.5268 1.75 10.6387 1.75 10.7768V19.9841C1.75 20.1222 1.86193 20.2341 2 20.2341H2.53061V21.7341H2C1.0335 21.7341 0.25 20.9506 0.25 19.9841V10.7768C0.25 9.81029 1.0335 9.02679 2 9.02679H20.7784C21.7449 9.02679 22.5284 9.8103 22.5284 10.7768V13.6186H24.125C25.418 13.6186 26.6198 14.2847 27.305 15.3811L28.2146 16.8364C28.2489 16.8913 28.3031 16.9307 28.3659 16.9464L29.4101 17.2075C30.7853 17.5513 31.75 18.7869 31.75 20.2044C31.75 21.0492 31.0651 21.7341 30.2203 21.7341H29.7755V20.2341H30.2203C30.2367 20.2341 30.25 20.2208 30.25 20.2044C30.25 19.4752 29.7537 18.8395 29.0463 18.6627L28.0021 18.4016C27.5626 18.2917 27.1827 18.0156 26.9426 17.6314L26.033 16.1761C25.6219 15.5183 24.9008 15.1186 24.125 15.1186H22.5284V20.2341H27.0204V21.7341H9.2653V20.2341H21.0284V10.7768C21.0284 10.6387 20.9165 10.5268 20.7784 10.5268H2ZM7.12244 21.7341H4.97959V20.2341H7.12244V21.7341Z" />
<path fill-rule="evenodd" clip-rule="evenodd" d="M28.318 20.7105C27.8465 20.7105 27.4643 21.0927 27.4643 21.5642C27.4643 22.0358 27.8465 22.418 28.318 22.418C28.7895 22.418 29.1718 22.0358 29.1718 21.5642C29.1718 21.0927 28.7895 20.7105 28.318 20.7105ZM25.9643 21.5642C25.9643 20.2643 27.0181 19.2105 28.318 19.2105C29.618 19.2105 30.6718 20.2643 30.6718 21.5642C30.6718 22.8642 29.618 23.918 28.318 23.918C27.0181 23.918 25.9643 22.8642 25.9643 21.5642Z" />
<path fill-rule="evenodd" clip-rule="evenodd" d="M3.82823 20.7105C3.35671 20.7105 2.97447 21.0927 2.97447 21.5642C2.97447 22.0358 3.35671 22.418 3.82823 22.418C4.29974 22.418 4.68198 22.0358 4.68198 21.5642C4.68198 21.0927 4.29974 20.7105 3.82823 20.7105ZM1.47447 21.5642C1.47447 20.2643 2.52828 19.2105 3.82823 19.2105C5.12817 19.2105 6.18198 20.2643 6.18198 21.5642C6.18198 22.8642 5.12817 23.918 3.82823 23.918C2.52828 23.918 1.47447 22.8642 1.47447 21.5642Z" />
<path fill-rule="evenodd" clip-rule="evenodd" d="M8.11397 20.7105C7.64245 20.7105 7.26021 21.0927 7.26021 21.5642C7.26021 22.0358 7.64245 22.418 8.11397 22.418C8.58549 22.418 8.96773 22.0358 8.96773 21.5642C8.96773 21.0927 8.58549 20.7105 8.11397 20.7105ZM5.76021 21.5642C5.76021 20.2643 6.81402 19.2105 8.11397 19.2105C9.41391 19.2105 10.4677 20.2643 10.4677 21.5642C10.4677 22.8642 9.41391 23.918 8.11397 23.918C6.81402 23.918 5.76021 22.8642 5.76021 21.5642Z" />
</svg>
