<svg   viewBox="0 0 32 32" fill="none" xmlns="http://www.w3.org/2000/svg">
<path fill-rule="evenodd" clip-rule="evenodd" d="M23 4.5H9C8.17157 4.5 7.5 5.17157 7.5 6V26C7.5 26.8284 8.17157 27.5 9 27.5H23C23.8284 27.5 24.5 26.8284 24.5 26V6C24.5 5.17157 23.8284 4.5 23 4.5ZM9 3C7.34315 3 6 4.34315 6 6V26C6 27.6569 7.34315 29 9 29H23C24.6569 29 26 27.6569 26 26V6C26 4.34315 24.6569 3 23 3H9Z" />
<path fill-rule="evenodd" clip-rule="evenodd" d="M16 22C19.3137 22 22 19.3137 22 16C22 12.6863 19.3137 10 16 10C12.6863 10 10 12.6863 10 16C10 19.3137 12.6863 22 16 22ZM19.6329 14.5303C19.9258 14.2374 19.9258 13.7626 19.6329 13.4697C19.34 13.1768 18.8651 13.1768 18.5722 13.4697L14.7436 17.2983L13.5303 16.0851C13.2374 15.7922 12.7626 15.7922 12.4697 16.0851C12.1768 16.3779 12.1768 16.8528 12.4697 17.1457L13.8597 18.5358C14.3479 19.0239 15.1393 19.0239 15.6275 18.5358L19.6329 14.5303Z" />
</svg>
