<svg   viewBox="0 0 32 32" fill="none" xmlns="http://www.w3.org/2000/svg">
<g clip-path="url(#clip0_452_5591)">
<path d="M26.829 24.461C26.829 24.839 26.574 25.111 26.207 25.111C25.829 25.111 25.585 24.822 25.585 24.461C25.585 24.1 25.829 23.811 26.207 23.811C26.574 23.811 26.829 24.1 26.829 24.461ZM9.562 23.811C9.167 23.811 8.94 24.1 8.94 24.461C8.94 24.822 9.168 25.111 9.562 25.111C9.923 25.111 10.167 24.839 10.167 24.461C10.161 24.1 9.923 23.811 9.562 23.811ZM16.09 23.795C15.79 23.795 15.606 23.989 15.562 24.278H16.623C16.573 23.961 16.379 23.795 16.09 23.795ZM22.079 23.811C21.701 23.811 21.474 24.1 21.474 24.461C21.474 24.822 21.702 25.111 22.079 25.111C22.457 25.111 22.701 24.839 22.701 24.461C22.701 24.1 22.456 23.811 22.079 23.811ZM27.962 25.261C27.962 25.278 27.979 25.289 27.979 25.322C27.979 25.339 27.962 25.35 27.962 25.383C27.945 25.4 27.945 25.411 27.934 25.427C27.917 25.444 27.906 25.455 27.873 25.455C27.856 25.472 27.845 25.472 27.812 25.472C27.795 25.472 27.784 25.472 27.751 25.455C27.734 25.455 27.723 25.438 27.707 25.427C27.69 25.41 27.679 25.399 27.679 25.383C27.662 25.355 27.662 25.339 27.662 25.322C27.662 25.294 27.662 25.278 27.679 25.261C27.679 25.233 27.696 25.217 27.707 25.2C27.724 25.183 27.735 25.183 27.751 25.172C27.779 25.155 27.795 25.155 27.812 25.155C27.84 25.155 27.856 25.155 27.873 25.172C27.901 25.188 27.917 25.188 27.934 25.2C27.951 25.212 27.945 25.233 27.962 25.261ZM27.84 25.339C27.868 25.339 27.868 25.322 27.884 25.322C27.901 25.305 27.901 25.294 27.901 25.278C27.901 25.262 27.901 25.25 27.884 25.234C27.868 25.234 27.856 25.217 27.823 25.217H27.734V25.411H27.778V25.333H27.795L27.856 25.411H27.9L27.84 25.339ZM32.001 6.167V25.833C32.0007 26.5403 31.7197 27.2185 31.2196 27.7186C30.7195 28.2187 30.0413 28.4997 29.334 28.5H2.667C1.95975 28.4997 1.28154 28.2187 0.781439 27.7186C0.281337 27.2185 0.000265037 26.5403 0 25.833V6.167C0.000265037 5.45975 0.281337 4.78154 0.781439 4.28144C1.28154 3.78134 1.95975 3.50027 2.667 3.5H29.334C30.0413 3.50027 30.7195 3.78134 31.2196 4.28144C31.7197 4.78154 32.0007 5.45975 32.001 6.167ZM3.557 13.922C3.557 18.172 7.007 21.616 11.251 21.616C12.7624 21.6117 14.2397 21.1657 15.501 20.333C11.451 17.039 11.479 10.822 15.501 7.527C14.2409 6.69163 12.7629 6.24544 11.251 6.244C7.007 6.239 3.557 9.688 3.557 13.922ZM16.001 19.967C19.918 16.911 19.901 10.956 16.001 7.884C12.101 10.956 12.084 16.917 16.001 19.967ZM8.095 24.206C8.095 23.723 7.778 23.406 7.278 23.389C7.022 23.389 6.75 23.467 6.567 23.75C6.434 23.522 6.206 23.389 5.889 23.389C5.77381 23.3872 5.65994 23.4136 5.55728 23.4659C5.45463 23.5182 5.3663 23.5948 5.3 23.689V23.445H4.845V25.484H5.3C5.3 24.434 5.161 23.806 5.8 23.806C6.367 23.806 6.256 24.373 6.256 25.484H6.695C6.695 24.467 6.556 23.806 7.195 23.806C7.762 23.806 7.65 24.362 7.65 25.484H8.106V24.206H8.095ZM10.59 23.445H10.151V23.689C10.0733 23.5921 9.97413 23.5145 9.86133 23.4625C9.74853 23.4104 9.62518 23.3852 9.501 23.389C8.929 23.389 8.49 23.845 8.49 24.461C8.49 25.083 8.929 25.533 9.501 25.533C9.79 25.533 10.001 25.427 10.151 25.233V25.489H10.59V23.445ZM12.84 24.867C12.84 24.034 11.568 24.411 11.568 24.022C11.568 23.705 12.229 23.756 12.596 23.961L12.779 23.6C12.257 23.261 11.101 23.267 11.101 24.056C11.101 24.85 12.373 24.517 12.373 24.889C12.373 25.239 11.623 25.211 11.223 24.933L11.029 25.283C11.651 25.705 12.84 25.616 12.84 24.866V24.867ZM14.807 25.383L14.685 25.005C14.474 25.121 14.007 25.249 14.007 24.777V23.855H14.735V23.444H14.007V22.822H13.551V23.444H13.129V23.85H13.551V24.778C13.551 25.756 14.512 25.578 14.807 25.383ZM15.545 24.639H17.073C17.073 23.739 16.662 23.383 16.106 23.383C15.517 23.383 15.095 23.822 15.095 24.455C15.095 25.594 16.351 25.783 16.973 25.244L16.762 24.911C16.329 25.267 15.673 25.233 15.545 24.639ZM18.829 23.445C18.574 23.334 18.185 23.345 17.985 23.689V23.445H17.529V25.484H17.985V24.334C17.985 23.689 18.513 23.773 18.696 23.867L18.829 23.445ZM19.418 24.461C19.418 23.827 20.063 23.622 20.568 23.994L20.779 23.633C20.134 23.128 18.962 23.405 18.962 24.466C18.962 25.566 20.206 25.788 20.779 25.299L20.568 24.938C20.057 25.299 19.418 25.083 19.418 24.46V24.461ZM23.123 23.445H22.667V23.689C22.206 23.078 21.006 23.423 21.006 24.461C21.006 25.528 22.25 25.833 22.667 25.233V25.489H23.123V23.445ZM24.995 23.445C24.862 23.378 24.384 23.284 24.151 23.689V23.445H23.712V25.484H24.151V24.334C24.151 23.723 24.651 23.762 24.862 23.867L24.995 23.445ZM27.234 22.617H26.795V23.689C26.339 23.084 25.134 23.406 25.134 24.461C25.134 25.539 26.384 25.827 26.795 25.233V25.489H27.234V22.617ZM27.657 18.445V18.701H27.701V18.445H27.806V18.401H27.55V18.445H27.657ZM28.023 25.322C28.023 25.294 28.023 25.261 28.007 25.233C27.99 25.216 27.979 25.189 27.963 25.172C27.947 25.155 27.919 25.144 27.902 25.128C27.874 25.128 27.841 25.111 27.813 25.111C27.796 25.111 27.769 25.128 27.735 25.128C27.7131 25.1403 27.6926 25.1551 27.674 25.172C27.646 25.188 27.63 25.216 27.63 25.233C27.613 25.261 27.613 25.294 27.613 25.322C27.613 25.339 27.613 25.366 27.63 25.4C27.63 25.417 27.647 25.444 27.674 25.461C27.6909 25.4799 27.7117 25.495 27.735 25.505C27.763 25.521 27.796 25.521 27.813 25.521C27.841 25.521 27.874 25.521 27.902 25.505C27.919 25.488 27.946 25.477 27.963 25.461C27.98 25.445 27.991 25.417 28.007 25.4C28.023 25.367 28.023 25.339 28.023 25.322ZM28.201 18.395H28.123L28.034 18.589L27.945 18.395H27.867V18.695H27.911V18.467L28 18.661H28.061L28.139 18.467V18.695H28.2L28.201 18.395ZM28.445 13.922C28.445 9.688 24.995 6.239 20.751 6.239C19.2395 6.24279 17.7621 6.68878 16.501 7.522C20.507 10.817 20.568 17.05 16.501 20.328C17.7618 21.1619 19.2394 21.608 20.751 21.611C24.995 21.617 28.445 18.172 28.445 13.922Z" />
</g>
<defs>
<clipPath id="clip0_452_5591">
<rect width="32" height="32" />
</clipPath>
</defs>
</svg>
