<svg   viewBox="0 0 32 32" fill="none" xmlns="http://www.w3.org/2000/svg">
<path fill-rule="evenodd" clip-rule="evenodd" d="M28.9996 7.33336C28.9996 9.46068 27.2751 11.1852 25.1478 11.1852C23.2771 11.1852 21.7178 9.85164 21.3689 8.08331H8.29623C6.31721 8.08331 4.71289 9.68763 4.71289 11.6666C4.71289 13.6457 6.3172 15.25 8.29622 15.25H13.0945C13.4276 13.9561 14.6021 13 16 13C17.3979 13 18.5724 13.9561 18.9055 15.25H23.7036C26.5111 15.25 28.787 17.5259 28.787 20.3333C28.787 23.1408 26.5111 25.4166 23.7036 25.4166H10.6307C10.2818 27.185 8.72254 28.5185 6.85185 28.5185C4.72453 28.5185 3 26.794 3 24.6667C3 22.5394 4.72453 20.8148 6.85185 20.8148C8.72253 20.8148 10.2817 22.1483 10.6307 23.9166H23.7036C25.6827 23.9166 27.287 22.3123 27.287 20.3333C27.287 18.3543 25.6827 16.75 23.7036 16.75H18.9055C18.5725 18.0439 17.3979 19 16 19C14.6021 19 13.4275 18.0439 13.0945 16.75H8.29622C5.48878 16.75 3.21289 14.4741 3.21289 11.6666C3.21289 8.8592 5.48878 6.58331 8.29623 6.58331H21.3689C21.7179 4.81503 23.2771 3.48151 25.1478 3.48151C27.2751 3.48151 28.9996 5.20604 28.9996 7.33336ZM27.4996 7.33336C27.4996 8.63225 26.4466 9.68521 25.1478 9.68521C23.8489 9.68521 22.7959 8.63225 22.7959 7.33336C22.7959 6.03447 23.8489 4.98151 25.1478 4.98151C26.4466 4.98151 27.4996 6.03447 27.4996 7.33336ZM6.85185 27.0185C8.15074 27.0185 9.2037 25.9656 9.2037 24.6667C9.2037 23.3678 8.15074 22.3148 6.85185 22.3148C5.55296 22.3148 4.5 23.3678 4.5 24.6667C4.5 25.9656 5.55296 27.0185 6.85185 27.0185Z" />
</svg>
