<svg   viewBox="0 0 32 32" fill="none" xmlns="http://www.w3.org/2000/svg">
<path d="M12.8955 17.485C13.0455 17.485 16.5255 17.635 18.5955 17.125H18.6105C20.9955 16.54 24.3105 14.86 25.1655 9.37C25.1655 9.37 27.0705 2.5 17.6205 2.5H9.50548C8.77048 2.5 8.14048 3.04 8.02048 3.76L4.57048 25.6C4.49548 26.05 4.85548 26.47 5.30548 26.47H10.4505L11.7105 18.49C11.8005 17.92 12.2955 17.485 12.8955 17.485Z" />
<path d="M26.4853 10.435C25.2703 16.03 21.4453 18.985 15.3553 18.985H13.1503L11.6053 28.765C11.5453 29.155 11.8453 29.5 12.2353 29.5H15.0853C15.5953 29.5 16.0453 29.125 16.1203 28.615C16.2403 28.015 16.9003 23.635 17.0353 22.885C17.1103 22.375 17.5603 22 18.0703 22H18.7303C22.9603 22 26.2753 20.275 27.2503 15.31C27.6403 13.3 27.4303 11.65 26.4853 10.435Z" />
</svg>
