<svg   viewBox="0 0 32 32" fill="none" xmlns="http://www.w3.org/2000/svg">
<path fill-rule="evenodd" clip-rule="evenodd" d="M6 10.5H3C2.17157 10.5 1.5 11.1716 1.5 12V20C1.5 20.8284 2.17157 21.5 3 21.5H6C6.82843 21.5 7.5 20.8284 7.5 20V12C7.5 11.1716 6.82843 10.5 6 10.5ZM3 9C1.34315 9 0 10.3431 0 12V20C0 21.6569 1.34315 23 3 23H6C7.65685 23 9 21.6569 9 20V12C9 10.3431 7.65685 9 6 9H3Z" />
<path fill-rule="evenodd" clip-rule="evenodd" d="M17.5 10.5H14.5C13.6716 10.5 13 11.1716 13 12V20C13 20.8284 13.6716 21.5 14.5 21.5H17.5C18.3284 21.5 19 20.8284 19 20V12C19 11.1716 18.3284 10.5 17.5 10.5ZM14.5 9C12.8431 9 11.5 10.3431 11.5 12V20C11.5 21.6569 12.8431 23 14.5 23H17.5C19.1569 23 20.5 21.6569 20.5 20V12C20.5 10.3431 19.1569 9 17.5 9H14.5Z" />
<path fill-rule="evenodd" clip-rule="evenodd" d="M29 10.5H26C25.1716 10.5 24.5 11.1716 24.5 12V20C24.5 20.8284 25.1716 21.5 26 21.5H29C29.8284 21.5 30.5 20.8284 30.5 20V12C30.5 11.1716 29.8284 10.5 29 10.5ZM26 9C24.3431 9 23 10.3431 23 12V20C23 21.6569 24.3431 23 26 23H29C30.6569 23 32 21.6569 32 20V12C32 10.3431 30.6569 9 29 9H26Z" />
</svg>
