<svg   viewBox="0 0 32 32" fill="none" xmlns="http://www.w3.org/2000/svg">
<path fill-rule="evenodd" clip-rule="evenodd" d="M9.74139 4.75C8.87702 4.75 8.08398 5.5214 8.08398 6.59114V26.1742C8.08398 26.6207 8.32908 26.9059 8.60363 27.0183C8.87018 27.1273 9.1824 27.0866 9.42741 26.7899C10.3562 25.6652 12.0245 25.6967 12.9161 26.8481L12.9826 26.934C13.3087 27.3553 13.8777 27.3553 14.2039 26.934C15.1306 25.7372 16.8707 25.7372 17.7974 26.934C18.1236 27.3553 18.6926 27.3553 19.0187 26.934L19.0852 26.8481C19.9768 25.6967 21.6451 25.6652 22.5739 26.7899C22.8189 27.0866 23.1311 27.1273 23.3977 27.0183C23.6722 26.9059 23.9173 26.6207 23.9173 26.1742V6.59114C23.9173 5.5214 23.1243 4.75 22.2599 4.75H9.74139ZM6.58398 6.59114C6.58398 4.79878 7.94661 3.25 9.74139 3.25H22.2599C24.0547 3.25 25.4173 4.79878 25.4173 6.59114V26.1742C25.4173 27.2409 24.7936 28.0678 23.9658 28.4065C23.13 28.7486 22.1063 28.5794 21.4173 27.7451C21.1037 27.3653 20.577 27.3716 20.2713 27.7664L20.2048 27.8523C19.2781 29.0492 17.538 29.0492 16.6113 27.8523C16.2852 27.4311 15.7162 27.4311 15.39 27.8523C14.4633 29.0492 12.7232 29.0492 11.7965 27.8523L11.73 27.7664C11.4243 27.3716 10.8976 27.3653 10.584 27.7451C9.89496 28.5794 8.87133 28.7486 8.03553 28.4065C7.20773 28.0678 6.58398 27.2409 6.58398 26.1742V6.59114Z" />
<path fill-rule="evenodd" clip-rule="evenodd" d="M10.0507 7.46667C10.0507 7.05245 10.3864 6.71667 10.8007 6.71667H21.2007C21.6149 6.71667 21.9507 7.05245 21.9507 7.46667C21.9507 7.88088 21.6149 8.21667 21.2007 8.21667H10.8007C10.3864 8.21667 10.0507 7.88088 10.0507 7.46667Z" />
<path fill-rule="evenodd" clip-rule="evenodd" d="M10.0507 10.0667C10.0507 9.65245 10.3864 9.31667 10.8007 9.31667H21.2007C21.6149 9.31667 21.9507 9.65245 21.9507 10.0667C21.9507 10.4809 21.6149 10.8167 21.2007 10.8167H10.8007C10.3864 10.8167 10.0507 10.4809 10.0507 10.0667Z" />
<path fill-rule="evenodd" clip-rule="evenodd" d="M10.0507 12.6667C10.0507 12.2525 10.3864 11.9167 10.8007 11.9167H21.2007C21.6149 11.9167 21.9507 12.2525 21.9507 12.6667C21.9507 13.0809 21.6149 13.4167 21.2007 13.4167H10.8007C10.3864 13.4167 10.0507 13.0809 10.0507 12.6667Z" />
</svg>
