<svg   viewBox="0 0 32 32" fill="none" xmlns="http://www.w3.org/2000/svg">
<path fill-rule="evenodd" clip-rule="evenodd" d="M20.8607 7.79889L24.711 11.6493H26.0766C27.583 11.6493 28.8042 12.8704 28.8042 14.3768V17.2512C28.8042 17.8035 28.3565 18.2512 27.8042 18.2512H25.6354C25.3099 19.4307 24.2292 20.2969 22.9461 20.2969C21.6631 20.2969 20.5824 19.4307 20.2569 18.2512H13.5473C13.2218 19.4307 12.1411 20.2969 10.8581 20.2969C9.57504 20.2969 8.49433 19.4307 8.16879 18.2512H6C5.44771 18.2512 5 17.8035 5 17.2512V14.3768C5 12.8704 6.22117 11.6493 7.72756 11.6493H8.39644L8.9278 9.15849C9.19633 7.89973 10.3083 7 11.5953 7H18.932C19.6554 7 20.3491 7.28737 20.8607 7.79889ZM10.3828 9.46889C10.5049 8.89673 11.0103 8.48776 11.5953 8.48776H18.932C19.2608 8.48776 19.5761 8.61838 19.8086 8.85089L22.607 11.6493H9.91768L10.3828 9.46889ZM27.3164 16.7634H25.6354C25.3099 15.5839 24.2292 14.7178 22.9461 14.7178C21.6631 14.7178 20.5824 15.5839 20.2569 16.7634H13.5473C13.2218 15.5839 12.1411 14.7178 10.8581 14.7178C9.57504 14.7178 8.49433 15.5839 8.16879 16.7634H6.48776V14.3768C6.48776 13.6921 7.04284 13.137 7.72756 13.137H26.0766C26.7614 13.137 27.3164 13.6921 27.3164 14.3768V16.7634ZM12.1599 17.5073C12.1599 18.2263 11.577 18.8091 10.8581 18.8091C10.1391 18.8091 9.55627 18.2263 9.55627 17.5073C9.55627 16.7884 10.1391 16.2055 10.8581 16.2055C11.577 16.2055 12.1599 16.7884 12.1599 17.5073ZM22.9461 18.8091C23.6651 18.8091 24.2479 18.2263 24.2479 17.5073C24.2479 16.7884 23.6651 16.2055 22.9461 16.2055C22.2272 16.2055 21.6443 16.7884 21.6443 17.5073C21.6443 18.2263 22.2272 18.8091 22.9461 18.8091Z" />
<path d="M1.6361 18.6025C1.41657 18.2512 0.953854 18.1444 0.602601 18.364C0.251349 18.5835 0.144569 19.0462 0.364102 19.3975L1.39535 21.0475C2.44609 22.7287 4.2888 23.75 6.27134 23.75H31.0001C31.4143 23.75 31.7501 23.4142 31.7501 23C31.7501 22.5858 31.4143 22.25 31.0001 22.25H6.27134C4.80598 22.25 3.44398 21.4951 2.66735 20.2525L1.6361 18.6025Z" />
</svg>
