<svg   viewBox="0 0 32 32" fill="none" xmlns="http://www.w3.org/2000/svg">
<path fill-rule="evenodd" clip-rule="evenodd" d="M9 3.75C8.30964 3.75 7.75 4.30964 7.75 5V27C7.75 27.6904 8.30964 28.25 9 28.25H23C23.6904 28.25 24.25 27.6904 24.25 27V11.95H18.7308C17.212 11.95 15.9808 10.7188 15.9808 9.2V3.75H9ZM17.4808 4.79995L23.1785 10.45H18.7308C18.0404 10.45 17.4808 9.89036 17.4808 9.2V4.79995ZM6.25 5C6.25 3.48122 7.48122 2.25 9 2.25H16.7308C16.9286 2.25 17.1184 2.32815 17.2589 2.46745L25.5281 10.6674C25.6701 10.8083 25.75 11 25.75 11.2V27C25.75 28.5188 24.5188 29.75 23 29.75H9C7.48122 29.75 6.25 28.5188 6.25 27V5Z" />
</svg>
