<svg   viewBox="0 0 48 48" fill="none" xmlns="http://www.w3.org/2000/svg">
<g clip-path="url(#clip0_452_7738)">
<path d="M24 5.16452e-05C21.7969 5.16452e-05 19.6719 0.281302 17.625 0.843802C15.5781 1.4063 13.6641 2.21099 11.8828 3.25786C10.1016 4.30474 8.48438 5.55474 7.03125 7.00786C5.57812 8.46099 4.32812 10.086 3.28125 11.8829C2.23438 13.6797 1.42969 15.5938 0.867188 17.6251C0.304688 19.6563 0.015625 21.7813 0 24.0001C0 26.2032 0.28125 28.3282 0.84375 30.3751C1.40625 32.4219 2.21094 34.336 3.25781 36.1172C4.30469 37.8985 5.55469 39.5157 7.00781 40.9688C8.46094 42.4219 10.0859 43.6719 11.8828 44.7188C13.6797 45.7657 15.5938 46.5704 17.625 47.1329C19.6562 47.6954 21.7812 47.9844 24 48.0001C26.6875 48.0001 29.2656 47.5704 31.7344 46.711C34.2031 45.8516 36.4609 44.6485 38.5078 43.1016C40.5547 41.5547 42.3203 39.6954 43.8047 37.5235C45.0107 35.7589 45.964 33.8602 46.6647 31.8274C46.9338 31.0464 46.463 30.2198 45.6668 29.9997C44.8715 29.7799 44.054 30.249 43.7799 31.0272C43.1756 32.7431 42.3635 34.3382 41.3438 35.8126C40.0469 37.6876 38.5 39.3126 36.7031 40.6876C34.9062 42.0626 32.9297 43.1172 30.7734 43.8516C28.6172 44.586 26.3594 44.9688 24 45.0001C22.0781 45.0001 20.2266 44.7501 18.4453 44.2501C16.6641 43.7501 14.9922 43.0469 13.4297 42.1407C11.8672 41.2344 10.4453 40.1329 9.16406 38.836C7.88281 37.5391 6.78906 36.1251 5.88281 34.5938C4.97656 33.0626 4.26562 31.3907 3.75 29.5782C3.23438 27.7657 2.98438 25.9063 3 24.0001C3 22.0782 3.25 20.2266 3.75 18.4454C4.25 16.6641 4.95312 14.9922 5.85938 13.4297C6.76562 11.8672 7.86719 10.4454 9.16406 9.16411C10.4609 7.88286 11.875 6.78911 13.4062 5.88286C14.9375 4.97661 16.6094 4.26568 18.4219 3.75005C20.2344 3.23443 22.0938 2.98443 24 3.00005C26.0156 3.00005 27.9766 3.2813 29.8828 3.8438C31.7891 4.4063 33.5625 5.21099 35.2031 6.25786C36.8438 7.30474 38.3359 8.56255 39.6797 10.0313C41.0234 11.5001 42.1172 13.1563 42.9609 15.0001H37.5C36.6716 15.0001 36 15.6716 36 16.5001C36 17.3285 36.6716 18.0001 37.5 18.0001H46.1176C47.1572 18.0001 48 17.1573 48 16.1177V7.50005C48 6.67163 47.3284 6.00005 46.5 6.00005C45.6716 6.00005 45 6.67163 45 7.50005V12.4219C43.9531 10.5001 42.6797 8.77349 41.1797 7.24224C39.6797 5.71099 38.0234 4.41411 36.2109 3.35161C34.3984 2.28911 32.4531 1.46099 30.375 0.867239C28.2969 0.273489 26.1719 -0.0155734 24 5.16452e-05Z" />
</g>
<defs>
<clipPath id="clip0_452_7738">
<rect width="48" height="48"  transform="matrix(-1 0 0 1 48 0)"/>
</clipPath>
</defs>
</svg>
