<svg width="48" height="48" viewBox="0 0 48 48" fill="none" xmlns="http://www.w3.org/2000/svg">
<path d="M44.1109 37.8718C43.9709 42.4218 40.221 45.1067 36.8273 45.0792C33.7548 45.053 29.9099 42.7168 29.6436 37.9193H19.6763C19.5038 42.4593 15.7751 45.1267 12.3389 45.078C9.39768 45.0367 5.49899 42.828 5.21399 37.9018C5.07149 37.8943 4.924 37.8818 4.77525 37.8806C4.01026 37.8806 3.24652 37.8918 2.48279 37.8806C1.5053 37.8593 0.902819 37.2556 0.946568 36.2744C1.07157 33.5094 1.6553 30.8494 2.84653 28.3382C4.00402 25.902 5.65525 23.8983 7.98896 22.4958C8.03628 22.4616 8.08136 22.4245 8.12395 22.3846C7.50556 21.8095 7.05935 21.0738 6.83523 20.2596C6.13274 17.5259 8.13895 14.9159 11.0564 14.8722C14.3764 14.8234 17.6988 14.8372 21.02 14.8722C23.1887 14.8922 24.8687 16.2884 25.3137 18.3409C25.7337 20.2758 24.7437 22.1671 22.8137 23.1421C22.6975 23.2008 22.5475 23.3458 22.5463 23.4521C22.53 25.3683 22.5337 27.2832 22.5337 29.2582C24.495 29.187 26.4699 29.572 28.2574 28.4782C30.0849 27.3532 31.0986 25.7208 31.1224 23.5858C31.1711 19.3584 31.1386 15.1322 31.1374 10.9047C31.1295 10.7976 31.1144 10.6911 31.0924 10.586C30.2424 10.586 29.4024 10.5972 28.5637 10.5797C28.2692 10.5847 27.9761 10.5386 27.6974 10.4435C27.0649 10.1935 26.7487 9.5685 26.8499 8.88976C26.8918 8.57717 27.0412 8.28891 27.2725 8.07449C27.5038 7.86008 27.8025 7.73289 28.1174 7.71478C29.1449 7.67103 30.1749 7.67603 31.2036 7.69478C31.3698 7.70798 31.5364 7.67783 31.6874 7.60728C31.8384 7.53673 31.9684 7.42819 32.0649 7.29228C33.3573 5.70731 35.0361 4.87232 37.0923 4.82607C37.4973 4.81732 37.9035 4.81482 38.3085 4.82607C39.1548 4.84357 39.7585 5.43231 39.7623 6.26855C39.7706 8.18519 39.7706 10.1018 39.7623 12.0185C39.7657 12.2025 39.7326 12.3854 39.6648 12.5565C39.5969 12.7276 39.4957 12.8836 39.3671 13.0152C39.2385 13.1469 39.0849 13.2517 38.9154 13.3235C38.7459 13.3953 38.5638 13.4326 38.3798 13.4334C37.7285 13.4534 37.0748 13.4334 36.3461 13.4334C36.4523 13.5847 36.511 13.6834 36.586 13.7697C39.836 17.5759 41.401 21.9683 41.161 26.9807C41.1447 27.3257 41.2285 27.497 41.5485 27.6507C44.7451 29.1882 46.5238 31.7253 46.8847 35.2619C46.9288 35.6333 46.9542 36.0067 46.9609 36.3806C46.9609 37.2269 46.3921 37.8331 45.5522 37.8731C45.0672 37.8943 44.5872 37.8718 44.1109 37.8718ZM3.92652 34.9819H14.3626C20.0859 34.9819 25.8091 34.979 31.5324 34.9731C31.772 34.9787 32.0062 34.901 32.1949 34.7531C33.6998 33.2807 35.1902 31.7936 36.666 30.292C37.1899 29.7666 37.6045 29.1426 37.8858 28.456C38.167 27.7694 38.3094 27.0339 38.3048 26.292C38.3385 23.2771 37.6198 20.4583 36.0361 17.8871C35.4786 16.9846 34.8086 16.1509 34.1911 15.2859L34.0298 15.3597C34.0298 15.5384 34.0298 15.7184 34.0298 15.8972C34.0098 18.7034 34.0923 21.5158 33.9423 24.3158C33.7423 28.0495 30.7786 31.3232 27.0874 31.9319C25.6399 32.1707 24.1387 32.1119 22.6625 32.1332C20.8588 32.1582 19.6476 30.9269 19.6401 29.117C19.6326 27.432 19.6401 25.7483 19.6401 24.0633V23.4733C17.5438 23.5258 15.4951 23.4621 13.4726 23.6583C10.8264 23.9145 8.60519 25.1208 6.91772 27.217C5.10525 29.462 4.30902 32.1007 3.92652 34.9856V34.9819ZM16.0326 20.6258C17.6688 20.6258 19.305 20.6333 20.9413 20.6258C21.8863 20.6196 22.5237 19.9871 22.4875 19.1259C22.4537 18.3059 21.835 17.7509 20.9113 17.7509C19.135 17.7434 17.3576 17.7509 15.5813 17.7509C14.1014 17.7509 12.6214 17.7421 11.1414 17.7509C10.1327 17.7584 9.49268 18.4571 9.60893 19.3871C9.70143 20.1308 10.3089 20.6221 11.1714 20.6258C12.7914 20.6346 14.4126 20.6296 16.0326 20.6296V20.6258ZM8.1377 37.9043C8.23145 39.5843 8.94769 40.8568 10.3877 41.638C11.9114 42.4668 13.4551 42.3805 14.8876 41.4043C16.0963 40.583 16.6888 39.3968 16.7451 37.9043H8.1377ZM32.5823 37.9043C32.6598 39.5693 33.3711 40.8193 34.7798 41.6093C36.2798 42.4493 37.8035 42.3893 39.2435 41.4568C40.501 40.6418 41.1185 39.4406 41.181 37.9043H32.5823ZM40.236 30.247C39.2647 32.1557 37.531 33.3719 36.1398 34.9694H43.8697C43.9247 33.2544 42.1722 30.9632 40.236 30.247ZM36.8548 7.73978C35.0261 7.92728 33.8386 9.12726 34.0848 10.511H36.8548V7.73978Z" />
</svg>
