<svg width="48" height="48" viewBox="0 0 48 48" fill="none" xmlns="http://www.w3.org/2000/svg">
<g clip-path="url(#clip0_1482_11146)">
<path d="M2.69219 20.5272V18.2994C2.33097 18.2994 1.98943 18.2994 1.64366 18.2994C0.977438 18.2853 0.484077 17.8215 0.467211 17.2031C0.450344 16.6183 0.911353 16.1278 1.54806 16.0646C1.73922 16.0463 1.9332 16.0491 2.12576 16.0491H16.1573C16.1685 15.8158 16.1854 15.6274 16.1868 15.4433C16.1868 14.5494 16.1741 13.6555 16.1966 12.7615C16.2149 12.0377 16.6183 11.5795 17.2662 11.5767C20.0534 11.5668 22.8448 11.4853 25.6264 11.6118C28.0692 11.7228 30.1902 12.7629 31.9372 14.4918C33.8113 16.3415 35.6704 18.2024 37.5145 20.0746C37.6503 20.2283 37.8186 20.3498 38.0073 20.4303C38.196 20.5108 38.4002 20.5482 38.6052 20.5398C41.1351 20.5159 43.6538 20.5272 46.1796 20.5286C47.4572 20.5286 47.9646 21.3466 47.3603 22.4696C43.3404 29.9387 37.1617 34.4575 28.8071 35.9375C27.3716 36.1688 25.9194 36.2802 24.4654 36.2706C19.5559 36.31 14.6477 36.2861 9.73815 36.2861C6.76965 36.2861 4.81876 34.8805 3.87002 32.0554C2.77557 28.7917 1.68675 25.5262 0.603544 22.2588C0.256376 21.2145 0.74411 20.537 1.84605 20.5286C2.10889 20.5257 2.37032 20.5272 2.69219 20.5272ZM44.5646 22.8308H3.20942C3.25862 23.0051 3.29375 23.1555 3.34294 23.3017C4.24717 26.0238 5.15188 28.7435 6.05705 31.4609C6.63613 33.1939 7.76337 33.9908 9.60322 33.9908C14.6013 33.9908 19.598 33.9993 24.5961 33.9908C25.5252 33.9975 26.454 33.9506 27.3777 33.8503C32.3224 33.2585 36.6641 31.3119 40.3621 27.9611C42.0055 26.4649 43.4213 24.7366 44.5646 22.8308ZM34.6725 20.4976C34.6476 20.4396 34.6165 20.3845 34.5797 20.3332C33.0785 18.8349 31.6056 17.3071 30.0637 15.8495C28.8041 14.6253 27.1306 13.919 25.3748 13.8705C23.1344 13.8045 20.8897 13.8382 18.6465 13.8312C18.5891 13.8398 18.5335 13.8578 18.482 13.8846V20.4906L34.6725 20.4976ZM16.1531 18.3401H5.00993V20.4976H16.1531V18.3401Z" />
<path fill-rule="evenodd" clip-rule="evenodd" d="M3.87002 32.0554C2.77557 28.7917 1.68675 25.5262 0.603544 22.2588C0.256376 21.2145 0.74411 20.537 1.84605 20.5286C2.00039 20.5269 2.15428 20.5267 2.32017 20.5268C2.36348 20.5269 2.40761 20.5269 2.45279 20.527C2.52925 20.5271 2.60867 20.5272 2.69219 20.5272V18.2994H1.64366C0.977438 18.2853 0.484077 17.8215 0.467211 17.2031C0.450344 16.6183 0.911353 16.1278 1.54806 16.0646C1.71673 16.0484 1.88763 16.0487 2.05778 16.049C2.08047 16.0491 2.1031 16.0491 2.12576 16.0491H16.1573C16.1613 15.9663 16.166 15.8892 16.1705 15.816C16.1786 15.6827 16.1859 15.5621 16.1868 15.4433C16.1868 15.2065 16.1859 14.9696 16.1851 14.7328C16.1826 14.0757 16.1801 13.4186 16.1966 12.7615C16.2149 12.0377 16.6183 11.5795 17.2662 11.5767C17.9805 11.5742 18.695 11.5669 19.4096 11.5597C21.4835 11.5387 23.5576 11.5177 25.6264 11.6118C28.0692 11.7228 30.1902 12.7629 31.9372 14.4918C33.8113 16.3415 35.6704 18.2024 37.5145 20.0746C37.6503 20.2283 37.8186 20.3498 38.0073 20.4303C38.196 20.5108 38.4002 20.5482 38.6052 20.5398C40.5815 20.5211 42.551 20.5239 44.5222 20.5267C45.0745 20.5275 45.6269 20.5283 46.1796 20.5286C47.4572 20.5286 47.9646 21.3466 47.3603 22.4696C43.3404 29.9387 37.1617 34.4575 28.8071 35.9375C27.3716 36.1688 25.9194 36.2802 24.4654 36.2706C20.902 36.2992 17.3394 36.2944 13.7765 36.2897C12.4304 36.2879 11.0843 36.2861 9.73815 36.2861C6.76965 36.2861 4.81876 34.8805 3.87002 32.0554ZM24.4656 36.6427C20.9013 36.6713 17.337 36.6665 13.7743 36.6617C12.4287 36.6599 11.0833 36.6582 9.73819 36.6582C8.19436 36.6582 6.88341 36.2919 5.82915 35.532C4.775 34.7721 4.01053 33.6424 3.51735 32.1739L3.5173 32.1737C2.42275 28.9097 1.33383 25.6439 0.250521 22.3762C0.0552761 21.7888 0.0683266 21.2208 0.379287 20.7881C0.689902 20.3559 1.22405 20.1613 1.84283 20.1565C1.99834 20.1549 2.15385 20.1547 2.32017 20.1548V18.6715H1.63978L1.63586 18.6714C0.792756 18.6536 0.118327 18.051 0.0953357 17.2135C0.0723018 16.4094 0.705383 15.7744 1.51133 15.6943L1.51202 15.6943L1.5127 15.6942C1.70073 15.6762 1.89087 15.6766 2.05916 15.677C2.08179 15.677 2.10402 15.6771 2.1258 15.6771H15.806C15.8107 15.5951 15.8141 15.52 15.8148 15.442C15.8148 15.2087 15.8139 14.9742 15.813 14.7389C15.8105 14.0802 15.808 13.4151 15.8247 12.7522C15.8355 12.3256 15.961 11.9373 16.2183 11.6504C16.4804 11.358 16.8477 11.2064 17.2647 11.2046L17.265 11.2046C17.9737 11.2021 18.6848 11.1949 19.3974 11.1877C21.4741 11.1667 23.5633 11.1455 25.6433 11.2401C28.1898 11.3559 30.3951 12.4423 32.199 14.2273C34.0742 16.0781 35.9344 17.9402 37.7796 19.8135L37.7866 19.8207L37.7933 19.8282C37.8925 19.9405 38.0155 20.0293 38.1533 20.0881C38.2911 20.1468 38.4403 20.1742 38.59 20.1681L38.5958 20.1678L38.6017 20.1678C40.5802 20.1491 42.5523 20.1519 44.5239 20.1546C45.0759 20.1554 45.6278 20.1562 46.1798 20.1565C46.8846 20.1566 47.4869 20.3834 47.7931 20.8838C48.1009 21.3868 48.0228 22.0237 47.6879 22.646C43.6149 30.2139 37.34 34.8037 28.8721 36.3039L28.8692 36.3044L28.8664 36.3048C27.4113 36.5393 25.9393 36.6523 24.4656 36.6427ZM3.70223 23.2029H43.8961C42.837 24.8556 41.5649 26.3629 40.112 27.6856C36.4729 30.983 32.2041 32.8976 27.3355 33.4806C26.4267 33.5792 25.5129 33.6254 24.5988 33.6188L24.5972 33.6188L24.5955 33.6188C21.2639 33.6244 17.9332 33.6225 14.6018 33.6207C12.9359 33.6197 11.2698 33.6188 9.60327 33.6188C8.73666 33.6188 8.07724 33.4315 7.57317 33.0726C7.06967 32.7142 6.68187 32.1567 6.40998 31.343C5.50693 28.6319 4.60434 25.9186 3.70223 23.2029ZM3.31182 23.2029C3.29227 23.1372 3.27423 23.0697 3.2553 22.999C3.24089 22.9451 3.22593 22.8893 3.20942 22.8308H44.5646C44.4898 22.9556 44.4138 23.0797 44.3366 23.2029C43.2349 24.9619 41.8979 26.5629 40.3621 27.9611C36.6641 31.3119 32.3224 33.2585 27.3777 33.8503C26.454 33.9506 25.5252 33.9975 24.5961 33.9908C21.2641 33.9964 17.9328 33.9946 14.6012 33.9927C12.9353 33.9918 11.2693 33.9908 9.60322 33.9908C7.76337 33.9908 6.63613 33.1939 6.05705 31.4609C5.15188 28.7435 4.24717 26.0238 3.34294 23.3017C3.33195 23.269 3.32171 23.2362 3.31182 23.2029ZM29.8063 16.1181L29.8044 16.1163C28.6117 14.9572 27.0271 14.2884 25.3646 14.2425L25.3639 14.2424C23.7794 14.1957 22.1959 14.1991 20.6054 14.2025C20.0227 14.2037 19.4391 14.205 18.8541 14.2038V20.1187L33.8463 20.1252C33.5622 19.8398 33.2792 19.5541 32.9966 19.2688C31.9428 18.205 30.8938 17.1462 29.8081 16.1199L29.8063 16.1181ZM34.3719 20.1255C34.4411 20.1948 34.5103 20.264 34.5797 20.3332C34.6165 20.3845 34.6476 20.4396 34.6725 20.4976L18.482 20.4906V13.8846C18.5335 13.8578 18.5891 13.8398 18.6465 13.8312C19.297 13.8332 19.9477 13.8318 20.5984 13.8304C22.1913 13.827 23.7841 13.8236 25.3748 13.8705C27.1306 13.919 28.8041 14.6253 30.0637 15.8495C31.154 16.8802 32.2099 17.946 33.2656 19.0116C33.6339 19.3834 34.0022 19.7552 34.3719 20.1255ZM5.00993 18.3401H16.1531V20.4976H5.00993V18.3401ZM5.38204 20.1256H15.781V18.7122H5.38204V20.1256Z" />
</g>
<defs>
<clipPath id="clip0_1482_11146">
<rect width="47.9993" height="47.9993" fill="white"/>
</clipPath>
</defs>
</svg>
