<svg   viewBox="0 0 48 48" fill="none" xmlns="http://www.w3.org/2000/svg">
<g clip-path="url(#clip0_474_6908)">
<path d="M24 12.5C24.8284 12.5 25.5 13.1716 25.5 14V28C25.5 28.8284 24.8284 29.5 24 29.5C23.1716 29.5 22.5 28.8284 22.5 28V14C22.5 13.1716 23.1716 12.5 24 12.5Z" />
<path d="M25.5 34C25.5 34.8284 24.8284 35.5 24 35.5C23.1716 35.5 22.5 34.8284 22.5 34C22.5 33.1716 23.1716 32.5 24 32.5C24.8284 32.5 25.5 33.1716 25.5 34Z" />
<path fill-rule="evenodd" clip-rule="evenodd" d="M24 0C10.7452 0 0 10.7452 0 24C0 37.2548 10.7452 48 24 48C37.2548 48 48 37.2548 48 24C48 10.7452 37.2548 0 24 0ZM3 24C3 35.598 12.402 45 24 45C35.598 45 45 35.598 45 24C45 12.402 35.598 3 24 3C12.402 3 3 12.402 3 24Z" />
</g>
<defs>
<clipPath id="clip0_474_6908">
<rect width="48" height="48"  transform="matrix(-1 0 0 1 48 0)"/>
</clipPath>
</defs>
</svg>
