<svg width="48" height="48" viewBox="0 0 48 48" fill="none" xmlns="http://www.w3.org/2000/svg">
<path d="M46.0927 36.4949C45.9828 35.8275 45.8749 34.8855 45.7471 33.8961C45.6221 32.9343 45.4773 31.9222 45.2946 31.1942C44.6319 28.5537 42.3521 26.8345 39.6918 26.6432C38.7205 26.5732 37.7482 26.4842 36.7664 26.3942C35.8538 26.3109 34.9326 26.2257 34.0076 26.1566C34.002 26.1348 33.9944 26.1112 33.9868 26.0875C33.5731 24.7687 33.1603 23.7406 32.7608 22.7389C32.3613 21.7373 31.9741 20.7612 31.5878 19.5077L30.8067 19.7482L31.5868 19.5077C31.0756 17.861 30.5672 16.2144 30.0617 14.5677C30.4621 14.5677 30.8503 14.5677 31.2328 14.5629L31.2186 13.745L31.2328 14.562C32.0214 14.545 32.7381 14.2704 33.2578 13.7506C33.5166 13.4851 33.7186 13.1696 33.8514 12.8233C33.9842 12.4771 34.0451 12.1075 34.0304 11.7369C34.0228 11.3156 33.8789 10.8073 33.6999 10.3367C33.4964 9.80812 33.2474 9.29813 32.9558 8.81249C32.6702 8.3204 32.3238 7.86619 31.9248 7.46056C31.5698 7.115 31.0482 6.72684 30.4186 6.72589H6.53632C5.84899 6.72589 5.35196 7.13677 5.03196 7.5505C4.71264 7.99318 4.46916 8.48589 4.3115 9.00846C4.0043 9.97104 3.8447 10.9746 3.83813 11.985C3.92334 16.345 4.01801 20.705 4.12215 25.065C4.1303 25.151 4.12423 25.2376 4.10416 25.3216C4.10119 25.3287 4.09738 25.3353 4.0928 25.3415C4.07073 25.3671 4.04561 25.39 4.01801 25.4096C3.02773 26.1453 2.69259 27.2264 2.6869 28.2678C2.67081 29.9767 2.6869 31.5946 2.66324 33.2779C2.64987 33.4561 2.59786 33.6293 2.51081 33.7854V33.792V33.7986C2.19142 34.3921 1.99318 35.0431 1.92763 35.7139C1.86179 36.3833 1.93002 37.0592 2.12833 37.702C2.32671 38.3464 2.65109 38.9449 3.08264 39.4629C3.51031 39.9777 4.03536 40.403 4.62771 40.7145C5.2181 41.0281 5.86495 41.2212 6.53064 41.2825C7.19623 41.3429 7.86718 41.2705 8.50457 41.0695C9.14217 40.8675 9.7333 40.5408 10.2437 40.1086C10.7533 39.6774 11.1717 39.1489 11.4745 38.5541L10.7483 38.1839L11.4773 38.555C11.4991 38.5121 11.5248 38.4712 11.554 38.4329C11.6048 38.4256 11.6561 38.4224 11.7074 38.4234C18.5024 38.448 25.2987 38.4556 32.0962 38.4461C32.1239 38.4447 32.1517 38.4447 32.1795 38.4461C32.2 38.4766 32.2186 38.5082 32.2354 38.5408C33.1821 40.3055 34.7423 41.2797 36.7797 41.2655C38.7943 41.2523 40.3233 40.262 41.2359 38.5067C41.2568 38.4679 41.2719 38.4414 41.2842 38.4225H41.3334C42.3749 38.4584 43.4163 38.4414 44.4274 38.431C44.8354 38.431 45.394 38.359 45.7784 37.9311C46.1769 37.488 46.1637 36.9162 46.0927 36.4949ZM41.7263 35.3257C41.1318 32.9523 39.5621 31.3191 37.2843 31.1118H37.2663C36.1352 30.9913 34.9963 31.254 34.0322 31.8578L34.4659 32.5508L34.0322 31.8588C32.6746 32.7108 31.9703 33.9539 31.6957 35.3323H12.0037C11.7282 33.863 10.9576 32.6607 9.60468 31.8351L9.18243 32.5291L9.60562 31.8332C8.3654 31.0758 7.07974 30.9546 5.84236 31.2292C5.831 30.1158 5.81491 29.0707 5.86887 28.0169C5.88118 27.7869 5.95218 27.7045 5.99668 27.6667C6.05727 27.6165 6.20023 27.5426 6.49466 27.5407C9.17581 27.5294 15.2377 27.5114 17.9037 27.553C18.556 27.5635 19.0531 27.9526 19.6078 28.7384C20.9389 30.6318 21.1756 31.0105 22.4963 32.9986C22.6517 33.3316 22.8945 33.6163 23.1988 33.8223C23.5383 34.0302 23.9313 34.1342 24.3292 34.1215C25.3876 34.1215 24.6748 34.1148 28.0546 34.1101H28.4418L28.687 33.81C28.9492 33.4891 30.1071 32.2422 31.2356 31.0399C31.7913 30.4463 32.33 29.8744 32.7305 29.4512L33.131 29.0271C35.2677 29.1492 37.6686 29.4948 40.0109 29.7589C40.8374 29.8536 41.661 30.3648 41.999 31.2491C42.212 31.7944 42.3777 32.6569 42.5472 33.6377C42.6418 34.1915 42.7365 34.7832 42.8312 35.3285L41.7263 35.3257ZM36.7181 38.2274C36.1765 38.2206 35.6595 38.0005 35.2791 37.6149C34.8972 37.2282 34.6839 36.7061 34.6855 36.1626C34.6988 35.0464 35.601 34.1593 36.774 34.1745C37.3062 34.1868 37.8124 34.4074 38.1837 34.7889C38.553 35.1693 38.7592 35.6788 38.7583 36.209C38.7443 36.7439 38.5241 37.2527 38.1439 37.6291C37.763 38.0041 37.2526 38.2183 36.7181 38.2274ZM9.00918 36.1939V36.2885C8.98426 36.7918 8.77499 37.2683 8.42126 37.6272C8.045 38.0067 7.5355 38.2245 7.00116 38.2341C6.45855 38.2305 5.93905 38.0139 5.55456 37.631C5.16911 37.2479 4.94949 36.7288 4.94297 36.1853C4.94597 35.6524 5.15891 35.1422 5.53562 34.7652C5.91239 34.3883 6.42275 34.1753 6.95572 34.1726H6.96329C7.23078 34.1694 7.49626 34.2193 7.74435 34.3193C7.99219 34.4195 8.2175 34.5682 8.40706 34.7567C8.59764 34.9455 8.74803 35.171 8.84918 35.4194C8.95145 35.6668 9.00358 35.9319 9.00255 36.1995L9.00918 36.1939ZM18.9499 8.96491V9.78289H29.8486L29.9102 9.852C30.0993 10.0792 30.2706 10.3207 30.4224 10.5744C30.5923 10.8478 30.7435 11.1325 30.8749 11.4264C30.8882 11.4577 30.9014 11.488 30.9128 11.5164H30.7954C22.8769 11.5208 14.9578 11.5208 7.03808 11.5164H6.97749C6.97749 11.4993 6.98507 11.4832 6.9898 11.4662C7.05134 11.2153 7.1356 10.8915 7.22459 10.5687C7.30412 10.2847 7.38554 10.0006 7.45559 9.78194H7.48305L18.9555 9.78762V8.96965L18.9499 8.96491ZM29.7625 9.70242C29.7398 9.68537 29.7426 9.69011 29.7625 9.70242V9.70242ZM30.9042 26.1026L31.6825 25.8574L30.9024 26.1036C30.9685 26.2931 31.0132 26.4893 31.0358 26.6887C31.0493 26.761 31.0414 26.8357 31.0131 26.9036C30.5142 27.6809 29.8534 28.3994 29.131 29.1312C28.5185 29.7514 27.8406 30.4008 27.2508 31.0607H25.0042C24.9847 31.062 24.9651 31.062 24.9455 31.0607C24.9297 31.0362 24.9158 31.0106 24.9039 30.984L24.8726 30.9177L24.83 30.8581C23.7621 29.3528 23.5122 28.9552 22.1792 27.128C21.3716 26.0222 20.5479 24.9505 18.9347 24.6324C18.5892 24.5652 18.539 24.5377 18.3951 24.5046C18.3335 24.4885 18.2701 24.4752 18.1991 24.4639C17.7532 22.8137 17.2997 21.1503 16.8585 19.4803C16.6635 18.7409 16.263 17.9825 15.3902 17.565L15.037 18.3025L15.3892 17.566C15.0553 17.4272 14.6996 17.3483 14.3383 17.3331C13.9452 17.3055 13.5506 17.3078 13.1578 17.3397C12.7633 17.3668 12.3717 17.4257 11.9867 17.5158C11.6562 17.5972 11.2529 17.7279 10.9585 17.9655C10.5346 18.285 10.2148 18.7228 10.0392 19.2237C9.88816 19.722 9.88454 20.2533 10.0288 20.7536V20.7584C10.3526 21.9758 10.6839 23.1952 11.0181 24.4317H7.15643C7.07311 21.0973 6.99075 17.8178 6.90933 14.5241C13.5566 14.5374 20.204 14.5487 26.8513 14.5582C26.8513 14.5658 26.8513 14.5724 26.8579 14.5809C27.567 16.8749 28.2307 18.6424 28.8887 20.3901C29.5466 22.1377 30.2046 23.8627 30.908 26.1017L30.9042 26.1026ZM6.90176 11.8392C6.90176 11.8506 6.90176 11.8524 6.90176 11.8392V11.8392ZM12.2726 20.6324L13.0669 20.4431C13.0622 20.4165 13.0594 20.3896 13.0584 20.3626C13.0563 20.3116 13.0617 20.2606 13.0744 20.2111C13.085 20.1759 13.1034 20.1435 13.1284 20.1165C13.1871 20.06 13.259 20.0193 13.3376 19.9981C13.4099 19.9688 13.4887 19.9593 13.5658 19.9707C13.6095 19.9809 13.6499 20.0021 13.6832 20.0322C13.7313 20.0718 13.7731 20.1184 13.8072 20.1704C13.8224 20.1943 13.8357 20.2193 13.847 20.2452C14.3374 21.9654 14.4671 22.3716 14.9225 24.0577C14.9225 24.0729 14.9225 24.0918 14.9225 24.1164C14.9254 24.1998 14.9194 24.2833 14.9045 24.3654C14.8695 24.5405 14.8174 24.5737 14.7558 24.5945C14.7002 24.6156 14.6397 24.6199 14.5816 24.6068C14.5156 24.5878 14.4541 24.5556 14.4008 24.5121C14.3367 24.4635 14.2794 24.4065 14.2304 24.3427C14.2181 24.3266 14.2096 24.3143 14.203 24.3039C13.722 22.7143 13.4456 22.0024 13.0669 20.4393L12.2726 20.6286V20.6324Z" />
</svg>
