<svg   viewBox="0 0 48 48" fill="none" xmlns="http://www.w3.org/2000/svg">
<path fill-rule="evenodd" clip-rule="evenodd" d="M39.6174 20.7048L31.9166 13.004C30.8936 11.981 29.5061 11.4062 28.0593 11.4062H13.386C10.8118 11.4062 8.58798 13.2057 8.05091 15.7232L6.98818 20.7048H5.65044C2.63766 20.7048 0.195312 23.1471 0.195312 26.1599V31.9087C0.195312 33.0132 1.09074 33.9087 2.19531 33.9087H6.53289C7.18397 36.2676 9.3454 38 11.9114 38C14.4775 38 16.6389 36.2676 17.29 33.9087H30.709C31.3601 36.2676 33.5215 38 36.0876 38C38.6536 38 40.815 36.2676 41.4661 33.9087H45.8037C46.9083 33.9087 47.8037 33.0132 47.8037 31.9087V26.1599C47.8037 23.1471 45.3614 20.7048 42.3486 20.7048H39.6174ZM13.386 14.3818C12.2159 14.3818 11.2051 15.1997 10.961 16.344L10.0307 20.7048H35.4093L29.8126 15.108C29.3476 14.643 28.7169 14.3818 28.0593 14.3818H13.386ZM41.4661 30.9331H44.8282V26.1599C44.8282 24.7904 43.718 23.6803 42.3486 23.6803H5.65044C4.28099 23.6803 3.17084 24.7904 3.17084 26.1599V30.9331H6.53289C7.18397 28.5741 9.3454 26.8418 11.9114 26.8418C14.4775 26.8418 16.6389 28.5741 17.29 30.9331H30.709C31.3601 28.5741 33.5215 26.8418 36.0876 26.8418C38.6536 26.8418 40.815 28.5741 41.4661 30.9331ZM11.9114 35.0245C13.3494 35.0245 14.515 33.8588 14.515 32.4209C14.515 30.983 13.3494 29.8173 11.9114 29.8173C10.4735 29.8173 9.30786 30.983 9.30786 32.4209C9.30786 33.8588 10.4735 35.0245 11.9114 35.0245ZM38.6912 32.4209C38.6912 33.8588 37.5255 35.0245 36.0876 35.0245C34.6497 35.0245 33.484 33.8588 33.484 32.4209C33.484 30.983 34.6497 29.8173 36.0876 29.8173C37.5255 29.8173 38.6912 30.983 38.6912 32.4209Z" />
</svg>
