<svg width="48" height="48" viewBox="0 0 48 48" fill="none" xmlns="http://www.w3.org/2000/svg">
<g clip-path="url(#clip0_1482_11170)">
<path d="M47.9993 33.0379C47.6138 33.8391 46.9703 34.107 46.0991 34.0719C44.8986 34.0231 43.6956 34.0719 42.4926 34.0544C42.2135 34.0544 42.0633 34.1082 41.9343 34.3999C41.1019 36.2926 39.6485 37.3228 37.5668 37.3641C35.614 37.403 33.9366 36.2563 33.1554 34.3899C33.0428 34.1207 32.9051 34.0544 32.6397 34.0544C27.1426 34.0602 21.6455 34.0602 16.1485 34.0544C15.8643 34.0544 15.7228 34.1232 15.5964 34.4086C14.7602 36.3001 13.3044 37.3253 11.2226 37.3641C9.28733 37.3992 7.59239 36.2525 6.84131 34.4237C6.71613 34.1157 6.55213 34.0481 6.2517 34.0481C5.01868 34.0631 3.78441 34.0569 2.55138 34.0481C1.5224 34.0481 0.957838 33.4823 0.956586 32.4596C0.956586 29.8033 0.956586 27.1478 0.956586 24.4931C0.956586 24.2127 0.919029 24.0149 0.641129 23.8472C0.391943 23.6958 0.199233 23.467 0.0925185 23.1957C-0.0141965 22.9244 -0.0290296 22.6256 0.0502824 22.345C0.124969 22.056 0.29014 21.7983 0.521664 21.6098C0.753188 21.4213 1.03892 21.3118 1.33712 21.2973C1.52364 21.2835 1.71266 21.286 1.89918 21.286H24.006V20.744C24.006 17.9174 24.006 15.0904 24.006 12.263C24.006 11.2753 24.5405 10.7133 25.5257 10.707C27.4777 10.6945 29.4297 10.6945 31.3816 10.707C33.2005 10.7183 34.4911 11.577 35.2848 13.2031C36.0784 14.8292 36.8683 16.419 37.6431 18.0351C37.7683 18.3004 37.9173 18.3981 38.209 18.3956C39.2555 18.3843 40.3032 18.368 41.3472 18.4131C42.9427 18.4904 44.4636 19.1115 45.657 20.1733C46.8504 21.235 47.6443 22.6734 47.9067 24.249C47.9288 24.3354 47.9599 24.4193 47.9993 24.4994V33.0379ZM45.1577 31.2278V27.6852C44.816 27.6852 44.5055 27.6852 44.1963 27.6852C43.2938 27.6765 42.6629 27.0956 42.6591 26.2732C42.6554 25.4507 43.2625 24.8787 44.1826 24.8574C44.4755 24.8511 44.7697 24.8574 45.1227 24.8574C45.0851 24.6521 45.0676 24.5031 45.0288 24.3567C44.8005 23.4573 44.2774 22.6604 43.5432 22.0932C42.8089 21.5259 41.9058 21.221 40.978 21.2272C36.388 21.2171 31.7981 21.2171 27.2081 21.2272C27.0829 21.2272 26.969 21.2447 26.8476 21.2547V31.2378H27.3809C29.0821 31.2378 30.7845 31.2291 32.487 31.2441C32.8538 31.2441 33.0515 31.169 33.2093 30.7859C33.5661 29.9116 34.1817 29.1673 34.9735 28.6527C35.7653 28.1381 36.6955 27.8778 37.6394 27.9068C39.6636 27.9881 41.1019 28.9971 41.9418 30.851C42.0082 30.9987 42.1609 31.2103 42.2786 31.214C43.2262 31.2416 44.1763 31.2278 45.1577 31.2278ZM23.9822 31.2278V24.1514H3.76186V26.1543C4.28011 26.2794 4.76332 26.3145 5.16514 26.501C5.61579 26.7063 5.81984 27.1507 5.82359 27.6589C5.8311 28.5652 5.37294 28.902 3.78566 29.1436V31.2316C4.6156 31.2316 5.42427 31.2165 6.23043 31.2391C6.5584 31.2478 6.71863 31.1477 6.84881 30.8347C7.2012 29.9692 7.80258 29.2277 8.57675 28.7043C9.35092 28.1808 10.263 27.8989 11.1976 27.8943C12.1323 27.8901 13.0471 28.1645 13.8252 28.6824C14.6033 29.2003 15.2095 29.9383 15.5664 30.8022C15.7128 31.159 15.9006 31.2416 16.2574 31.2391C18.4893 31.2241 20.7225 31.2316 22.9558 31.2316L23.9822 31.2278ZM26.8489 13.5361V18.353H34.5737C34.5825 18.2904 34.6 18.2554 34.5887 18.2278C33.9265 16.8696 33.2944 15.4952 32.5733 14.1695C32.4656 14.0036 32.323 13.8631 32.1554 13.7578C31.9879 13.6525 31.7995 13.585 31.6032 13.5599C30.0309 13.5023 28.4549 13.5386 26.8489 13.5386V13.5361ZM11.1938 34.5451C11.699 34.5495 12.1856 34.3551 12.5487 34.0037C12.9117 33.6524 13.122 33.1724 13.1341 32.6674C13.1345 32.1563 12.9333 31.6657 12.5743 31.302C12.2153 30.9383 11.7274 30.7308 11.2164 30.7246C10.7099 30.7297 10.2256 30.9324 9.8664 31.2895C9.50725 31.6465 9.30172 32.1297 9.29359 32.6361C9.29748 33.1397 9.49866 33.6217 9.85393 33.9786C10.2092 34.3355 10.6903 34.5389 11.1938 34.5451ZM37.5317 34.5451C38.0364 34.5485 38.5222 34.3537 38.8846 34.0025C39.247 33.6513 39.4571 33.1719 39.4695 32.6674C39.4699 32.1548 39.2675 31.6629 38.9066 31.299C38.5457 30.935 38.0556 30.7285 37.543 30.7246C37.0373 30.7301 36.5538 30.9331 36.1957 31.2902C35.8376 31.6474 35.6333 32.1304 35.6265 32.6361C35.6304 33.1405 35.8323 33.6233 36.1886 33.9803C36.545 34.3374 37.0273 34.5402 37.5317 34.5451Z" />
</g>
<defs>
<clipPath id="clip0_1482_11170">
<rect width="47.9993" height="47.9993" fill="white"/>
</clipPath>
</defs>
</svg>
