<svg width="48" height="48" viewBox="0 0 48 48" fill="none" xmlns="http://www.w3.org/2000/svg">
<g clip-path="url(#clip0_1482_11138)">
<path d="M47.6138 34.6182C47.5722 34.2966 47.4266 33.9974 47.1992 33.7662C46.9712 33.535 46.674 33.3845 46.3528 33.3373H46.3433C45.967 33.3031 45.5884 33.3705 45.247 33.5323C43.9756 34.1307 42.7249 34.7697 41.4478 35.405C41.0984 34.5472 40.7586 33.7169 40.4064 32.8592C40.5162 32.8024 40.6137 32.7513 40.715 32.702C42.6738 31.7686 44.6411 30.8379 46.5933 29.8959C47.0894 29.6592 47.4264 29.3279 47.5608 28.9066C47.6953 28.4853 47.6176 28.0186 47.3649 27.5348C46.8978 26.6474 46.4292 25.7609 45.959 24.8754C44.5019 22.1299 42.5384 19.8132 39.986 18.0324C39.6424 17.7929 39.3593 17.5723 39.1671 17.311C38.9631 17.0358 38.8707 16.6935 38.9086 16.3529V16.3264C38.9001 16.209 38.8775 16.093 38.8414 15.9809C38.1181 12.3028 34.8453 9.2354 31.1407 8.90783C29.5758 8.76866 27.9843 8.82452 26.4307 8.80653C25.9789 8.7865 25.5358 8.93609 25.1886 9.22593C25.0298 9.36894 24.9036 9.54437 24.8185 9.74038C24.7334 9.93638 24.6914 10.1484 24.6954 10.362C24.6884 10.5735 24.7271 10.784 24.8088 10.9792C24.8905 11.1745 25.0132 11.3498 25.1687 11.4934C25.4764 11.7707 25.9081 11.9203 26.4108 11.9232H29.8399C30.8469 11.9075 31.8419 12.1431 32.735 12.6086C33.957 13.2444 34.9157 14.2907 35.4427 15.5634C32.9395 14.6166 30.3379 14.2209 27.67 14.2767C27.2326 14.2853 26.8662 14.3847 26.5775 14.6072C26.2887 14.8296 26.1041 15.1619 25.9848 15.5899C25.6572 16.8206 25.3221 18.0514 25.0154 19.2925C24.9832 19.4203 24.9491 19.4611 24.9273 19.4762C24.869 19.506 24.8025 19.516 24.738 19.5046C24.3545 19.4913 23.9607 19.5046 23.5896 19.5046C17.4245 19.509 11.26 19.509 5.09612 19.5046C3.49993 19.5046 2.14232 20.0556 1.23535 21.434C0.667313 22.2861 0.314182 23.5737 0.28862 24.8186C0.263058 26.0636 0.559385 27.3114 1.36884 28.0659L1.49002 27.9352L1.36695 28.0678C2.22658 28.8678 3.11272 29.6403 3.98466 30.4185C4.03768 30.4659 4.09353 30.5132 4.15129 30.5634C2.58634 30.8616 1.39346 31.6862 0.743052 33.129C0.442938 33.894 0.328383 34.7451 0.553705 35.5829C0.893582 36.7777 1.4247 37.6658 2.20007 38.2537C2.97544 38.8416 3.97141 39.1114 5.20878 39.1114C16.5156 39.1114 27.8253 39.0963 39.134 39.1304C40.4149 39.1304 41.5709 38.9126 42.7022 38.284C44.0115 37.5597 45.371 36.9462 46.7239 36.2627C47.3914 35.9295 47.7076 35.3188 47.6138 34.6182ZM14.3002 28.1587C21.5585 28.1517 28.8168 28.1432 36.0751 28.1331C36.3166 28.1371 36.5577 28.113 36.7937 28.0612H36.7993C37.1281 27.9765 37.4195 27.785 37.6277 27.5168C37.8343 27.2494 37.9465 26.9212 37.9468 26.5833V26.5786C37.9539 26.2404 37.8487 25.9095 37.6476 25.6375C37.4449 25.3647 37.1571 25.1671 36.8296 25.0761C36.5794 25.0171 36.3227 24.9895 36.0656 24.9938H26.7479C27.0082 24.0063 27.2601 23.0577 27.5053 22.11C27.8934 20.6312 28.2967 19.1486 28.6631 17.6604C28.6738 17.5829 28.7067 17.5103 28.7578 17.4511C28.7777 17.4341 28.8241 17.4104 28.9613 17.418C35.2543 17.7967 39.9643 20.7032 43.1065 26.1762C43.3905 26.6657 43.6451 27.1722 43.9273 27.708C42.83 28.224 41.6968 28.687 40.6639 29.2948C38.9229 30.3163 37.0824 30.5691 35.0545 30.552C26.4392 30.4801 17.824 30.5189 9.20873 30.5283H9.20115C9.0617 30.535 8.92239 30.5124 8.79216 30.4621C8.66136 30.4128 8.54212 30.337 8.44187 30.2396C7.70532 29.5551 6.95266 28.8877 6.14132 28.1625H14.2946L14.3002 28.1587ZM27.9294 35.9881C20.3088 35.9926 12.688 35.9926 5.06677 35.9881C4.83036 35.9933 4.59461 35.9613 4.36809 35.8935C4.12906 35.8026 3.92604 35.6364 3.78963 35.4201C3.65293 35.2022 3.5911 34.9455 3.61354 34.6892C3.64856 34.42 3.77291 34.1703 3.96667 33.9801C4.1606 33.7901 4.41256 33.6704 4.6824 33.6403C4.82536 33.6327 4.9579 33.6403 5.12263 33.6403H16.5279V33.4547V33.6393L28.1187 33.6327C28.4563 33.6204 28.7855 33.7387 29.038 33.9631C29.1509 34.0723 29.2398 34.2038 29.2993 34.3491C29.3588 34.4945 29.3875 34.6506 29.3836 34.8076V34.8123C29.39 35.0757 29.3032 35.3329 29.1384 35.5385C28.974 35.7443 28.7424 35.8857 28.4842 35.938L28.5211 36.1178L28.4842 35.937C28.3035 35.9737 28.1194 35.9912 27.9351 35.9891V36.1784L27.9294 35.9881ZM32.4396 33.6393H36.1196C36.2398 33.6393 36.3657 33.6317 36.485 33.6232C36.6043 33.6147 36.7236 33.6052 36.8353 33.6024C37.0654 33.5967 37.2348 33.6204 37.3475 33.6971C37.4422 33.7586 37.5207 33.894 37.5984 34.1089C37.6362 34.2121 37.6694 34.3219 37.7054 34.4374C37.7413 34.5529 37.7792 34.6684 37.8246 34.7782C37.9865 35.1692 38.1446 35.564 38.3103 35.9796H32.4349L32.4396 33.6393ZM23.1541 24.9909H3.60313C3.60313 24.5516 3.58514 24.1777 3.60786 23.7971C3.61691 23.4907 3.74334 23.1996 3.96099 22.9838C4.18846 22.7748 4.48709 22.6603 4.79601 22.6638C5.92073 22.6468 7.04355 22.6572 8.17206 22.6572H24.1226C23.9143 23.4525 23.7183 24.2089 23.512 24.9597C23.4988 24.967 23.4848 24.9727 23.4703 24.9767L23.4353 24.9871C23.3441 24.9975 23.2522 24.9994 23.1607 24.9928L23.1541 24.9909ZM35.508 15.7224L35.4862 15.7792L35.508 15.7215V15.7224Z" />
</g>
<defs>
<clipPath id="clip0_1482_11138">
<rect width="47.9993" height="47.9993" fill="white"/>
</clipPath>
</defs>
</svg>
