<svg width="48" height="48" viewBox="0 0 48 48" fill="none" xmlns="http://www.w3.org/2000/svg">
<g clip-path="url(#clip0_1486_11236)">
<path d="M41.809 26.728L41.0838 23.8254C42.2549 23.8254 43.3947 23.8348 44.5327 23.8254C44.7279 23.826 44.9212 23.7876 45.1013 23.7124C45.2814 23.6372 45.4446 23.5266 45.5813 23.3873C45.718 23.2479 45.8254 23.0827 45.8972 22.9011C45.9689 22.7196 46.0036 22.5256 45.9992 22.3305C45.9998 22.1364 45.9622 21.9441 45.8885 21.7646C45.8148 21.585 45.7065 21.4218 45.5697 21.2841C45.4329 21.1464 45.2703 21.037 45.0913 20.9622C44.9122 20.8874 44.7202 20.8485 44.5261 20.8479H43.87C43.87 20.2448 43.8605 18.8086 43.87 18.3296C43.8894 17.2938 43.6718 16.2673 43.2338 15.3284C42.7898 14.395 42.1138 13.6007 41.2087 13.186L41.1784 13.2513L41.2078 13.1888C38.9678 12.1638 36.7332 11.1294 34.504 10.0854C34.3105 9.98816 34.1469 9.84029 34.0306 9.65752C33.0678 8.11719 32.2886 7.60122 31.7518 7.30205C31.4946 7.15823 31.2016 7.0909 30.9074 7.10797C30.0051 7.12028 29.1086 7.10797 28.2016 7.10797C28.0129 7.10816 27.8245 7.09296 27.6383 7.06253C27.4846 7.03523 27.3293 7.01753 27.1734 7.00951C27.1096 7.00305 27.0452 7.01017 26.9843 7.03041C26.9234 7.05064 26.8676 7.08353 26.8203 7.12691C26.7313 7.22158 26.6934 7.36832 26.6934 7.57471C26.6934 8.4173 27.3401 9.05256 28.2082 9.06203C28.7895 9.06866 29.3576 9.06203 29.9351 9.06866C29.9951 9.07231 30.0545 9.08279 30.1121 9.0999C30.1535 9.10884 30.1912 9.13033 30.22 9.16144C30.54 9.66131 30.8354 10.1763 31.1469 10.7018C31.0266 10.7964 30.9225 10.8769 30.8193 10.9498C29.7154 11.7413 28.6163 12.5384 27.501 13.3166C27.2452 13.4859 27.0328 13.7129 26.8809 13.9794C26.7364 14.2533 26.6708 14.5621 26.6916 14.8712C26.72 15.5632 26.6991 17.202 26.6991 17.9007V18.3959C25.0405 18.3959 23.4528 18.4025 21.8651 18.3873C21.6284 18.385 21.3957 18.3263 21.1863 18.216C20.2617 17.7111 19.3383 17.2008 18.4162 16.6851C17.4941 16.1695 16.57 15.6592 15.6441 15.1542C15.3791 15.0094 15.0534 14.8598 14.7429 14.8598C11.1652 14.8409 7.58556 14.8475 4.00786 14.8475C3.76533 14.8458 3.52647 14.9066 3.31435 15.0242C3.10223 15.1418 2.92403 15.3121 2.79699 15.5187C2.67203 15.7059 2.59168 15.9192 2.56214 16.1422C2.53259 16.3653 2.55464 16.5921 2.62658 16.8053C2.77143 17.309 2.9106 18.074 3.05829 18.8456C3.19367 19.5726 3.32905 20.3054 3.46633 20.8176C3.01 20.8526 2.56599 20.8555 2.14659 20.9435L2.16079 21.0145L2.14564 20.9435C1.60505 21.059 1.35133 21.5258 1.14778 21.9594L1.14021 21.9745V21.9906L1.14778 22.7006V22.7148L1.15346 22.7272C1.28695 23.0932 1.53972 23.4036 1.87109 23.6086C2.18256 23.7903 2.56031 23.8613 3.00054 23.8462C4.25212 23.8017 5.50843 23.8329 6.78746 23.8339L6.33493 26.7555C5.27368 26.9928 4.27756 27.4605 3.4171 28.1254C1.94872 29.2994 1.04364 30.8075 0.745422 32.6697C0.727974 32.7327 0.703189 32.7934 0.671577 32.8506L0.662109 32.8676V34.6825L0.67063 34.6986C0.702557 34.7564 0.727656 34.8177 0.745422 34.8813C1.25192 37.9023 3.4455 40.1925 6.43717 40.823L6.45137 40.7529L6.43717 40.8211C9.27737 41.4204 12.2937 40.1413 13.888 37.588C14.1084 37.2217 14.3012 36.8394 14.4645 36.4444C14.6321 36.0571 14.7883 35.6652 14.9653 35.2751L17.3038 34.4685C17.3038 34.4903 17.3113 34.5121 17.3142 34.5348C17.4515 36.9092 19.3023 38.6692 21.6824 38.6758C22.6291 38.6758 23.3165 38.7052 24.0057 38.7288C24.6949 38.7525 25.3851 38.7733 26.3318 38.7695C27.2632 38.7683 28.1688 38.4634 28.9111 37.9009C29.6535 37.3385 30.1922 36.5492 30.4453 35.6529C30.5362 35.2907 30.6085 34.9242 30.6621 34.5547L33.2524 35.2761C34.2446 39.2107 37.6424 41.2272 40.9721 40.9271C42.6294 40.7688 44.1803 40.0397 45.3597 38.8647C46.5391 37.6896 47.2738 36.1414 47.4382 34.4846C47.7705 31.1834 45.7644 27.7231 41.809 26.728ZM10.7808 36.7189C10.2956 37.2003 9.69946 37.555 9.04494 37.7519C8.39042 37.9488 7.69754 37.9818 7.02728 37.848C6.35701 37.7142 5.72991 37.4177 5.20114 36.9846C4.67238 36.5515 4.25817 35.9951 3.99495 35.3643C3.73174 34.7335 3.62759 34.0477 3.69168 33.3673C3.75577 32.6868 3.98613 32.0325 4.36248 31.4619C4.73884 30.8914 5.24965 30.4221 5.84998 30.0954C6.45031 29.7686 7.12174 29.5944 7.8052 29.5881C10.0868 29.5673 12.0049 31.4731 12.0144 33.7632C12.0068 34.8721 11.5637 35.9336 10.7808 36.7189ZM33.047 12.9569L33.0886 13.0156C33.1475 12.9734 33.2132 12.9413 33.2827 12.9209C33.3356 12.9018 33.3929 12.8989 33.4474 12.9124C34.1234 13.203 34.788 13.5202 35.5302 13.8686L35.2936 13.8809C35.1517 13.8855 35.0106 13.9039 34.8723 13.9358C34.5172 14.0341 34.2109 14.2602 34.0122 14.5705C33.8136 14.8808 33.7365 15.2535 33.7958 15.6172L33.8659 15.6049L33.7949 15.6172C33.8537 15.9652 34.0338 16.2811 34.3033 16.5089C34.5727 16.7368 34.9142 16.8619 35.2671 16.8622H40.8528V20.8384H39.7877C35.8218 20.8252 32.1996 23.1797 29.8035 26.3086C29.742 26.3785 29.6674 26.4354 29.5838 26.4762C29.4995 26.5163 29.4082 26.5395 29.3149 26.5444C27.3656 26.5538 25.6729 26.5321 23.9792 26.5103C22.2855 26.4885 20.5899 26.4649 18.6377 26.4696C18.5282 26.4749 18.4194 26.4507 18.3224 26.3995C18.2256 26.3488 18.1439 26.2734 18.0858 26.1808C15.7738 23.138 12.145 20.9009 8.30508 20.8441C7.74745 20.8375 7.18793 20.8441 6.60759 20.8441C6.51291 20.4881 6.41824 19.9125 6.32357 19.3293C6.22889 18.766 6.13422 18.1933 6.03955 17.8146H6.42581C8.90909 17.8146 11.3857 17.8079 13.8747 17.824C14.1535 17.8315 14.4265 17.9044 14.6718 18.037C15.5826 18.536 16.4896 19.1135 17.3994 19.69C18.3092 20.2666 19.2209 20.8422 20.1392 21.3374C20.4983 21.5258 20.8964 21.6279 21.3018 21.6356C23.5342 21.6611 25.7675 21.6488 27.9999 21.6488C28.5415 21.6488 28.9628 21.5078 29.2468 21.219C29.5308 20.9303 29.6681 20.5052 29.6681 19.9608C29.6681 18.9696 29.6558 16.7523 29.6813 15.763C29.6876 15.6711 29.712 15.5813 29.7533 15.4989C29.7939 15.4166 29.851 15.3434 29.9209 15.2839C30.9623 14.5095 32.0207 13.7607 33.0858 13.0118L33.0441 12.9531L33.047 12.9569ZM37.3489 30.8151C37.9359 30.2344 38.6814 29.8401 39.4918 29.6818C40.3021 29.5234 41.1412 29.6081 41.9036 29.9251C42.666 30.2421 43.3177 30.7774 43.7769 31.4636C44.2361 32.1498 44.4822 32.9565 44.4844 33.7821C44.4778 36.0704 42.5635 37.9733 40.2743 37.9601C37.9851 37.9468 36.085 36.025 36.1087 33.7452C36.1242 32.6442 36.5692 31.5927 37.3489 30.8151ZM9.80565 24.0157C11.4454 24.2249 13.1789 25.2568 14.5516 26.6542C15.9244 28.0516 16.9345 29.8106 17.1144 31.4437L14.8659 32.2456C14.4806 30.8094 13.834 29.626 12.9176 28.7067C12.0011 27.7874 10.8111 27.1295 9.35405 26.7451L9.80565 24.0157ZM27.6449 34.2281C27.6354 34.7525 27.4953 35.1417 27.2378 35.4001C26.9803 35.6586 26.5912 35.7939 26.0667 35.7939C25.1938 35.7939 24.5794 35.7703 23.964 35.7466C23.3486 35.7229 22.7333 35.7002 21.8642 35.7002C21.3378 35.7002 20.9449 35.5611 20.6855 35.3026C20.4261 35.0441 20.2879 34.6569 20.2954 34.1334C20.3201 32.576 20.2841 31.0215 19.7558 29.4632L28.1249 29.5578C27.9895 30.212 27.8106 30.8634 27.7462 31.5213C27.6591 32.4188 27.6591 33.3258 27.644 34.2243L27.6449 34.2281ZM30.8051 31.5327C31.0172 29.9233 31.9649 28.1595 33.295 26.7413C34.6252 25.3231 36.3246 24.2561 38.0344 24.0109L38.7567 26.7489C37.3208 27.1276 36.1425 27.777 35.2216 28.6972C34.3008 29.6175 33.6488 30.8015 33.2657 32.2494L30.8051 31.5327Z"/>
</g>
<defs>
<clipPath id="clip0_1486_11236">
<rect width="47.9993" height="47.9993" fill="white"/>
</clipPath>
</defs>
</svg>
