<svg width="48" height="48" viewBox="0 0 48 48" fill="none" xmlns="http://www.w3.org/2000/svg">
<g clip-path="url(#clip0_1486_11205)">
<path d="M47.714 32.1062V25.9051C47.6769 25.2505 47.5873 24.5999 47.4461 23.9596C47.3701 23.5991 47.2704 23.2439 47.1478 22.8964C47.0398 22.5697 46.8765 22.2638 46.665 21.9923C46.1434 21.3756 45.4641 20.9123 44.6996 20.6517V16.5514C44.7793 15.7314 44.6564 14.9044 44.3417 14.1429C45.005 13.9718 45.6203 13.6512 46.1405 13.2057C46.3906 12.9785 46.5977 12.7081 46.7521 12.4076C46.9145 12.1031 47.0531 11.7866 47.1668 11.4609C47.3694 10.8791 47.5277 10.2829 47.6401 9.67721C47.7063 9.33323 47.7063 8.97979 47.6401 8.6358C47.6138 8.46894 47.5566 8.30842 47.4716 8.16244C47.379 8.00453 47.2561 7.8665 47.11 7.75629C46.8354 7.54877 46.4924 7.45273 46.15 7.48742H33.7478C33.4574 7.48242 33.1698 7.54429 32.9071 7.66824C32.6504 7.79023 32.424 7.96777 32.2444 8.188C31.4558 9.09686 30.6794 10.2348 29.9277 11.3302C29.1637 12.4417 28.4234 13.5124 27.6764 14.355L27.665 14.3683L27.6537 14.3825C27.635 14.4061 27.611 14.4249 27.5836 14.4374C27.5559 14.4496 27.5258 14.4554 27.4956 14.4544H6.72997C6.43944 14.4402 6.14924 14.4884 5.87894 14.5958C5.60864 14.7033 5.36455 14.8675 5.16313 15.0774C4.06208 16.2087 2.94115 17.3192 1.82306 18.4373C1.41501 18.8454 1.10922 19.4106 1.27584 20.0184C1.44247 20.6262 1.99252 20.9547 2.55014 21.0976C4.92171 21.7007 7.29327 22.2915 9.65821 22.9125C9.89342 22.9798 10.1092 23.1022 10.2878 23.2694C10.4544 23.4406 10.5997 23.6313 10.7204 23.8375C10.8899 24.1045 11.0603 24.415 11.2449 24.7501C11.4163 25.0597 11.6056 25.4128 11.813 25.7366C10.97 25.9975 10.176 26.3961 9.46318 26.9163C8.27402 27.8111 7.37938 29.0408 6.89406 30.4477C6.40875 31.8545 6.3549 33.3743 6.73943 34.812C7.12437 36.2569 7.93257 37.5537 9.06019 38.5357C10.1878 39.5177 11.5833 40.1401 13.0674 40.3229C14.6684 40.5156 16.2885 40.1813 17.6825 39.3708C19.0765 38.5602 20.1683 37.3174 20.7927 35.8307L20.8003 35.8146C21.1402 35.8364 21.8521 35.8364 22.191 35.8146H22.2204L22.2497 35.8099C22.4422 35.7799 22.6387 35.7897 22.8273 35.8385C23.0158 35.8873 23.1924 35.9743 23.3461 36.0939L23.3764 36.1185L23.4095 36.1384C23.8305 36.3955 24.311 36.5391 24.804 36.5549C24.9647 36.5801 25.1279 36.5849 25.2897 36.5691C25.3055 36.5654 25.3217 36.5632 25.338 36.5625C25.3588 36.5625 25.4099 36.5625 25.5273 36.5625C26.2211 36.5747 26.8952 36.3311 27.4208 35.878L27.4435 35.86H29.7441C30.3472 37.2351 31.3503 38.3968 32.6228 39.194C33.8952 39.9911 35.3782 40.3868 36.8786 40.3295C38.7986 40.2401 40.6097 39.4119 41.933 38.0179C43.2564 36.624 43.9895 34.7724 43.9791 32.8504V32.8267V32.7841H44.995C45.0232 32.861 45.0584 32.9351 45.1001 33.0056C45.3396 33.4033 45.7628 33.6314 46.3119 33.6314C46.5123 33.6306 46.7102 33.587 46.8924 33.5035C47.0746 33.4201 47.2369 33.2988 47.3684 33.1476C47.4995 32.9962 47.5964 32.8183 47.6524 32.626C47.7061 32.4583 47.7269 32.2818 47.714 32.1062ZM7.26298 16.736L7.22037 17.2984H7.24499H27.9992C28.2852 17.309 28.5698 17.2539 28.8311 17.1372C29.0924 17.0205 29.3235 16.8453 29.5064 16.6253L29.5187 16.6101C30.3064 15.6965 31.0922 14.5595 31.8515 13.4622C32.625 12.3432 33.3729 11.2639 34.1085 10.4128L33.6058 9.9849L34.1085 10.4194L34.1189 10.4071L34.1274 10.3958C34.1407 10.3793 34.1575 10.366 34.1767 10.357C34.196 10.3484 34.2171 10.3448 34.2382 10.3465H44.4629C44.443 10.409 44.4241 10.4725 44.4033 10.5359C44.3478 10.7057 44.2814 10.8717 44.2044 11.0329C44.1812 11.0801 44.1543 11.1254 44.124 11.1683C43.8519 11.3503 43.5288 11.4405 43.2019 11.4258H36.1487C35.7713 11.3982 35.3946 11.489 35.0712 11.6855C34.7478 11.882 34.4937 12.1744 34.3442 12.5221C31.9727 16.328 28.8314 21.3817 26.1484 25.1771L26.1399 25.1894C22.8528 24.3374 20.0865 23.3764 17.304 22.4098C14.5017 21.4375 11.6823 20.4586 8.329 19.5999L5.46324 18.8842C5.96501 18.3976 6.45541 17.9176 6.92499 17.4281L6.93351 17.4196L6.94109 17.4111L6.44595 16.9689L6.94109 17.412C6.97583 17.3731 7.0193 17.3429 7.06795 17.324C7.1161 17.3039 7.1684 17.2958 7.22037 17.3003L7.26298 16.7379V16.736ZM45.3879 26.831L44.8719 26.7847V26.814V29.9287H43.3164C42.8723 28.8604 42.1767 27.9151 41.2887 27.1733C40.4007 26.4316 39.3467 25.9153 38.2164 25.6685H38.2107C37.5423 25.5293 36.8607 25.4639 36.1781 25.4734C34.6633 25.4157 31.9178 25.4195 29.9344 25.4223C30.3736 24.6952 30.9227 23.8261 31.2446 23.295H43.3628C43.7207 23.2927 44.0678 23.4171 44.3427 23.6462C44.3804 23.7134 44.4121 23.7837 44.4373 23.8564C44.5142 24.0686 44.5775 24.2856 44.6267 24.5059C44.7412 24.9878 44.8227 25.4943 44.8634 25.7603C44.8941 26.1033 44.8941 26.4483 44.8634 26.7913L45.3793 26.8377L45.3879 26.831ZM36.6202 37.4647C35.4794 37.4788 34.3734 37.0725 33.5131 36.3232C32.6528 35.5739 32.0984 34.5342 31.9556 33.4023V32.8854C31.9546 31.9816 32.2208 31.0977 32.7206 30.3447C33.2204 29.5917 33.9316 29.0032 34.7649 28.6532C35.5981 28.3031 36.5162 28.2072 37.4038 28.3773C38.2915 28.5475 39.109 28.9761 39.7537 29.6095C40.3985 30.2428 40.8416 31.0526 41.0276 31.9371C41.2135 32.8215 41.1339 33.7412 40.7988 34.5805C40.4637 35.4199 39.888 36.1415 39.144 36.6546C38.4 37.1678 37.521 37.4496 36.6173 37.4647H36.6202ZM24.4585 32.5626C24.592 32.4139 24.8144 32.288 25.196 32.288C25.5775 32.288 25.8009 32.4111 25.9278 32.5569C26.0547 32.7027 26.1806 32.9905 26.1806 33.4165C26.1806 33.7734 25.9136 34.2828 25.1988 34.2828C24.7709 34.2828 24.5531 34.1502 24.4357 34.0205C24.3183 33.8908 24.2171 33.6475 24.2171 33.3237C24.2142 32.9753 24.3155 32.7216 24.4585 32.5626ZM39.9082 14.2774C40.5482 14.3143 40.9051 14.4061 41.1304 14.5538C41.3198 14.6788 41.5091 14.9013 41.6388 15.4333C41.7761 15.9834 41.8405 16.7872 41.8405 17.9772L41.849 20.4217H33.034C34.1246 18.3796 35.4301 16.3649 36.6514 14.2461C36.8976 14.2395 37.2195 14.2461 37.4221 14.2528H37.4543C38.4976 14.2632 39.271 14.2452 39.9082 14.2774ZM28.6421 26.1806L28.6591 26.1484V26.1806H28.6421ZM26.635 25.5217L26.2251 25.2273L26.6359 25.5179L26.635 25.5217ZM26.0461 25.8521L26.0139 25.9761L26.0461 25.8512V25.8521ZM13.9109 37.4543C12.786 37.4376 11.7057 37.0116 10.8721 36.256C10.0385 35.5005 9.50869 34.4672 9.38176 33.3493L9.39123 32.8239C9.39958 31.9152 9.67754 31.0294 10.1899 30.2789C10.7022 29.5284 11.4258 28.9469 12.269 28.6081C13.1122 28.2693 14.037 28.1885 14.9262 28.3759C15.8154 28.5633 16.6289 29.0105 17.2637 29.6608C17.8984 30.3111 18.3258 31.1352 18.4916 32.0286C18.6574 32.9221 18.5543 33.8447 18.1951 34.6794C17.836 35.5142 17.2372 36.2235 16.4745 36.7175C15.7118 37.2115 14.8195 37.468 13.9109 37.4543ZM19.8801 28.3723C18.8147 26.9978 17.2994 26.0422 15.5999 25.6732H15.5952C15.5577 25.6641 15.5219 25.6491 15.4891 25.6287C15.3836 25.4903 15.2907 25.3426 15.2117 25.1875C15.1625 25.0928 15.1171 24.9982 15.064 24.8959L16.9509 25.9657L17.0143 26.0017L17.0834 26.0235L26.493 28.9072H26.5034H26.5148C26.8499 29.0019 27.258 29.0852 27.6575 28.9318C27.9955 28.8021 28.2255 28.5389 28.3978 28.29C28.7377 28.3174 29.2281 28.3846 29.7772 28.4575C29.9599 28.4821 30.1493 28.5077 30.3377 28.5314C30.0536 29.0114 29.906 29.5027 29.675 30.0651C29.2829 31.017 29.088 32.0387 29.1022 33.0681L28.4811 33.1562V33.0094C28.4988 32.6074 28.4325 32.2061 28.2864 31.8312C28.1402 31.4563 27.9175 31.116 27.6324 30.8321C27.3473 30.5481 27.006 30.3268 26.6305 30.1821C26.255 30.0375 25.8535 29.9728 25.4516 29.9922H24.9243C24.5348 29.9853 24.148 30.0572 23.787 30.2034C23.426 30.3496 23.0983 30.5671 22.8233 30.843C22.5484 31.1189 22.332 31.4475 22.1871 31.809C22.0422 32.1705 21.9717 32.5575 21.9799 32.9469V33.1912L21.4299 33.1098C21.4761 31.399 20.9285 29.725 19.8801 28.3723Z" />
</g>
<defs>
<clipPath id="clip0_1486_11205">
<rect width="47.9993" height="47.9993" fill="white" transform="matrix(-1 0 0 1 47.999 0)"/>
</clipPath>
</defs>
</svg>
