<svg   viewBox="0 0 48 48" fill="none" xmlns="http://www.w3.org/2000/svg">
<path d="M46.352 19.5231L37.8132 9.57437C37.5316 9.23797 37.1797 8.96742 36.7822 8.78179C36.3847 8.59616 35.9513 8.49997 35.5126 8.5H4.71387C3.91822 8.5 3.15516 8.81607 2.59255 9.37868C2.02994 9.94129 1.71387 10.7044 1.71387 11.5V32.5C1.71387 33.2956 2.02994 34.0587 2.59255 34.6213C3.15516 35.1839 3.91822 35.5 4.71387 35.5H7.90137C8.23182 36.7906 8.98242 37.9346 10.0348 38.7515C11.0872 39.5684 12.3816 40.0118 13.7139 40.0118C15.0461 40.0118 16.3405 39.5684 17.3929 38.7515C18.4453 37.9346 19.1959 36.7906 19.5264 35.5H28.9014C29.2318 36.7906 29.9824 37.9346 31.0348 38.7515C32.0872 39.5684 33.3816 40.0118 34.7139 40.0118C36.0461 40.0118 37.3405 39.5684 38.3929 38.7515C39.4453 37.9346 40.1959 36.7906 40.5264 35.5H43.7139C44.5095 35.5 45.2726 35.1839 45.8352 34.6213C46.3978 34.0587 46.7139 33.2956 46.7139 32.5V20.5C46.7138 20.1416 46.5854 19.7951 46.352 19.5231ZM41.9495 19H31.7139V11.5H35.5126L41.9495 19ZM18.2139 19V11.5H28.7139V19H18.2139ZM15.2139 11.5V19H4.71387V11.5H15.2139ZM13.7139 37C13.1205 37 12.5405 36.8241 12.0472 36.4944C11.5538 36.1648 11.1693 35.6962 10.9422 35.1481C10.7152 34.5999 10.6558 33.9967 10.7715 33.4147C10.8873 32.8328 11.173 32.2982 11.5925 31.8787C12.0121 31.4591 12.5467 31.1734 13.1286 31.0576C13.7105 30.9419 14.3137 31.0013 14.8619 31.2284C15.4101 31.4554 15.8786 31.8399 16.2083 32.3333C16.5379 32.8266 16.7139 33.4067 16.7139 34C16.7139 34.7956 16.3978 35.5587 15.8352 36.1213C15.2726 36.6839 14.5095 37 13.7139 37ZM34.7139 37C34.1205 37 33.5405 36.8241 33.0472 36.4944C32.5538 36.1648 32.1693 35.6962 31.9422 35.1481C31.7152 34.5999 31.6558 33.9967 31.7715 33.4147C31.8873 32.8328 32.173 32.2982 32.5925 31.8787C33.0121 31.4591 33.5467 31.1734 34.1286 31.0576C34.7105 30.9419 35.3137 31.0013 35.8619 31.2284C36.4101 31.4554 36.8786 31.8399 37.2083 32.3333C37.5379 32.8266 37.7139 33.4067 37.7139 34C37.7139 34.7956 37.3978 35.5587 36.8352 36.1213C36.2726 36.6839 35.5095 37 34.7139 37ZM40.5264 32.5C40.1959 31.2094 39.4453 30.0654 38.3929 29.2485C37.3405 28.4316 36.0461 27.9882 34.7139 27.9882C33.3816 27.9882 32.0872 28.4316 31.0348 29.2485C29.9824 30.0654 29.2318 31.2094 28.9014 32.5H19.5264C19.1959 31.2094 18.4453 30.0654 17.3929 29.2485C16.3405 28.4316 15.0461 27.9882 13.7139 27.9882C12.3816 27.9882 11.0872 28.4316 10.0348 29.2485C8.98242 30.0654 8.23182 31.2094 7.90137 32.5H4.71387V22H43.7139V32.5H40.5264Z" />
</svg>
