<svg width="48" height="48" viewBox="0 0 48 48" fill="none" xmlns="http://www.w3.org/2000/svg">
<g clip-path="url(#clip0_1512_11973)">
<path d="M45.9495 22.66C45.8495 21.87 45.7695 21.01 45.6095 20.19C45.0426 16.8941 43.7249 13.7729 41.7585 11.0678C39.7921 8.36266 37.2297 6.14624 34.2695 4.59C31.6085 3.12969 28.6588 2.27276 25.6295 2.08C25.5409 2.06957 25.4537 2.04945 25.3695 2.02H25.3095H22.6495L22.7195 2.49L22.6495 2C21.8795 2.11 21.0095 2.18 20.1895 2.34L20.2795 2.81L20.1995 2.36C16.9016 2.92482 13.778 4.24155 11.071 6.2081C8.36396 8.17465 6.14616 10.7382 4.58953 13.7L5.00953 13.93L4.90953 13.87L4.58953 13.7C3.1329 16.3446 2.27597 19.2772 2.07953 22.29C2.07014 22.3951 2.05003 22.499 2.01953 22.6V22.66V25.3C2.11953 26.09 2.19953 26.95 2.35953 27.77C2.92543 31.0649 4.24158 34.1856 6.2062 36.8906C8.17081 39.5957 10.7313 41.8126 13.6895 43.37L13.9295 43L13.6895 43.42C16.3505 44.8803 19.3003 45.7372 22.3295 45.93C22.4142 45.9441 22.4977 45.9642 22.5795 45.99H22.6495H25.2995C26.0895 45.88 26.9495 45.8 27.7695 45.64C31.0682 45.0698 34.1913 43.7476 36.8966 41.7758C39.6019 39.8041 41.8168 37.2357 43.3695 34.27L42.9995 34.06L43.4195 34.29C44.8764 31.6419 45.7332 28.706 45.9295 25.69C45.9398 25.5883 45.9599 25.4878 45.9895 25.39V25.33V22.68L45.9495 22.66ZM42.5295 24C42.5243 26.4351 42.0391 28.8453 41.1018 31.0927C40.1645 33.3402 38.7934 35.3809 37.0669 37.0981C35.3404 38.8153 33.2923 40.1754 31.0398 41.1006C28.7874 42.0257 26.3746 42.4979 23.9395 42.49C19.0536 42.4558 14.3788 40.4942 10.9313 37.0318C7.48387 33.5693 5.54259 28.886 5.52953 24C5.53215 19.0976 7.47734 14.3961 10.9391 10.9249C14.4009 7.45377 19.0972 5.49587 23.9995 5.48C28.9123 5.48 33.6239 7.43089 37.0987 10.9038C40.5734 14.3767 42.5269 19.0873 42.5295 24Z"/>
<path d="M10.1504 24C10.1688 27.657 11.6297 31.1589 14.2156 33.7448C16.8015 36.3307 20.3034 37.7916 23.9604 37.81C27.6251 37.8047 31.1388 36.3493 33.7339 33.7618C36.329 31.1742 37.7945 27.6647 37.8104 24C37.8052 20.3387 36.3525 16.828 33.7692 14.2335C31.186 11.639 27.6816 10.1711 24.0204 10.15C20.3461 10.1526 16.8228 11.612 14.2228 14.2083C11.6228 16.8045 10.1583 20.3257 10.1504 24ZM22.2204 13.8V18.49C21.924 18.6016 21.6337 18.7284 21.3504 18.87C20.9959 19.0484 20.6608 19.2628 20.3504 19.51L20.0804 19.72L19.7704 19.55L16.0304 17.39C17.5972 15.4906 19.7937 14.2167 22.2204 13.8ZM33.6704 27.57L29.6704 25.24C29.8553 24.4338 29.8553 23.5962 29.6704 22.79C31.0037 22.01 32.3571 21.2267 33.7304 20.44C34.5608 22.7479 34.5395 25.2764 33.6704 27.57ZM25.7404 34.16V29.54L27.9304 28.27L31.9304 30.58C30.3602 32.4736 28.1647 33.7433 25.7404 34.16ZM29.2604 18.92C28.7804 19.2 28.3304 19.48 27.8604 19.73C27.2393 19.1823 26.5152 18.7641 25.7304 18.5V13.8C28.1591 14.2187 30.3582 15.492 31.9304 17.39L29.2604 18.92ZM26.1104 24.85C25.93 25.2557 25.6389 25.6023 25.2704 25.85C24.8941 26.101 24.4527 26.2366 24.0004 26.24C23.3899 26.2408 22.8038 26 22.3704 25.57C21.9537 25.1513 21.7107 24.5904 21.6904 24C21.6871 23.5467 21.8232 23.1033 22.0804 22.73C22.3237 22.3552 22.6713 22.0597 23.0804 21.88C23.5014 21.7072 23.9639 21.6619 24.4104 21.75C24.8527 21.8375 25.2596 22.0531 25.5804 22.37C25.9022 22.6926 26.1214 23.1031 26.2104 23.55C26.3037 23.9839 26.269 24.4355 26.1104 24.85ZM20.1204 28.22L20.5804 28.56C20.7746 28.7158 20.9783 28.8595 21.1904 28.99C21.5132 29.1711 21.8472 29.3314 22.1904 29.47V34.16C19.7753 33.7408 17.5902 32.4708 16.0304 30.58L20.1204 28.22ZM15.7904 21.22C16.6304 21.7 17.4804 22.22 18.3404 22.68C18.1338 23.4904 18.1338 24.3396 18.3404 25.15L14.2904 27.57C13.4308 25.2573 13.4308 22.7127 14.2904 20.4L15.7904 21.22Z"/>
<path d="M20.3604 19.5L20.6504 19.88L20.3604 19.5Z"/>
</g>
<defs>
<clipPath id="clip0_1512_11973">
<rect width="43.96" height="43.95" fill="white" transform="translate(2 2)"/>
</clipPath>
</defs>
</svg>
