<svg   viewBox="0 0 48 48" fill="none" xmlns="http://www.w3.org/2000/svg">
<g clip-path="url(#clip0_453_5287)">
<path d="M34.0518 20.0694C34.6424 19.4885 34.6503 18.5388 34.0694 17.9482C33.4885 17.3576 32.5388 17.3497 31.9482 17.9306L21.8158 27.8961L17.0518 23.2106C16.4612 22.6297 15.5115 22.6376 14.9306 23.2282C14.3497 23.8188 14.3576 24.7685 14.9482 25.3494L20.764 31.0694C21.3477 31.6435 22.2839 31.6435 22.8676 31.0694L34.0518 20.0694Z" />
<path fill-rule="evenodd" clip-rule="evenodd" d="M0 24C0 10.7452 10.7452 0 24 0C37.2548 0 48 10.7452 48 24C48 37.2548 37.2548 48 24 48C10.7452 48 0 37.2548 0 24ZM24 45C12.402 45 3 35.598 3 24C3 12.402 12.402 3 24 3C35.598 3 45 12.402 45 24C45 35.598 35.598 45 24 45Z" />
</g>
<defs>
<clipPath id="clip0_453_5287">
<rect width="48" height="48"  transform="matrix(-1 0 0 1 48 0)"/>
</clipPath>
</defs>
</svg>
