<svg width="48" height="48" viewBox="0 0 48 48" fill="none" xmlns="http://www.w3.org/2000/svg">
<g clip-path="url(#clip0_1486_11180)">
<path d="M46.6422 25.6367L47.037 25.9993C47.1284 25.9003 47.1791 25.7705 47.179 25.6358V24.9323C47.1781 24.8134 47.1382 24.6979 47.0654 24.6038C46.717 24.1579 46.3411 23.6315 45.9397 23.1667C43.1639 19.9478 39.75 17.5942 35.9611 15.7983C32.3882 14.1036 28.6287 13.0575 24.7481 12.4468C24.357 12.372 23.9539 12.3885 23.5703 12.4951C23.1797 12.6253 22.8444 12.8835 22.6189 13.2279C22.6039 13.2339 22.5883 13.2383 22.5725 13.2412H22.5516H22.5393C21.2906 13.2525 20.0409 13.2525 18.7893 13.2525C16.9706 13.2525 15.5326 14.6527 15.5382 16.4487C15.5439 18.1661 16.9044 19.8796 18.7742 19.9071L19.2693 19.9497L19.2011 20.3218C18.2999 20.3218 17.3919 20.3113 16.4897 20.3341H16.484L16.3988 20.3397C15.5231 20.3397 13.5813 20.3397 11.6396 20.3492C10.4287 20.3558 9.21597 20.3681 8.26356 20.388C7.79019 20.3984 7.37268 20.4108 7.05363 20.4259C6.81598 20.4309 6.579 20.4531 6.34453 20.4922L6.46287 21.0167L6.33885 20.495C4.11214 21.0299 2.63239 23.0095 2.62009 25.277V27.3531C2.51216 27.3654 2.40991 27.3778 2.30672 27.3882L2.35974 27.9193L2.30577 27.3853C1.90246 27.426 1.49442 27.5359 1.20662 27.8587C0.91881 28.1815 0.852539 28.5981 0.852539 29.009V33.914C0.852539 34.3542 0.932065 34.8086 1.26153 35.1343C1.59099 35.46 2.04353 35.5348 2.48565 35.5348C13.1799 35.5398 23.8742 35.5398 34.5685 35.5348C36.8596 35.5348 38.9055 34.7414 40.5064 33.0733C42.7303 30.7547 44.8746 28.351 47.0389 25.9974L46.6422 25.6367ZM38.7426 30.8163C37.5782 32.0811 36.142 32.7031 34.4303 32.7031H3.70126V30.1403L42.2465 27.0085C41.0789 28.2778 39.9112 29.547 38.7436 30.8163L39.0844 31.1306L39.0409 31.0899L38.7426 30.8163ZM22.9199 17.5838C22.837 17.5647 22.7552 17.5413 22.6747 17.5138C22.5639 17.4787 22.4276 17.438 22.2392 17.3973C21.4648 17.2307 19.879 17.171 18.7675 17.171C18.7428 17.1712 18.7184 17.1658 18.6961 17.1551C18.6738 17.1445 18.6542 17.1289 18.6388 17.1095C18.5489 17.006 18.4781 16.8874 18.4296 16.7592C18.4296 16.7592 18.4296 16.7507 18.4229 16.7318C18.4163 16.7128 18.4116 16.6712 18.4068 16.6323C18.3993 16.5733 18.397 16.5138 18.4002 16.4544C18.4058 16.3905 18.4166 16.3272 18.4324 16.265C18.4382 16.2376 18.4461 16.2107 18.4561 16.1845C18.4949 16.1363 18.529 16.0899 18.5564 16.0539L18.6369 15.9479L18.6483 15.9346L18.6738 15.927C18.7145 15.9147 18.7685 15.9024 18.8206 15.8911C18.8726 15.8797 18.9285 15.8702 18.973 15.8645C19.0175 15.8589 19.0421 15.8579 19.0374 15.857H19.0563C20.4433 15.8352 21.5623 15.9072 22.9852 15.9176C23.0412 15.9263 23.0947 15.9466 23.1424 15.9772C23.1545 15.9857 23.1671 15.9933 23.1803 15.9999C23.4898 16.1694 23.8004 16.318 24.0958 16.4591C24.3911 16.6002 24.678 16.7374 24.9535 16.887C25.229 17.0366 25.5869 17.207 25.9334 17.2174C26.1324 17.2254 26.3295 17.1761 26.5014 17.0754C26.6747 16.9698 26.8186 16.8224 26.9199 16.6465C27.0813 16.399 27.1535 16.1038 27.1243 15.8096C29.8343 16.3995 32.4674 17.2991 34.9718 18.4908C33.4725 18.8748 32.0102 19.3906 30.6017 20.0321L30.81 20.4884L30.8242 20.5196L30.6017 20.0321C30.0687 20.2744 29.4438 20.5329 28.8853 20.8841H28.8786C28.3889 21.2022 27.7978 21.3252 27.2219 21.2287H27.2067C25.5149 20.9996 23.8108 20.8273 22.065 20.638L22.1767 20.1513C22.3661 20.2148 22.5554 20.265 22.7268 20.3095C23.0716 20.3837 23.411 20.4811 23.7426 20.601H23.7511C24.0002 20.695 24.2669 20.7329 24.5322 20.7118C24.8143 20.6993 25.0813 20.581 25.2801 20.3805C25.393 20.269 25.4887 20.1414 25.5641 20.0018C25.6313 19.8379 25.6635 19.6619 25.6588 19.4848V19.4527C25.6473 19.2518 25.5862 19.0569 25.481 18.8854C25.3757 18.7139 25.2296 18.5712 25.0557 18.47C24.358 18.025 23.7511 17.8328 22.9654 17.5952C22.9474 17.5904 22.9341 17.5876 22.9199 17.5838ZM38.5798 20.247L38.6234 20.7809H38.629C38.832 20.7612 39.035 20.8191 39.1971 20.9428L39.2151 20.9561C40.5414 21.8814 41.7776 22.9297 42.9073 24.0869L36.1495 24.6407C35.7822 23.7253 35.2322 23.0247 34.5089 22.539C34.1578 22.3062 33.7752 22.1248 33.3728 22.0003C35.0769 21.3651 36.816 20.9258 38.6205 20.7809L38.577 20.247H38.5798ZM5.52845 24.9039C5.65058 23.9089 6.47518 23.2083 7.55256 23.1667H9.06733H12.1527C13.8161 23.1667 15.5079 23.1667 16.3184 23.1667C16.3666 23.1667 16.413 23.1667 16.4641 23.1667C16.5484 23.1667 16.6327 23.1667 16.7169 23.1667H16.7491C18.3586 23.1317 19.9566 23.267 21.5774 23.4621C23.5807 23.7035 25.5869 23.9146 27.5892 24.138L27.6479 23.6154V23.605L27.5882 24.138C29.175 24.3151 30.7456 24.4732 32.3124 24.6777C32.5247 24.7025 32.7275 24.78 32.9023 24.903L5.50383 27.1221C5.48395 26.3184 5.44419 25.6187 5.52845 24.9039Z" />
</g>
<defs>
<clipPath id="clip0_1486_11180">
<rect width="47.9993" height="47.9993" fill="white"/>
</clipPath>
</defs>
</svg>
