<svg width="48" height="48" viewBox="0 0 48 48" fill="none" xmlns="http://www.w3.org/2000/svg">
<g clip-path="url(#clip0_1479_11099)">
<path fill-rule="evenodd" clip-rule="evenodd" d="M9.28115 9.99119C8.99876 10.0671 8.57673 10.2409 8.3433 10.3775C8.10996 10.5141 7.69656 10.836 7.42467 11.0929C7.15279 11.3498 6.8086 11.7745 6.65976 12.0368C6.51083 12.2991 6.32186 12.7429 6.23961 13.0232C6.1386 13.3676 6.09021 13.9064 6.09021 14.6879C6.09021 15.8431 6.09021 15.8431 5.11822 15.8431C4.58374 15.8431 3.91899 15.8852 3.64111 15.9368C3.36332 15.9883 2.83803 16.1766 2.47377 16.3552C2.02641 16.5745 1.63749 16.8623 1.27473 17.2426C0.966079 17.5663 0.619637 18.0583 0.459546 18.4003C0.294391 18.7533 0.144335 19.279 0.0905963 19.6934C0.0407965 20.0775 0 22.0165 0 24.0024C0 25.9883 0.0407965 27.9273 0.0905963 28.3113C0.144335 28.7258 0.294391 29.2514 0.459546 29.6044C0.619637 29.9465 0.966079 30.4385 1.27473 30.7621C1.63749 31.1424 2.02641 31.4303 2.47377 31.6496C2.83803 31.8282 3.36332 32.0165 3.64111 32.068C3.91899 32.1196 4.91527 32.1617 5.85509 32.1617C7.56385 32.1617 7.56385 32.1617 7.62444 32.8142C7.65782 33.1731 7.79109 33.8023 7.92061 34.2124C8.05013 34.6224 8.32557 35.2116 8.53265 35.5216C8.73963 35.8317 9.16345 36.3209 9.47425 36.6086C9.82604 36.9343 10.3298 37.2701 10.8081 37.4977C11.2308 37.6987 11.8087 37.9185 12.0924 37.9858C12.3761 38.0532 13.0092 38.1057 13.4992 38.1026C14.0258 38.0992 14.6362 38.0312 14.9918 37.9363C15.3227 37.848 15.8634 37.644 16.1934 37.4831C16.5233 37.3222 17.0721 36.9351 17.4128 36.6229C17.7535 36.3107 18.1724 35.8362 18.3438 35.5683C18.5151 35.3005 18.7442 34.857 18.8528 34.5828C18.9615 34.3086 19.1217 33.7551 19.2088 33.3527C19.3673 32.6212 19.3673 32.6212 19.7786 33.0125C20.0049 33.2277 20.3291 33.462 20.4992 33.533C20.7504 33.638 21.883 33.6622 26.5353 33.6622C31.2258 33.6622 32.3169 33.6386 32.564 33.5315C32.73 33.4596 33.2448 33.0164 33.7079 32.5468C34.1711 32.0771 34.5768 31.6928 34.6096 31.6928C34.6423 31.6928 34.6916 32.0832 34.7193 32.5603C34.747 33.041 34.8562 33.6996 34.9641 34.0374C35.0711 34.3727 35.3179 34.9177 35.5128 35.2487C35.7076 35.5797 36.1237 36.1072 36.4375 36.421C36.7513 36.7348 37.2789 37.1509 37.6098 37.3457C37.9408 37.5406 38.4859 37.7877 38.8212 37.8951C39.1779 38.0093 39.8003 38.1094 40.3217 38.1365C40.9596 38.1697 41.3991 38.1392 41.8692 38.029C42.2302 37.9443 42.8422 37.7196 43.2291 37.5296C43.7388 37.2794 44.1269 36.99 44.6385 36.4784C45.1402 35.9769 45.4569 35.5552 45.7324 35.0221C45.9457 34.6095 46.1891 34.0051 46.2732 33.6791C46.3616 33.3371 46.4256 32.7223 46.4247 32.2255C46.4238 31.7519 46.359 31.1215 46.2807 30.8246C46.2025 30.5277 46.0134 30.0371 45.8607 29.7344C45.5829 29.1841 45.5829 29.1841 46.3326 29.1408C46.8894 29.1085 47.1477 29.0486 47.3362 28.9081C47.4758 28.8041 47.6745 28.5756 47.7776 28.4004C47.9484 28.1105 47.9678 27.8822 47.9948 25.847C48.0112 24.6179 47.9814 23.2602 47.9288 22.83C47.8676 22.3295 47.7321 21.825 47.5526 21.4292C47.3819 21.0528 47.0668 20.5954 46.7475 20.2606C46.4589 19.958 45.9721 19.5769 45.6656 19.4135C45.3592 19.2502 44.8227 19.056 44.4736 18.982C43.9682 18.8749 42.8202 18.8471 38.8455 18.8458L33.8522 18.8442L31.6709 14.5113C29.675 10.5467 29.4618 10.1641 29.1628 10.0097C28.8542 9.85024 28.3063 9.84123 19.3154 9.84705C11.2438 9.8523 9.71659 9.87424 9.28115 9.99119ZM18.0947 16.4527V20.3448H13.4523H8.80997V17.1153C8.80997 15.0616 8.84627 13.7897 8.90976 13.6218C8.96462 13.4766 9.12284 13.2366 9.26145 13.0884C9.39997 12.9404 9.63997 12.7626 9.79471 12.6935C10.0151 12.5951 10.9446 12.5672 14.0854 12.5643L18.0947 12.5606V16.4527ZM29.4718 16.0881C30.4415 18.0282 31.222 19.6269 31.2062 19.6409C31.1905 19.6549 30.8728 19.8189 30.5001 20.0056C29.8225 20.3448 29.8225 20.3448 25.3185 20.3448H20.8144V16.4527V12.5606H24.2616H27.7088L29.4718 16.0881ZM6.09021 24.0024V29.4419H5.16633C4.65821 29.4419 4.09906 29.394 3.92368 29.3354C3.7484 29.2768 3.48505 29.1185 3.33865 28.9837C3.19216 28.8488 3.01284 28.6246 2.94006 28.4853C2.83184 28.2782 2.80773 27.4609 2.80773 24.0024C2.80773 20.5439 2.83184 19.7265 2.94006 19.5195C3.01284 19.3802 3.19216 19.1555 3.33865 19.0201C3.48505 18.8846 3.73152 18.7297 3.88626 18.6758C4.04101 18.6218 4.60015 18.5743 5.12891 18.5703L6.09021 18.5629V24.0024ZM43.9999 21.6619C44.1917 21.7152 44.4781 21.8677 44.6363 22.0008C44.7945 22.1339 44.9857 22.3623 45.0612 22.5083C45.1681 22.7149 45.1985 23.181 45.1985 24.6073V26.4408H40.6584C36.1183 26.4408 36.1183 26.4408 35.6644 26.8066C35.4147 27.0076 34.3667 28.0205 33.3356 29.0574L31.4608 30.9425H26.542H21.6232L19.4098 28.7465C17.6006 26.9515 17.1371 26.5396 16.8718 26.4909C16.6933 26.4581 15.04 26.444 13.1979 26.4595C9.84855 26.4877 9.84855 26.4877 9.39641 26.9332C9.14769 27.1782 8.91398 27.3786 8.87712 27.3786C8.84017 27.3786 8.80997 26.408 8.80997 25.2216V23.0645H19.6321C30.4543 23.0645 30.4543 23.0645 31.9414 22.3204C33.4285 21.5763 33.4285 21.5763 38.5398 21.5706C41.7858 21.5671 43.7784 21.6004 43.9999 21.6619ZM14.8141 29.4592C15.0968 29.5903 15.4921 29.8616 15.6926 30.0621C15.8931 30.2626 16.1674 30.6588 16.3022 30.9425C16.51 31.38 16.5472 31.5864 16.5472 32.3024C16.5472 32.9888 16.5077 33.2265 16.3357 33.5756C16.2195 33.8115 15.98 34.1733 15.8036 34.3793C15.6273 34.5854 15.216 34.8976 14.8897 35.0731C14.3494 35.3639 14.225 35.3926 13.4975 35.3948C12.7811 35.397 12.634 35.3654 12.0713 35.0885C11.7 34.9058 11.3104 34.6239 11.117 34.3979C10.9372 34.1879 10.6933 33.8204 10.5749 33.5812C10.3979 33.2235 10.3601 32.9966 10.3621 32.3024C10.3639 31.6487 10.4088 31.3606 10.5614 31.0248C10.6697 30.7863 10.9149 30.418 11.1062 30.2062C11.2975 29.9944 11.6008 29.7305 11.7802 29.6195C11.9596 29.5087 12.2825 29.3604 12.498 29.29C12.7326 29.2134 13.1724 29.1738 13.5949 29.1914C14.1066 29.2128 14.4411 29.2862 14.8141 29.4592ZM41.8532 29.424C42.1023 29.5349 42.4647 29.7511 42.6585 29.9046C42.8522 30.0581 43.1524 30.4494 43.3256 30.774C43.5892 31.2688 43.6464 31.4861 43.6782 32.1148C43.7088 32.7192 43.677 32.9691 43.5144 33.3998C43.4024 33.697 43.1256 34.1427 42.8913 34.4032C42.6465 34.6756 42.2458 34.9818 41.9351 35.1341C41.4772 35.3585 41.2853 35.3963 40.6014 35.3968C39.8867 35.3972 39.7363 35.3646 39.1736 35.0878C38.7706 34.8895 38.4266 34.6341 38.2158 34.377C38.0349 34.1562 37.8044 33.789 37.7037 33.561C37.603 33.333 37.4921 32.932 37.4575 32.67C37.4224 32.4043 37.4419 31.9654 37.5016 31.6776C37.5605 31.3938 37.6958 30.9962 37.8023 30.7941C37.9087 30.592 38.1288 30.2867 38.2913 30.1157C38.4538 29.9446 38.727 29.7176 38.8984 29.6114C39.0699 29.505 39.3864 29.3604 39.6018 29.29C39.8374 29.213 40.2738 29.1741 40.6969 29.1923C41.1579 29.2121 41.5563 29.292 41.8532 29.424Z" />
</g>
<defs>
<clipPath id="clip0_1479_11099">
<rect width="47.9993" height="47.9993" fill="white"/>
</clipPath>
</defs>
</svg>
