<svg   viewBox="0 0 48 48" fill="none" xmlns="http://www.w3.org/2000/svg">
<path fill-rule="evenodd" clip-rule="evenodd" d="M38.85 37.2002C37.5371 37.2002 36.278 36.6787 35.3497 35.7503C34.4214 34.822 33.8999 33.563 33.8999 32.2501C33.8999 30.9373 34.4214 29.6782 35.3497 28.7499C36.278 27.8216 37.5371 27.3001 38.85 27.3001C40.1628 27.3001 41.4219 27.8216 42.3502 28.7499C43.2785 29.6782 43.8 30.9373 43.8 32.2501C43.8 33.563 43.2785 34.822 42.3502 35.7503C41.4219 36.6787 40.1628 37.2002 38.85 37.2002ZM38.85 39.4002C36.9536 39.4002 35.135 38.6469 33.7941 37.306C32.4532 35.9651 31.6999 34.1464 31.6999 32.2501C31.6999 30.3538 32.4532 28.5352 33.7941 27.1943C35.135 25.8533 36.9536 25.1 38.85 25.1C40.7463 25.1 42.5649 25.8533 43.9058 27.1943C45.2467 28.5352 46 30.3538 46 32.2501C46 34.1464 45.2467 35.9651 43.9058 37.306C42.5649 38.6469 40.7463 39.4002 38.85 39.4002Z" />
<path fill-rule="evenodd" clip-rule="evenodd" d="M38.85 25.4C37.0332 25.4 35.2908 26.1217 34.0062 27.4064C32.7216 28.691 31.9999 30.4334 31.9999 32.2501C31.9999 34.0669 32.7216 35.8092 34.0062 37.0939C35.2908 38.3785 37.0332 39.1002 38.85 39.1002C40.6667 39.1002 42.4091 38.3785 43.6937 37.0939C44.9783 35.8092 45.7 34.0669 45.7 32.2501C45.7 30.4334 44.9783 28.691 43.6937 27.4064C42.4091 26.1217 40.6667 25.4 38.85 25.4ZM33.5819 26.9821C34.9791 25.585 36.8741 24.8 38.85 24.8C40.8258 24.8 42.7208 25.585 44.118 26.9821C45.5151 28.3793 46.3 30.2742 46.3 32.2501C46.3 34.226 45.5151 36.121 44.118 37.5181C42.7208 38.9153 40.8258 39.7002 38.85 39.7002C36.8741 39.7002 34.9791 38.9153 33.5819 37.5181C32.1848 36.121 31.3999 34.226 31.3999 32.2501C31.3999 30.2742 32.1848 28.3793 33.5819 26.9821ZM38.85 27.6001C37.6167 27.6001 36.4339 28.09 35.5619 28.962C34.6898 29.8341 34.1999 31.0169 34.1999 32.2501C34.1999 33.4834 34.6898 34.6662 35.5619 35.5382C36.4339 36.4103 37.6167 36.9002 38.85 36.9002C40.0832 36.9002 41.266 36.4103 42.138 35.5382C43.0101 34.6662 43.5 33.4834 43.5 32.2501C43.5 31.0169 43.0101 29.8341 42.138 28.962C41.266 28.09 40.0832 27.6001 38.85 27.6001ZM35.1376 28.5378C36.1222 27.5532 37.4576 27.0001 38.85 27.0001C40.2424 27.0001 41.5777 27.5532 42.5623 28.5378C43.5469 29.5224 44.1 30.8577 44.1 32.2501C44.1 33.6425 43.5469 34.9779 42.5623 35.9625C41.5777 36.9471 40.2424 37.5002 38.85 37.5002C37.4576 37.5002 36.1222 36.9471 35.1376 35.9625C34.153 34.9779 33.5999 33.6425 33.5999 32.2501C33.5999 30.8577 34.153 29.5224 35.1376 28.5378Z" />
<path fill-rule="evenodd" clip-rule="evenodd" d="M29.3973 9.23781C29.3091 9.04738 29.1684 8.88613 28.9916 8.77309C28.8148 8.66004 28.6094 8.59991 28.3995 8.5998H23.9995C23.392 8.5998 22.8995 9.0923 22.8995 9.69982L-nan -nanL22.8995 9.69982C22.8995 10.3073 23.392 10.7998 23.9995 10.7998H27.6966L37.852 32.7121C37.98 32.9677 38.2026 33.1634 38.4724 33.2577C38.7423 33.3521 39.0382 33.3376 39.2977 33.2175C39.5571 33.0974 39.7595 32.881 39.8621 32.6142C39.9647 32.3474 39.9595 32.0511 39.8474 31.7881L29.3973 9.23781ZM9.14931 37.2002C7.83647 37.2002 6.5774 36.6786 5.64909 35.7503C4.72077 34.822 4.19925 33.5629 4.19925 32.2501C4.19925 30.9373 4.72077 29.6782 5.64909 28.7499C6.5774 27.8216 7.83647 27.3 9.14931 27.3C10.4621 27.3 11.7212 27.8216 12.6495 28.7499C13.5778 29.6782 14.0994 30.9373 14.0994 32.2501C14.0994 33.5629 13.5778 34.822 12.6495 35.7503C11.7212 36.6786 10.4621 37.2002 9.14931 37.2002ZM9.14931 39.4002C7.25299 39.4002 5.43433 38.6469 4.09343 37.306C2.75253 35.9651 1.99922 34.1464 1.99922 32.2501C1.99922 30.3538 2.75253 28.5351 4.09343 27.1942C5.43433 25.8533 7.25299 25.1 9.14931 25.1C11.0456 25.1 12.8643 25.8533 14.2052 27.1942C15.5461 28.5351 16.2994 30.3538 16.2994 32.2501C16.2994 34.1464 15.5461 35.9651 14.2052 37.306C12.8643 38.6469 11.0456 39.4002 9.14931 39.4002Z" />
<path fill-rule="evenodd" clip-rule="evenodd" d="M22.5995 9.69982C22.5995 8.92661 23.2263 8.2998 23.9995 8.2998H28.3995C28.6666 8.29994 28.9282 8.37647 29.1532 8.52034C29.3782 8.66422 29.5574 8.86945 29.6695 9.11181L40.1235 31.6704C40.2661 32.0051 40.2727 32.3823 40.1421 32.7219C40.0115 33.0615 39.7539 33.3369 39.4237 33.4897C39.0936 33.6426 38.7169 33.661 38.3734 33.5409C38.03 33.4208 37.7467 33.1718 37.5838 32.8465L37.5797 32.8383L27.505 11.0998H23.9995C23.2263 11.0998 22.5995 10.473 22.5995 9.69982ZM23.9995 8.8998C23.5577 8.8998 23.1995 9.25798 23.1995 9.69982C23.1995 10.1417 23.5577 10.4998 23.9995 10.4998H27.8883L38.1221 32.5815C38.2155 32.7655 38.3765 32.9064 38.5714 32.9745C38.7677 33.0431 38.9829 33.0326 39.1716 32.9453C39.3603 32.8579 39.5075 32.7005 39.5821 32.5065C39.6562 32.3138 39.653 32.0999 39.5731 31.9096L29.1251 9.36395C29.061 9.22546 28.9585 9.10804 28.83 9.02583C28.7014 8.94364 28.5521 8.89991 28.3995 8.8998H23.9995ZM9.14931 25.4C7.33255 25.4 5.5902 26.1217 4.30556 27.4064C3.02092 28.691 2.29922 30.4333 2.29922 32.2501C2.29922 34.0669 3.02092 35.8092 4.30556 37.0938C5.5902 38.3785 7.33255 39.1002 9.14931 39.1002C10.9661 39.1002 12.7084 38.3785 13.9931 37.0938C15.2777 35.8092 15.9994 34.0669 15.9994 32.2501C15.9994 30.4333 15.2777 28.691 13.9931 27.4064C12.7084 26.1217 10.9661 25.4 9.14931 25.4ZM3.8813 26.9821C5.27846 25.5849 7.17342 24.8 9.14931 24.8C11.1252 24.8 13.0202 25.5849 14.4173 26.9821C15.8145 28.3793 16.5994 30.2742 16.5994 32.2501C16.5994 34.226 15.8145 36.1209 14.4173 37.5181C13.0202 38.9153 11.1252 39.7002 9.14931 39.7002C7.17342 39.7002 5.27846 38.9153 3.8813 37.5181C2.48414 36.1209 1.69922 34.226 1.69922 32.2501C1.69922 30.2742 2.48414 28.3793 3.8813 26.9821ZM9.14931 27.6C7.91604 27.6 6.73327 28.09 5.86122 28.962C4.98916 29.8341 4.49925 31.0168 4.49925 32.2501C4.49925 33.4834 4.98916 34.6661 5.86122 35.5382C6.73327 36.4102 7.91604 36.9002 9.14931 36.9002C10.3826 36.9002 11.5653 36.4102 12.4374 35.5382C13.3095 34.6661 13.7994 33.4834 13.7994 32.2501C13.7994 31.0168 13.3095 29.8341 12.4374 28.962C11.5653 28.09 10.3826 27.6 9.14931 27.6ZM5.43695 28.5377C6.42153 27.5532 7.75691 27 9.14931 27C10.5417 27 11.8771 27.5532 12.8617 28.5377C13.8462 29.5223 14.3994 30.8577 14.3994 32.2501C14.3994 33.6425 13.8462 34.9779 12.8617 35.9625C11.8771 36.947 10.5417 37.5002 9.14931 37.5002C7.75691 37.5002 6.42153 36.947 5.43695 35.9625C4.45238 34.9779 3.89925 33.6425 3.89925 32.2501C3.89925 30.8577 4.45238 29.5223 5.43695 28.5377Z" />
<path fill-rule="evenodd" clip-rule="evenodd" d="M21.2499 32.2501C21.2499 32.5418 21.134 32.8216 20.9277 33.0279C20.7214 33.2342 20.4416 33.3501 20.1499 33.3501H9.14971C8.85797 33.3501 8.57818 33.2342 8.37189 33.0279C8.16559 32.8216 8.0497 32.5418 8.0497 32.2501C8.0497 31.9583 8.16559 31.6785 8.37189 31.4723C8.57818 31.266 8.85797 31.1501 9.14971 31.1501H20.1499C20.4416 31.1501 20.7214 31.266 20.9277 31.4723C21.134 31.6785 21.2499 31.9583 21.2499 32.2501ZM31.7 15.1999H22.8812C21.8024 15.1997 20.7308 15.3758 19.7087 15.7213L14.8467 17.3658C14.6842 17.4208 14.5369 17.5131 14.4164 17.6352C14.2959 17.7573 14.2057 17.9059 14.1529 18.0691C14.1001 18.2323 14.0862 18.4056 14.1123 18.5751C14.1384 18.7447 14.2038 18.9058 14.3033 19.0455L19.0707 25.738C19.1724 25.8808 19.3067 25.9972 19.4624 26.0775C19.6182 26.1579 19.7909 26.1999 19.9661 26.2H28.95C29.2193 26.1998 29.4792 26.1008 29.6804 25.9217L34.6304 21.5216L33.1696 19.8782L28.532 24H20.5338L16.9543 18.9762L20.4139 17.8058C21.2087 17.537 22.0421 17.3999 22.8812 17.3999H31.7V15.1999Z" />
<path fill-rule="evenodd" clip-rule="evenodd" d="M22.8812 14.8999H32V17.6999H22.8812C22.0748 17.6999 21.2738 17.8316 20.51 18.09L17.4329 19.131L20.6884 23.7H28.4179L33.1945 19.4547L35.054 21.5466L29.8798 26.1458C29.6238 26.3737 29.293 26.4997 28.9502 26.5H19.9661C19.7431 26.4999 19.5231 26.4464 19.3249 26.3442C19.1266 26.2419 18.9557 26.0937 18.8264 25.912L14.0589 19.2196C13.9323 19.0417 13.849 18.8366 13.8158 18.6208C13.7826 18.405 13.8003 18.1845 13.8675 17.9768C13.9347 17.769 14.0495 17.5799 14.2028 17.4245C14.3561 17.2691 14.5437 17.1517 14.7505 17.0816L19.6126 15.4371C20.6656 15.0811 21.7697 14.8997 22.8812 14.8999ZM19.8048 16.0055C20.7958 15.6705 21.835 15.4997 22.8811 15.4999H31.4V17.0999H22.8812C22.0094 17.0999 21.1435 17.2423 20.3177 17.5216L16.4757 18.8214L20.3791 24.3H28.646L33.1447 20.3017L34.2069 21.4967L29.4811 25.6975C29.3347 25.8277 29.1456 25.8998 28.9497 25.9H19.9663C19.8389 25.8999 19.7133 25.8694 19.6 25.8109C19.4867 25.7525 19.389 25.6678 19.3151 25.564L14.5477 18.8716C14.4754 18.7699 14.4278 18.6528 14.4088 18.5295C14.3898 18.4062 14.3999 18.2801 14.4383 18.1614C14.4767 18.0427 14.5424 17.9347 14.63 17.8459C14.7175 17.7571 14.8247 17.69 14.9428 17.65L19.8048 16.0055ZM9.14971 31.4501C8.93753 31.4501 8.73405 31.5344 8.58402 31.6844C8.43399 31.8344 8.3497 32.0379 8.3497 32.2501C8.3497 32.4623 8.43399 32.6657 8.58402 32.8158C8.73405 32.9658 8.93753 33.0501 9.14971 33.0501H20.1499C20.362 33.0501 20.5655 32.9658 20.7155 32.8158C20.8656 32.6657 20.9499 32.4623 20.9499 32.2501C20.9499 32.0379 20.8656 31.8344 20.7155 31.6844C20.5655 31.5344 20.362 31.4501 20.1499 31.4501H9.14971ZM8.15975 31.2601C8.42231 30.9976 8.77841 30.8501 9.14971 30.8501H20.1499C20.5212 30.8501 20.8773 30.9976 21.1398 31.2601C21.4024 31.5227 21.5499 31.8788 21.5499 32.2501C21.5499 32.6214 21.4024 32.9775 21.1398 33.24C20.8773 33.5026 20.5212 33.6501 20.1499 33.6501H9.14971C8.77841 33.6501 8.42231 33.5026 8.15975 33.24C7.8972 32.9775 7.7497 32.6214 7.7497 32.2501C7.7497 31.8788 7.8972 31.5227 8.15975 31.2601Z" />
<path fill-rule="evenodd" clip-rule="evenodd" d="M36.7869 12.6998C36.9865 12.6997 37.1838 12.7422 37.3656 12.8245C37.5475 12.9069 37.7096 13.0271 37.8411 13.1772L42.6537 18.6773C42.831 18.8798 42.9463 19.129 42.9856 19.3953C43.025 19.6615 42.9867 19.9335 42.8755 20.1786C42.7643 20.4236 42.5847 20.6315 42.3584 20.7771C42.1321 20.9228 41.8686 21.0002 41.5995 20.9999H32.4996V18.1999H38.5142L36.1516 15.4999H29.1996V12.6998H36.7869ZM37.1181 13.3711C37.0142 13.324 36.9015 13.2997 36.7874 13.2998H29.7996V14.8999H36.4239L39.8364 18.7999H33.0996V20.3999H41.5997C41.7535 20.4001 41.9043 20.3559 42.0337 20.2726C42.163 20.1894 42.2656 20.0706 42.3291 19.9306C42.3927 19.7905 42.4146 19.6351 42.3921 19.483C42.3696 19.3308 42.3037 19.1884 42.2024 19.0727L37.3898 13.5726C37.3147 13.4869 37.222 13.4181 37.1181 13.3711ZM2.10927 17.51C2.37183 17.2474 2.72793 17.0999 3.09923 17.0999H15.5907V19.8999H4.49925V21.0872L19.492 22.6379L19.2751 24.7333C19.9482 24.0714 20.8547 23.7 21.7995 23.7H29.7996V30.6001C29.7996 31.5549 29.4203 32.4705 28.7451 33.1457C28.07 33.8208 27.1543 34.2001 26.1995 34.2001H21.7995C20.8447 34.2001 19.929 33.8208 19.2539 33.1457C18.5787 32.4705 18.1994 31.5549 18.1994 30.6001V27.3C18.1994 26.6141 18.3952 25.9483 18.7558 25.3774L2.95506 23.7429C2.61048 23.7072 2.29134 23.545 2.05939 23.2877C1.82746 23.0305 1.69913 22.6963 1.69922 22.35V18.4999C1.69922 18.1286 1.84672 17.7725 2.10927 17.51ZM3.09923 17.6999C2.88706 17.6999 2.68357 17.7842 2.53354 17.9342C2.38351 18.0842 2.29922 18.2877 2.29922 18.4999V22.35C2.29916 22.5479 2.37249 22.739 2.50503 22.886C2.63758 23.033 2.81993 23.1257 3.01683 23.1461L18.6686 24.7652L18.8334 23.173L3.89925 21.6283V19.2999H14.9907V17.6999H3.09923ZM21.7995 24.3C21.0038 24.3 20.2407 24.6161 19.6781 25.1787C19.1155 25.7413 18.7994 26.5044 18.7994 27.3V30.6001C18.7994 31.3957 19.1155 32.1588 19.6781 32.7214C20.2407 33.284 21.0038 33.6001 21.7995 33.6001H26.1995C26.9952 33.6001 27.7583 33.284 28.3209 32.7214C28.8835 32.1588 29.1996 31.3957 29.1996 30.6001V24.3H21.7995ZM21.7995 26.5C21.5873 26.5 21.3838 26.5843 21.2338 26.7343C21.0837 26.8844 20.9995 27.0878 20.9995 27.3V30.6001C20.9995 30.8122 21.0837 31.0157 21.2338 31.1658C21.3838 31.3158 21.5873 31.4001 21.7995 31.4001H26.1995C26.4117 31.4001 26.6152 31.3158 26.7652 31.1658C26.9153 31.0157 26.9995 30.8122 26.9995 30.6001V26.5H21.7995ZM20.8095 26.3101C21.0721 26.0475 21.4282 25.9 21.7995 25.9H27.5995V30.6001C27.5995 30.9714 27.452 31.3275 27.1895 31.59C26.9269 31.8526 26.5708 32.0001 26.1995 32.0001H21.7995C21.4282 32.0001 21.0721 31.8526 20.8095 31.59C20.547 31.3275 20.3995 30.9714 20.3995 30.6001V27.3C20.3995 26.9287 20.547 26.5726 20.8095 26.3101Z" />
<path fill-rule="evenodd" clip-rule="evenodd" d="M4.19925 19.5999H15.2907V17.3999H3.09923C2.80749 17.3999 2.5277 17.5158 2.32141 17.7221C2.11511 17.9284 1.99922 18.2082 1.99922 18.4999V22.35C1.99913 22.6221 2.09996 22.8847 2.28221 23.0869C2.46446 23.289 2.71519 23.4164 2.98593 23.4445L18.9361 25.0945L19.1627 22.9055L4.19925 21.3577V19.5999ZM29.4996 24H21.7995C20.9242 24 20.0849 24.3477 19.466 24.9665C18.8471 25.5854 18.4994 26.4248 18.4994 27.3V30.6001C18.4994 31.4753 18.8471 32.3147 19.466 32.9335C20.0849 33.5524 20.9242 33.9001 21.7995 33.9001H26.1995C27.0747 33.9001 27.9141 33.5524 28.533 32.9335C29.1519 32.3147 29.4996 31.4753 29.4996 30.6001V24ZM27.2995 26.2V30.6001C27.2995 30.8918 27.1836 31.1716 26.9774 31.3779C26.7711 31.5842 26.4913 31.7001 26.1995 31.7001H21.7995C21.5077 31.7001 21.2279 31.5842 21.0216 31.3779C20.8153 31.1716 20.6995 30.8918 20.6995 30.6001V27.3C20.6995 27.0083 20.8153 26.7285 21.0216 26.5222C21.2279 26.3159 21.5077 26.2 21.7995 26.2H27.2995ZM37.6155 13.3749C37.5121 13.257 37.3847 13.1625 37.2419 13.0978C37.099 13.0331 36.944 12.9997 36.7872 12.9998H29.4996V15.1999L36.2878 15.1999L39.1753 18.4999H32.7996V20.6999H41.5997C41.8112 20.7001 42.0182 20.6393 42.196 20.5249C42.3739 20.4104 42.5149 20.2471 42.6023 20.0546C42.6897 19.862 42.7198 19.6483 42.6889 19.4391C42.6579 19.2299 42.5674 19.0341 42.428 18.875L37.6155 13.3749Z" />
</svg>
