<svg  viewBox="0 0 48 48" xmlns="http://www.w3.org/2000/svg">
<path fill-rule="evenodd" clip-rule="evenodd" d="M24 46C36.1503 46 46 36.1503 46 24C46 11.8497 36.1503 2 24 2C11.8497 2 2 11.8497 2 24C2 36.1503 11.8497 46 24 46ZM24 48C37.2548 48 48 37.2548 48 24C48 10.7452 37.2548 0 24 0C10.7452 0 0 10.7452 0 24C0 37.2548 10.7452 48 24 48Z"/>
<path fill-rule="evenodd" clip-rule="evenodd" d="M24 18C24.5523 18 25 18.4477 25 19V25.0858L28.7071 28.7929C29.0976 29.1834 29.0976 29.8166 28.7071 30.2071C28.3166 30.5976 27.6834 30.5976 27.2929 30.2071L23 25.9142V19C23 18.4477 23.4477 18 24 18Z" />
</svg>
