<svg   viewBox="0 0 72 72" fill="none" xmlns="http://www.w3.org/2000/svg">
<path fill-rule="evenodd" clip-rule="evenodd" d="M39.8186 22C39.8186 20.6193 40.9379 19.5 42.3186 19.5H51.6912C53.2428 19.5 54.6849 20.2993 55.5072 21.615L60.3228 29.3199L67.0914 31.0121C69.0947 31.5129 70.5 33.3128 70.5 35.3777V39.8584C70.5 41.2391 69.3807 42.3584 68 42.3584H60.1124C60.9644 43.4347 61.473 44.7951 61.473 46.2743C61.473 49.7615 58.6461 52.5885 55.1589 52.5885C51.6717 52.5885 48.8447 49.7615 48.8447 46.2743C48.8447 44.7951 49.3534 43.4347 50.2053 42.3584H19.9894C20.8413 43.4347 21.35 44.7951 21.35 46.2743C21.35 49.7615 18.5231 52.5885 15.0358 52.5885C11.5486 52.5885 8.72168 49.7615 8.72168 46.2743C8.72168 44.7951 9.23034 43.4347 10.0823 42.3584H3C2.17157 42.3584 1.5 41.6868 1.5 40.8584C1.5 40.03 2.17157 39.3584 3 39.3584H39.8186V22ZM42.8186 39.3584H67.5V35.3777C67.5 34.6894 67.0316 34.0895 66.3638 33.9225L59.3994 32.1814C58.7715 32.0244 58.2288 31.63 57.8858 31.0811L52.9632 23.205C52.6891 22.7664 52.2084 22.5 51.6912 22.5H42.8186V39.3584ZM55.1589 42.9601C53.3285 42.9601 51.8447 44.4439 51.8447 46.2743C51.8447 48.1047 53.3285 49.5885 55.1589 49.5885C56.9892 49.5885 58.473 48.1047 58.473 46.2743C58.473 44.4439 56.9892 42.9601 55.1589 42.9601ZM11.7217 46.2743C11.7217 44.4439 13.2055 42.9601 15.0358 42.9601C16.8662 42.9601 18.35 44.4439 18.35 46.2743C18.35 48.1047 16.8662 49.5885 15.0358 49.5885C13.2055 49.5885 11.7217 48.1047 11.7217 46.2743Z" />
</svg>
