<svg width="72" height="72" viewBox="0 0 72 72" xmlns="http://www.w3.org/2000/svg">
<path fill-rule="evenodd" clip-rule="evenodd" d="M23.833 28.8326V22.0364C23.833 18.8743 25.1254 15.8506 27.4116 13.6279C29.6963 11.4067 32.7863 10.166 35.9997 10.166C39.2131 10.166 42.303 11.4067 44.5878 13.6279C46.8739 15.8506 48.1663 18.8743 48.1663 22.0364V28.8326H53.9997C56.3009 28.8326 58.1663 30.6981 58.1663 32.9993V58.3326C58.1663 60.6338 56.3009 62.4993 53.9997 62.4993H17.9997C15.6985 62.4993 13.833 60.6338 13.833 58.3326V32.9993C13.833 30.6981 15.6985 28.8326 17.9997 28.8326H23.833ZM29.5028 15.7789C31.2189 14.1105 33.5551 13.166 35.9997 13.166C38.4442 13.166 40.7805 14.1105 42.4965 15.7789C44.2111 17.4459 45.1663 19.6977 45.1663 22.0364V28.8326H26.833V22.0364C26.833 19.6977 27.7882 17.4459 29.5028 15.7789ZM25.3217 31.8326C25.3254 31.8327 25.3292 31.8327 25.333 31.8327C25.3368 31.8327 25.3406 31.8327 25.3443 31.8326H46.655C46.6588 31.8327 46.6626 31.8327 46.6663 31.8327C46.6701 31.8327 46.6739 31.8327 46.6777 31.8326H53.9997C54.644 31.8326 55.1663 32.355 55.1663 32.9993V58.3326C55.1663 58.977 54.644 59.4993 53.9997 59.4993H17.9997C17.3553 59.4993 16.833 58.977 16.833 58.3326V32.9993C16.833 32.355 17.3553 31.8326 17.9997 31.8326H25.3217Z" />
</svg>
