<svg   viewBox="0 0 72 72" fill="none" xmlns="http://www.w3.org/2000/svg">
<g clip-path="url(#clip0_453_5298)">
<path d="M49.5607 28.0607C50.1464 27.4749 50.1464 26.5251 49.5607 25.9393C48.9749 25.3536 48.0251 25.3536 47.4393 25.9393L31.5 41.8787L25.0607 35.4393C24.4749 34.8536 23.5251 34.8536 22.9393 35.4393C22.3536 36.0251 22.3536 36.9749 22.9393 37.5607L30.4393 45.0607C31.0251 45.6464 31.9749 45.6464 32.5607 45.0607L49.5607 28.0607Z" />
<path fill-rule="evenodd" clip-rule="evenodd" d="M72 36C72 55.8823 55.8823 72 36 72C16.1177 72 0 55.8823 0 36C0 16.1177 16.1177 0 36 0C55.8823 0 72 16.1177 72 36ZM69 36C69 54.2254 54.2254 69 36 69C17.7746 69 3 54.2254 3 36C3 17.7746 17.7746 3 36 3C54.2254 3 69 17.7746 69 36Z" />
</g>
<defs>
<clipPath id="clip0_453_5298">
<rect width="72" height="72" />
</clipPath>
</defs>
</svg>
