<svg   viewBox="0 0 72 72" fill="none" xmlns="http://www.w3.org/2000/svg">
<path d="M45.8399 10.5C43.2791 10.5 41.3539 12.5592 41.1195 14.9235C40.8501 17.6409 40.2092 20.2479 39.2485 22.6938C39.0304 23.2492 39.1621 23.881 39.584 24.3029L44.2579 28.9767C44.8437 29.5625 45.7934 29.5625 46.3792 28.9767C46.965 28.3909 46.965 27.4412 46.3792 26.8554L42.3882 22.8644C43.2563 20.4367 43.8416 17.875 44.1049 15.2195C44.2057 14.2023 45.0028 13.5 45.8399 13.5H48.9163C55.0233 13.5 59.6178 18.4354 58.2493 23.8109C57.1235 28.2328 55.3801 32.4084 53.1157 36.2406C52.6943 36.9538 52.9308 37.8736 53.644 38.2951C54.3573 38.7165 55.2771 38.4799 55.6985 37.7667C58.1054 33.6933 59.9594 29.2535 61.1565 24.551C63.1414 16.7544 56.4015 10.5 48.9163 10.5H45.8399Z" />
<path fill-rule="evenodd" clip-rule="evenodd" d="M39.191 37.0693C39.1824 37.0604 39.1737 37.0514 39.1649 37.0426C39.1561 37.0338 39.1472 37.0251 39.1382 37.0166L15.7277 13.606C15.1419 13.0202 14.1921 13.0202 13.6063 13.606C13.0205 14.1918 13.0205 15.1416 13.6063 15.7273L35.9603 38.0813C33.6415 40.2127 31.0381 42.0386 28.2142 43.4954L24.3028 39.584C23.8809 39.1622 23.2491 39.0304 22.6938 39.2485C20.2479 40.2092 17.6409 40.8501 14.9235 41.1195C12.5592 41.3539 10.5 43.279 10.5 45.8399V48.9163C10.5 56.4015 16.7544 63.1414 24.551 61.1565C33.0173 59.0012 40.631 54.7173 46.7896 48.9106L56.273 58.394C56.8588 58.9798 57.8085 58.9798 58.3943 58.394C58.9801 57.8082 58.9801 56.8585 58.3943 56.2727L47.8923 45.7706C47.8837 45.7616 47.875 45.7527 47.8661 45.7439C47.8573 45.7351 47.8484 45.7264 47.8394 45.7178L39.191 37.0693ZM38.0833 40.2044C35.2688 42.8085 32.0631 44.9969 28.5635 46.6716C27.9897 46.9462 27.3052 46.829 26.8554 46.3792L22.8644 42.3882C20.4367 43.2563 17.875 43.8416 15.2195 44.1049C14.2023 44.2057 13.5 45.0028 13.5 45.8399V48.9163C13.5 55.0233 18.4354 59.6178 23.8109 58.2493C31.742 56.2302 38.8817 52.2234 44.6673 46.7883L38.0833 40.2044Z" />
</svg>
