<svg   viewBox="0 0 72 72" fill="none" xmlns="http://www.w3.org/2000/svg">
<path fill-rule="evenodd" clip-rule="evenodd" d="M17 12.5C14.5147 12.5 12.5 14.5147 12.5 17V30C12.5 32.4853 14.5147 34.5 17 34.5H30C32.4853 34.5 34.5 32.4853 34.5 30V17C34.5 14.5147 32.4853 12.5 30 12.5H17ZM15.5 17C15.5 16.1716 16.1716 15.5 17 15.5H30C30.8284 15.5 31.5 16.1716 31.5 17V30C31.5 30.8284 30.8284 31.5 30 31.5H17C16.1716 31.5 15.5 30.8284 15.5 30V17Z" />
<path fill-rule="evenodd" clip-rule="evenodd" d="M42 37.5C39.5147 37.5 37.5 39.5147 37.5 42V55C37.5 57.4853 39.5147 59.5 42 59.5H55C57.4853 59.5 59.5 57.4853 59.5 55V42C59.5 39.5147 57.4853 37.5 55 37.5H42ZM40.5 42C40.5 41.1716 41.1716 40.5 42 40.5H55C55.8284 40.5 56.5 41.1716 56.5 42V55C56.5 55.8284 55.8284 56.5 55 56.5H42C41.1716 56.5 40.5 55.8284 40.5 55V42Z" />
<path fill-rule="evenodd" clip-rule="evenodd" d="M37.5 17C37.5 14.5147 39.5147 12.5 42 12.5H55C57.4853 12.5 59.5 14.5147 59.5 17V30C59.5 32.4853 57.4853 34.5 55 34.5H42C39.5147 34.5 37.5 32.4853 37.5 30V17ZM42 15.5C41.1716 15.5 40.5 16.1716 40.5 17V30C40.5 30.8284 41.1716 31.5 42 31.5H55C55.8284 31.5 56.5 30.8284 56.5 30V17C56.5 16.1716 55.8284 15.5 55 15.5H42Z" />
<path fill-rule="evenodd" clip-rule="evenodd" d="M17 37.5C14.5147 37.5 12.5 39.5147 12.5 42V55C12.5 57.4853 14.5147 59.5 17 59.5H30C32.4853 59.5 34.5 57.4853 34.5 55V42C34.5 39.5147 32.4853 37.5 30 37.5H17ZM15.5 42C15.5 41.1716 16.1716 40.5 17 40.5H30C30.8284 40.5 31.5 41.1716 31.5 42V55C31.5 55.8284 30.8284 56.5 30 56.5H17C16.1716 56.5 15.5 55.8284 15.5 55V42Z" />
</svg>
