<svg fill="red" viewBox="0 0 72 72" fill="none" xmlns="http://www.w3.org/2000/svg">
<g clip-path="url(#clip0_591_7240)">
<path fill-rule="evenodd" clip-rule="evenodd" d="M72 36C72 55.8823 55.8823 72 36 72C16.1177 72 0 55.8823 0 36C0 16.1177 16.1177 0 36 0C55.8823 0 72 16.1177 72 36ZM69 36C69 54.2254 54.2254 69 36 69C17.7746 69 3 54.2254 3 36C3 17.7746 17.7746 3 36 3C54.2254 3 69 17.7746 69 36Z" />
<path fill-rule="evenodd" clip-rule="evenodd" d="M36 40.5C30.201 40.5 25.5 45.201 25.5 51V52C25.5 52.8284 24.8284 53.5 24 53.5C23.1716 53.5 22.5 52.8284 22.5 52V51C22.5 43.5442 28.5442 37.5 36 37.5C43.4558 37.5 49.5 43.5442 49.5 51V52C49.5 52.8284 48.8284 53.5 48 53.5C47.1716 53.5 46.5 52.8284 46.5 52V51C46.5 45.201 41.799 40.5 36 40.5Z" />
<path d="M28 28C28 29.1046 27.1046 30 26 30C24.8954 30 24 29.1046 24 28C24 26.8954 24.8954 26 26 26C27.1046 26 28 26.8954 28 28Z" />
<path d="M48 28C48 29.1046 47.1046 30 46 30C44.8954 30 44 29.1046 44 28C44 26.8954 44.8954 26 46 26C47.1046 26 48 26.8954 48 28Z" />
</g>
<defs>
<clipPath id="clip0_591_7240">
<rect width="72" height="72" />
</clipPath>
</defs>
</svg>
