<svg viewBox="0 0 165 20" fill="none" xmlns="http://www.w3.org/2000/svg">
<g clip-path="url(#clip0_1467_2962)">
<path d="M21.51 13.15V0.375H25.82V12.775C25.82 14.205 26.495 15.415 28.785 15.415C31.075 15.415 31.75 14.2 31.75 12.775V0.375H36.06V13.15C36.06 17.19 32.935 19.615 28.785 19.615C24.635 19.615 21.51 17.19 21.51 13.15Z" fill="currentColor"/>
<path d="M51.3101 4.525H46.46V19.24H42.1501V4.525H37.3V0.375H51.3101V4.525Z" fill="currentColor"/>
<path d="M51.0449 9.81C51.0449 4.26 55.4349 0 60.8549 0C66.2749 0 70.6649 4.26 70.6649 9.81C70.6649 15.36 66.2749 19.62 60.8549 19.62C55.4349 19.62 51.0449 15.36 51.0449 9.81ZM66.3499 9.81C66.3499 6.44 63.9249 4.205 60.8549 4.205C57.7849 4.205 55.3599 6.44 55.3599 9.81C55.3599 13.18 57.7849 15.415 60.8549 15.415C63.9249 15.415 66.3499 13.18 66.3499 9.81Z" fill="currentColor"/>
<path d="M86.4499 0.375V19.24H82.1399V11.75H76.2099V19.24H71.8999V0.375H76.2099V7.6H82.1399V0.375H86.4499Z" fill="currentColor"/>
<path d="M109.19 13.15V0.375H113.5V12.775C113.5 14.205 114.175 15.415 116.465 15.415C118.755 15.415 119.43 14.2 119.43 12.775V0.375H123.74V13.15C123.74 17.19 120.615 19.615 116.465 19.615C112.315 19.615 109.19 17.19 109.19 13.15Z" fill="currentColor"/>
<path d="M136.03 15.09V19.24H124.98V0.375H129.29V15.09H136.025H136.03Z" fill="currentColor"/>
<path d="M149.12 15.09V19.24H137.265V0.375H148.985V4.525H141.575V7.65H148.31V11.745H141.575V15.085H149.12V15.09Z" fill="currentColor"/>
<path d="M156.715 13.04H154.665V19.24H150.355V0.375H157.9C161.485 0.375 164.365 3.26 164.365 6.84C164.365 9.155 162.965 11.26 160.89 12.31L164.905 19.235H160.27L156.715 13.035V13.04ZM154.665 9.27H157.9C159.085 9.27 160.055 8.22 160.055 6.845C160.055 5.47 159.085 4.42 157.9 4.42H154.665V9.27Z" fill="currentColor"/>
<path d="M0 9.81C0 4.26 4.39 0 9.81 0C15.23 0 18.12 4.26 18.12 9.81C18.12 15.36 15.23 19.62 9.81 19.62C4.39 19.62 0 15.36 0 9.81ZM15.305 9.81C15.305 6.44 12.88 4.205 9.81 4.205C6.74 4.205 4.315 6.44 4.315 9.81C4.315 13.18 6.74 15.415 9.81 15.415C12.88 15.415 15.305 13.18 15.305 9.81Z" fill="currentColor"/>
<path d="M20.27 0.375H15.96V19.24H20.27V0.375Z" fill="currentColor"/>
<path d="M87.6851 9.81C87.6851 4.26 92.0751 0 97.4951 0C102.915 0 105.805 4.26 105.805 9.81C105.805 15.36 102.915 19.62 97.4951 19.62C92.0751 19.62 87.6851 15.36 87.6851 9.81ZM102.99 9.81C102.99 6.44 100.565 4.205 97.4951 4.205C94.4251 4.205 92.0001 6.44 92.0001 9.81C92.0001 13.18 94.4251 15.415 97.4951 15.415C100.565 15.415 102.99 13.18 102.99 9.81Z" fill="currentColor"/>
<path d="M107.955 0.375H103.645V19.24H107.955V0.375Z" fill="currentColor"/>
</g>
<defs>
<clipPath id="clip0_1467_2962">
<rect width="165" height="20" fill="currentColor"/>
</clipPath>
</defs>
</svg>
