<svg width="487" height="399" viewBox="0 0 487 399" fill="none" xmlns="http://www.w3.org/2000/svg">
<path d="M361.079 156.411C326.961 161.728 292.4 162.392 266.479 161.728L245.211 106.12L204.446 0.221542H292.4C293.95 0.221542 295.28 1.10773 295.944 2.65854L361.079 156.411Z" fill="#F7080C"/>
<path d="M392.095 229.964C368.611 240.819 338.26 247.466 299.268 247.244L355.318 392.799C355.983 394.35 357.312 395.236 358.863 395.236H456.121C459.002 395.236 460.774 392.356 459.666 389.919L392.095 229.964Z" fill="#F7080C"/>
<path d="M113.17 199.169C142.857 171.697 180.076 154.195 220.84 148.214C223.499 147.771 226.379 147.549 229.038 147.106L244.989 105.899L204.225 0H197.578C196.027 0 194.477 0.886177 194.034 2.43699L109.403 202.492C110.733 201.606 111.84 200.498 113.17 199.169Z" fill="#F7080C"/>
<path d="M266.479 161.728C263.378 161.728 260.719 161.506 257.839 161.506C246.097 161.063 234.577 161.728 223.056 163.279C186.058 168.596 151.276 184.769 123.361 210.246C108.739 223.76 96.9973 238.161 90.5725 247.244L30.3123 389.919C29.2046 392.578 31.1985 395.236 33.857 395.236H75.2859L78.8307 387.039L85.2555 389.698L83.04 395.236H131.558C133.109 395.236 134.66 394.35 135.103 392.799L167.227 309.055C207.77 244.586 293.286 247.244 293.286 247.244C295.502 247.244 297.496 247.244 299.49 247.244C313.225 247.244 325.853 246.58 337.595 245.029C359.085 242.149 377.03 237.053 392.317 229.964L361.301 156.411C326.961 161.728 292.179 162.392 266.479 161.728ZM92.5665 372.417L86.1416 369.759L93.4526 352.257L99.8774 354.915L92.5665 372.417ZM107.188 337.635L100.764 334.976L108.075 317.474L114.499 320.133L107.188 337.635ZM122.032 302.631L115.607 299.972L122.918 282.47L129.343 285.128L122.032 302.631ZM139.534 270.728L134.217 266.297C138.426 261.423 142.636 256.549 147.288 252.118L152.162 256.992C147.731 261.202 143.522 265.854 139.534 270.728ZM165.898 244.586L161.467 239.047C166.562 235.059 171.88 231.293 177.418 227.97L180.963 233.952C175.867 237.275 170.772 240.819 165.898 244.586ZM197.357 225.311L194.477 218.886C200.237 216.228 206.441 213.791 212.422 212.019L214.638 218.665C208.878 220.437 203.117 222.874 197.357 225.311ZM239.672 212.905C237.235 213.348 235.02 213.569 232.583 214.013L231.254 207.145C233.691 206.702 236.128 206.258 238.565 205.815C242.552 205.151 246.54 204.929 250.306 204.486L250.75 211.354C247.205 212.019 243.439 212.462 239.672 212.905ZM288.634 211.797C283.981 211.797 279.772 211.797 275.563 211.575C274.233 211.575 272.904 211.576 271.575 211.354H269.581L269.802 204.486H271.796C273.126 204.486 274.455 204.486 275.784 204.708C279.772 204.708 284.203 204.929 288.634 204.929V211.797ZM307.687 211.575L307.465 204.708C313.89 204.486 320.093 204.043 326.296 203.6L326.74 210.468C320.536 211.132 314.111 211.354 307.687 211.575ZM364.624 205.815C361.744 206.48 358.642 206.923 355.762 207.366C352.439 207.809 349.116 208.252 345.792 208.695L344.906 201.828C348.229 201.384 351.553 200.941 354.654 200.498C357.534 200.055 360.414 199.612 363.294 198.947L364.624 205.815Z" fill="black"/>
</svg>
