<svg viewBox="0 0 104 44" fill="none" xmlns="http://www.w3.org/2000/svg">
<path d="M24.2694 14.591V0.416016H29.0517V14.1749C29.0517 15.7616 29.8007 17.1042 32.3416 17.1042C34.8826 17.1042 35.6316 15.756 35.6316 14.1749V0.416016H40.4139V14.591C40.4139 19.0737 36.9464 21.7644 32.3416 21.7644C27.7369 21.7644 24.2694 19.0737 24.2694 14.591Z" fill="currentColor"/>
<path d="M57.3324 5.02079H51.9509V21.3483H47.1686V5.02079H41.7871V0.416016H57.3324V5.02079Z" fill="currentColor"/>
<path d="M57.0398 10.885C57.0398 4.72683 61.9109 0 67.9248 0C73.9388 0 78.8098 4.72683 78.8098 10.885C78.8098 17.0432 73.9388 21.7701 67.9248 21.7701C61.9109 21.7701 57.0398 17.0432 57.0398 10.885ZM74.022 10.885C74.022 7.14573 71.3312 4.6658 67.9248 4.6658C64.5184 4.6658 61.8277 7.14573 61.8277 10.885C61.8277 14.6243 64.5184 17.1042 67.9248 17.1042C71.3312 17.1042 74.022 14.6243 74.022 10.885Z" fill="currentColor"/>
<path d="M0.401367 10.885C0.401367 4.72683 5.27244 0 11.2864 0C17.3003 0 20.507 4.72683 20.507 10.885C20.507 17.0432 17.3003 21.7701 11.2864 21.7701C5.27244 21.7701 0.401367 17.0432 0.401367 10.885ZM17.3836 10.885C17.3836 7.14573 14.6928 4.6658 11.2864 4.6658C7.87997 4.6658 5.18923 7.14573 5.18923 10.885C5.18923 14.6243 7.87997 17.1042 11.2864 17.1042C14.6928 17.1042 17.3836 14.6243 17.3836 10.885Z" fill="currentColor"/>
<path d="M22.8916 0.416016H18.1093V21.3483H22.8916V0.416016Z" fill="currentColor"/>
<path d="M16.5458 22.6074V43.5397H11.7635V35.2289H5.18368V43.5397H0.401367V22.6074H5.18368V30.6242H11.7635V22.6074H16.5458Z" fill="currentColor"/>
<path d="M41.7773 36.7824V22.6074H46.5597V36.3663C46.5597 37.953 47.3086 39.2956 49.8496 39.2956C52.3905 39.2956 53.1395 37.9474 53.1395 36.3663V22.6074H57.9218V36.7824C57.9218 41.2651 54.4543 43.9558 49.8496 43.9558C45.2448 43.9558 41.7773 41.2651 41.7773 36.7824Z" fill="currentColor"/>
<path d="M71.5585 38.935V43.5397H59.2976V22.6074H64.0799V38.935H71.553H71.5585Z" fill="currentColor"/>
<path d="M86.082 38.935V43.5397H72.9279V22.6074H85.9322V27.2122H77.7102V30.6797H85.1832V35.2234H77.7102V38.9294H86.082V38.935Z" fill="currentColor"/>
<path d="M94.5101 36.6603H92.2354V43.5397H87.4531V22.6074H95.8249C99.8028 22.6074 102.998 25.8086 102.998 29.7809C102.998 32.3496 101.445 34.6853 99.1426 35.8503L103.598 43.5342H98.4547L94.5101 36.6548V36.6603ZM92.2354 32.4772H95.8249C97.1398 32.4772 98.2161 31.3121 98.2161 29.7864C98.2161 28.2608 97.1398 27.0957 95.8249 27.0957H92.2354V32.4772Z" fill="currentColor"/>
<path d="M17.915 33.0764C17.915 26.9182 22.7861 22.1914 28.8001 22.1914C34.814 22.1914 38.0207 26.9182 38.0207 33.0764C38.0207 39.2346 34.814 43.9615 28.8001 43.9615C22.7861 43.9615 17.915 39.2346 17.915 33.0764ZM34.8972 33.0764C34.8972 29.3371 32.2065 26.8572 28.8001 26.8572C25.3936 26.8572 22.7029 29.3371 22.7029 33.0764C22.7029 36.8157 25.3936 39.2957 28.8001 39.2957C32.2065 39.2957 34.8972 36.8157 34.8972 33.0764Z" fill="currentColor"/>
<path d="M40.4073 22.6074H35.625V43.5397H40.4073V22.6074Z" fill="currentColor"/>
</svg>
